<svg width="208" height="208" viewBox="0 0 208 208" fill="none" xmlns="http://www.w3.org/2000/svg">
<g filter="url(#filter0_d_523_3584)">
<path d="M104 200C159.228 200 204 173.765 204 141.402C204 109.04 159.228 82.8047 104 82.8047C48.7715 82.8047 4 109.04 4 141.402C4 173.765 48.7715 200 104 200Z" fill="#F5F5F5"/>
<path d="M28.6431 132.273L127.163 190.025C127.757 190.329 128.412 190.488 129.077 190.488C129.742 190.488 130.397 190.329 130.991 190.025L184.626 158.585C185.685 157.968 185.685 156.964 184.626 156.343L86.1058 98.5908C85.5123 98.2868 84.8567 98.1284 84.1918 98.1284C83.527 98.1284 82.8714 98.2868 82.2779 98.5908L28.6431 130.031C27.5841 130.639 27.5841 131.652 28.6431 132.273Z" fill="#E0E0E0"/>
<path d="M175.407 62.0224L172.148 60.119C172.164 59.9845 172.172 59.8492 172.174 59.7137V58.7576C172.124 57.8316 171.86 56.9306 171.403 56.1276C170.946 55.3245 170.309 54.6422 169.544 54.1359C169.316 53.981 169.06 53.8742 168.791 53.822C168.522 53.7698 168.245 53.7731 167.977 53.8319C167.739 51.4131 166.085 48.6771 164.071 47.5007C161.901 46.2274 160.143 47.2584 160.143 49.805V51.2369C160.152 51.9312 160.263 52.6203 160.473 53.2812L157.774 51.6995C156.971 51.2281 156.315 51.6114 156.315 52.5542C156.343 53.0678 156.49 53.5675 156.743 54.013C156.996 54.4584 157.35 54.8371 157.774 55.1184L175.407 65.4325C176.21 65.9039 176.861 65.5206 176.861 64.5777C176.833 64.066 176.687 63.5681 176.434 63.1243C176.182 62.6805 175.83 62.303 175.407 62.0224Z" fill="#F0F0F0"/>
<path d="M132.284 22.1802L134.077 22.8808V18.8715C134.077 15.6904 136.577 14.9282 139.285 16.5187C141.997 18.1092 144.198 21.9732 144.198 25.1498V25.7358C144.814 25.4846 145.608 25.5815 146.476 26.0926C148.425 27.2337 150.009 30.0138 150.009 32.3049V32.5692L152.509 34.0319C153.186 34.4807 153.75 35.0851 154.154 35.7963C154.558 36.5074 154.792 37.3052 154.835 38.125C154.835 39.6318 153.794 40.2398 152.509 39.4864L132.284 27.6347C131.607 27.1859 131.044 26.5815 130.639 25.8704C130.235 25.1592 130.002 24.3614 129.958 23.5416C129.958 22.0392 131 21.4268 132.284 22.1802Z" fill="#F0F0F0"/>
<path d="M171.714 147.976L168.298 145.619C168.298 145.619 166.788 136.503 168.19 128.498C170.16 117.245 177.808 113.518 180.537 114.677C183.267 115.835 183.849 119.206 178.758 125.634C175.755 129.432 171.831 137.494 171.714 147.976Z" fill="#88BCA1"/>
<g opacity="0.15">
<path opacity="0.15" d="M171.714 147.976L168.298 145.619C168.298 145.619 166.788 136.503 168.19 128.498C170.16 117.245 177.808 113.518 180.537 114.677C183.267 115.835 183.849 119.206 178.758 125.634C175.755 129.432 171.831 137.494 171.714 147.976Z" fill="black"/>
</g>
<path d="M170.547 143.464H170.581C170.614 143.46 170.645 143.45 170.674 143.434C170.703 143.417 170.728 143.396 170.748 143.369C170.768 143.343 170.783 143.313 170.792 143.281C170.8 143.249 170.803 143.215 170.798 143.182C169.561 132.586 173.971 121.091 178.762 116.514C178.807 116.467 178.832 116.405 178.833 116.341C178.834 116.276 178.809 116.213 178.766 116.166C178.722 116.119 178.662 116.091 178.598 116.087C178.535 116.084 178.472 116.106 178.424 116.148C173.541 120.805 169.049 132.489 170.308 143.244C170.313 143.304 170.341 143.36 170.385 143.401C170.429 143.442 170.487 143.464 170.547 143.464Z" fill="white"/>
<path d="M180.698 154.122C181.245 154.452 182.833 153.241 183.272 152.968C184.026 152.467 184.642 151.778 185.06 150.967C185.525 150.046 185.698 149.001 185.555 147.976C185.473 147.434 185.357 146.898 185.207 146.372C185.073 145.857 184.938 145.337 184.799 144.817C184.631 144.314 184.566 143.782 184.608 143.253C184.76 142.195 185.698 141.49 186.553 140.847C187.499 140.16 188.484 139.243 188.501 137.97C188.454 136.979 188.083 136.032 187.447 135.278C186.514 134.031 185.563 133.049 185.828 131.348C186.059 130.323 186.404 129.329 186.857 128.383C187.038 127.974 187.163 127.541 187.226 127.096C187.265 126.698 187.219 126.295 187.09 125.916C186.961 125.537 186.753 125.191 186.479 124.902C186.205 124.614 185.873 124.389 185.505 124.243C185.137 124.098 184.742 124.036 184.348 124.061C183.634 124.136 182.944 124.368 182.326 124.739C180.381 125.788 179.201 128.52 176.944 128.806C176.21 128.898 175.464 128.863 174.73 128.96C173.988 129.014 173.286 129.325 172.743 129.841C171.028 131.709 173.02 134.155 172.309 136.212C171.796 137.679 170.369 138.217 169.548 139.534C169.215 140.117 169.072 140.793 169.14 141.464C169.189 142.596 169.441 143.71 169.883 144.751C170.387 145.823 170.955 146.863 171.584 147.866L180.698 154.122Z" fill="#88BCA1"/>
<path opacity="0.2" d="M180.698 154.122C181.245 154.452 182.833 153.241 183.272 152.968C184.026 152.467 184.642 151.778 185.06 150.967C185.525 150.046 185.698 149.001 185.555 147.976C185.473 147.434 185.357 146.898 185.207 146.372C185.073 145.857 184.938 145.337 184.799 144.817C184.631 144.314 184.566 143.782 184.608 143.253C184.76 142.195 185.698 141.49 186.553 140.847C187.499 140.16 188.484 139.243 188.501 137.97C188.454 136.979 188.083 136.032 187.447 135.278C186.514 134.031 185.563 133.049 185.828 131.348C186.059 130.323 186.404 129.329 186.857 128.383C187.038 127.974 187.163 127.541 187.226 127.096C187.265 126.698 187.219 126.295 187.09 125.916C186.961 125.537 186.753 125.191 186.479 124.902C186.205 124.614 185.873 124.389 185.505 124.243C185.137 124.098 184.742 124.036 184.348 124.061C183.634 124.136 182.944 124.368 182.326 124.739C180.381 125.788 179.201 128.52 176.944 128.806C176.21 128.898 175.464 128.863 174.73 128.96C173.988 129.014 173.286 129.325 172.743 129.841C171.028 131.709 173.02 134.155 172.309 136.212C171.796 137.679 170.369 138.217 169.548 139.534C169.215 140.117 169.072 140.793 169.14 141.464C169.189 142.596 169.441 143.71 169.883 144.751C170.387 145.823 170.955 146.863 171.584 147.866L180.698 154.122Z" fill="white"/>
<path d="M175.434 150.84C175.466 150.84 175.499 150.833 175.529 150.82C175.559 150.807 175.586 150.788 175.609 150.764C175.631 150.74 175.649 150.712 175.661 150.681C175.672 150.65 175.678 150.617 175.677 150.584C175.46 140.574 180.312 129.621 183.749 126.475C183.798 126.431 183.828 126.369 183.831 126.302C183.835 126.236 183.812 126.17 183.769 126.121C183.725 126.071 183.664 126.041 183.598 126.037C183.533 126.034 183.468 126.056 183.419 126.101C179.913 129.308 174.96 140.442 175.173 150.593C175.174 150.627 175.181 150.66 175.194 150.691C175.208 150.722 175.227 150.749 175.252 150.772C175.276 150.795 175.305 150.813 175.336 150.825C175.367 150.836 175.4 150.841 175.434 150.84Z" fill="white"/>
<path d="M177.252 138.644H177.326C179.673 138.035 182.079 137.69 184.5 137.613C184.565 137.611 184.627 137.583 184.672 137.535C184.718 137.488 184.743 137.424 184.743 137.358C184.743 137.324 184.736 137.291 184.723 137.26C184.71 137.229 184.691 137.201 184.667 137.178C184.643 137.155 184.615 137.137 184.584 137.126C184.553 137.114 184.52 137.109 184.487 137.111C182.023 137.188 179.575 137.54 177.187 138.16C177.129 138.176 177.079 138.212 177.046 138.263C177.013 138.314 176.999 138.375 177.007 138.435C177.015 138.496 177.044 138.551 177.089 138.591C177.134 138.631 177.192 138.653 177.252 138.653V138.644Z" fill="white"/>
<path d="M36.0429 126.03L40.0097 124.215C40.0097 124.215 41.7457 116.161 41.7457 109.79C41.7718 100.833 37.1886 89.5853 30.2098 91.4005C23.2309 93.2157 32.1498 103.252 33.582 110.998C35.0143 118.743 36.0429 126.03 36.0429 126.03Z" fill="#88BCA1"/>
<path opacity="0.15" d="M36.0429 126.03L40.0097 124.215C40.0097 124.215 41.7457 116.161 41.7457 109.79C41.7718 100.833 37.1886 89.5853 30.2098 91.4005C23.2309 93.2157 32.1498 103.252 33.582 110.998C35.0143 118.743 36.0429 126.03 36.0429 126.03Z" fill="black"/>
<path d="M38.1087 125.308C38.0788 125.303 38.05 125.293 38.024 125.278C37.998 125.262 37.9753 125.241 37.9571 125.217C37.939 125.192 37.9258 125.164 37.9183 125.135C37.9108 125.105 37.9091 125.074 37.9134 125.043C40.5175 105.407 31.8373 94.5066 31.7679 94.3964C31.744 94.3738 31.7251 94.3462 31.7125 94.3156C31.6999 94.2849 31.6939 94.2519 31.6949 94.2187C31.6958 94.1855 31.7038 94.153 31.7181 94.1231C31.7325 94.0933 31.753 94.0669 31.7782 94.0458C31.8034 94.0246 31.8327 94.0091 31.8643 94.0004C31.8958 93.9917 31.9289 93.9899 31.9612 93.9951C31.9935 94.0004 32.0243 94.0126 32.0516 94.0309C32.0789 94.0492 32.102 94.0732 32.1194 94.1013C32.2106 94.2114 41.0123 105.27 38.3648 125.11C38.3611 125.14 38.3515 125.169 38.3365 125.195C38.3216 125.222 38.3016 125.245 38.2777 125.263C38.2539 125.282 38.2267 125.295 38.1977 125.303C38.1687 125.31 38.1384 125.312 38.1087 125.308Z" fill="white"/>
<path d="M33.5517 127.158L36.3727 125.867C36.3727 125.867 37.384 120.325 35.3615 113.253C33.5994 107.085 28.2524 101.591 25.2144 102.322C22.1763 103.054 22.0417 105.173 23.2526 107.535C24.4635 109.896 32.6402 116.069 33.5517 127.158Z" fill="#88BCA1"/>
<path opacity="0.2" d="M33.5517 127.158L36.3727 125.867C36.3727 125.867 37.384 120.325 35.3615 113.253C33.5994 107.085 28.2524 101.591 25.2144 102.322C22.1763 103.054 22.0417 105.173 23.2526 107.535C24.4635 109.896 32.6402 116.069 33.5517 127.158Z" fill="white"/>
<path d="M35.0013 126.709C34.9409 126.702 34.8856 126.672 34.8474 126.624C34.8092 126.576 34.7912 126.515 34.7973 126.453C36.0993 113.998 25.4053 104.398 25.2968 104.301C25.2514 104.261 25.2235 104.204 25.2195 104.142C25.2154 104.081 25.2354 104.021 25.2751 103.975C25.3148 103.929 25.371 103.9 25.4312 103.896C25.4914 103.892 25.5508 103.912 25.5963 103.953C25.7048 104.05 36.568 113.813 35.2486 126.502C35.2459 126.532 35.2374 126.561 35.2234 126.588C35.2095 126.615 35.1905 126.639 35.1675 126.658C35.1445 126.677 35.1179 126.691 35.0894 126.7C35.0609 126.709 35.0309 126.712 35.0013 126.709Z" fill="white"/>
<path d="M178.749 158.052L132.944 184.897C132.22 185.319 131.403 185.549 130.568 185.565C129.733 185.58 128.908 185.381 128.17 184.985L35.9387 130.93C34.4891 130.079 33.3086 128.176 33.3086 126.678C33.3086 125.18 34.4848 123.277 35.9387 122.422L81.5791 95.6741C82.3949 95.2569 83.2957 95.0396 84.2092 95.0396C85.1227 95.0396 86.0234 95.2569 86.8393 95.6741L178.749 149.544C180.203 150.395 181.379 152.302 181.379 153.8C181.379 155.298 180.203 157.202 178.749 158.052Z" fill="#88BCA1"/>
<path opacity="0.5" d="M81.5791 95.6741L35.9387 122.422C34.4848 123.277 33.3086 125.18 33.3086 126.678C33.3086 128.176 34.4891 130.079 35.9387 130.93L128.161 184.985C128.87 185.354 129.652 185.551 130.448 185.562V121.237L86.8393 95.6829C86.0241 95.2643 85.1237 95.0455 84.2102 95.044C83.2967 95.0424 82.3956 95.2582 81.5791 95.6741Z" fill="black"/>
<path opacity="0.4" d="M132.944 184.897L178.749 158.052C180.203 157.202 181.379 155.298 181.379 153.8C181.379 152.302 180.203 150.395 178.749 149.544L130.448 121.237V185.562C131.324 185.573 132.186 185.343 132.944 184.897Z" fill="black"/>
<path d="M131.855 180.112C131.135 180.481 130.341 180.674 129.535 180.674C128.729 180.674 127.934 180.481 127.215 180.112L35.93 126.612C33.9639 125.462 33.9639 123.576 35.93 122.426L81.5747 95.6741C82.3905 95.2569 83.2913 95.0396 84.2048 95.0396C85.1183 95.0396 86.0191 95.2569 86.8349 95.6741L178.745 149.544C180.195 150.395 180.195 151.778 178.745 152.628L131.855 180.112Z" fill="#88BCA1"/>
<path opacity="0.3" d="M131.855 180.112C131.135 180.481 130.341 180.674 129.535 180.674C128.729 180.674 127.934 180.481 127.215 180.112L35.93 126.612C33.9639 125.462 33.9639 123.576 35.93 122.426L81.5747 95.6741C82.3905 95.2569 83.2913 95.0396 84.2048 95.0396C85.1183 95.0396 86.0191 95.2569 86.8349 95.6741L178.745 149.544C180.195 150.395 180.195 151.778 178.745 152.628L131.855 180.112Z" fill="black"/>
<path d="M127.419 174.724C126.645 175.123 125.788 175.332 124.919 175.332C124.05 175.332 123.194 175.123 122.419 174.724L43.8637 128.687C42.4836 127.876 42.4836 126.568 43.8637 125.757L86.8046 100.595C87.5797 100.198 88.436 99.9905 89.3045 99.9905C90.1729 99.9905 91.0293 100.198 91.8044 100.595L170.36 146.632C171.736 147.438 171.736 148.756 170.36 149.562L127.419 174.724Z" fill="#37474F"/>
<path d="M89.1569 99.9961C88.3392 99.9983 87.5344 100.204 86.8132 100.595L43.8724 125.757C42.4922 126.568 42.4922 127.876 43.8724 128.687L52.3833 133.674L89.1569 109.834V99.9961Z" fill="#263238"/>
<path d="M91.8564 102.499C91.0813 102.101 90.225 101.894 89.3565 101.894C88.488 101.894 87.6317 102.101 86.8566 102.499L43.9201 127.66C43.6754 127.802 43.4542 127.982 43.2648 128.194C43.4476 128.389 43.6582 128.555 43.8897 128.687L122.445 174.724C123.22 175.123 124.076 175.332 124.945 175.332C125.814 175.332 126.671 175.123 127.445 174.724L170.36 149.584C170.603 149.447 170.821 149.27 171.007 149.06C170.829 148.86 170.621 148.691 170.39 148.557L91.8564 102.499Z" fill="#455A64"/>
<path d="M59.5661 113.989L67.1787 109.526C67.6127 109.262 67.6561 108.843 67.2264 108.592C66.9769 108.471 66.7029 108.411 66.4264 108.416C66.1498 108.421 65.8784 108.492 65.6336 108.623L58.0254 113.082C57.5697 113.35 57.548 113.769 57.9733 114.016C58.2222 114.138 58.4961 114.2 58.7728 114.196C59.0496 114.191 59.3213 114.12 59.5661 113.989Z" fill="#37474F"/>
<path d="M72.6341 106.341C72.7276 106.309 72.8089 106.248 72.8665 106.167C72.9242 106.086 72.9552 105.989 72.9552 105.889C72.9552 105.789 72.9242 105.692 72.8665 105.61C72.8089 105.529 72.7276 105.469 72.6341 105.437C72.3956 105.314 72.1316 105.249 71.8638 105.249C71.5959 105.249 71.3319 105.314 71.0934 105.437C70.9999 105.469 70.9186 105.529 70.861 105.61C70.8034 105.692 70.7723 105.789 70.7723 105.889C70.7723 105.989 70.8034 106.086 70.861 106.167C70.9186 106.248 70.9999 106.309 71.0934 106.341C71.3329 106.461 71.5965 106.524 71.8638 106.524C72.131 106.524 72.3946 106.461 72.6341 106.341Z" fill="#37474F"/>
<path d="M75.7199 104.53C75.8134 104.498 75.8947 104.438 75.9523 104.357C76.01 104.276 76.041 104.178 76.041 104.078C76.041 103.978 76.01 103.881 75.9523 103.8C75.8947 103.719 75.8134 103.658 75.7199 103.627C75.4814 103.503 75.2174 103.438 74.9496 103.438C74.6817 103.438 74.4177 103.503 74.1792 103.627C73.7452 103.873 73.7452 104.279 74.1792 104.53C74.4177 104.653 74.6817 104.718 74.9496 104.718C75.2174 104.718 75.4814 104.653 75.7199 104.53Z" fill="#37474F"/>
<path d="M51.0595 118.994C51.153 118.963 51.2343 118.902 51.292 118.821C51.3496 118.74 51.3806 118.642 51.3806 118.543C51.3806 118.443 51.3496 118.345 51.292 118.264C51.2343 118.183 51.153 118.122 51.0595 118.091C50.8203 117.967 50.5556 117.903 50.287 117.903C50.0185 117.903 49.7537 117.967 49.5145 118.091C49.421 118.122 49.3397 118.183 49.2821 118.264C49.2244 118.345 49.1934 118.443 49.1934 118.543C49.1934 118.642 49.2244 118.74 49.2821 118.821C49.3397 118.902 49.421 118.963 49.5145 118.994C49.7537 119.118 50.0185 119.182 50.287 119.182C50.5556 119.182 50.8203 119.118 51.0595 118.994Z" fill="#37474F"/>
<path d="M54.1237 117.183C54.2099 117.148 54.2837 117.087 54.3357 117.008C54.3876 116.93 54.4154 116.837 54.4154 116.743C54.4154 116.648 54.3876 116.556 54.3357 116.477C54.2837 116.399 54.2099 116.338 54.1237 116.302C53.8852 116.179 53.6212 116.114 53.3533 116.114C53.0855 116.114 52.8214 116.179 52.5829 116.302C52.4967 116.338 52.4229 116.399 52.371 116.477C52.319 116.556 52.2913 116.648 52.2913 116.743C52.2913 116.837 52.319 116.93 52.371 117.008C52.4229 117.087 52.4967 117.148 52.5829 117.183C52.8214 117.307 53.0855 117.372 53.3533 117.372C53.6212 117.372 53.8852 117.307 54.1237 117.183Z" fill="#37474F"/>
<path d="M64.8697 144.821C65.1034 144.972 65.2992 145.176 65.4416 145.417C65.584 145.657 65.669 145.929 65.69 146.209C65.7003 146.303 65.6846 146.398 65.6448 146.484C65.6049 146.569 65.5425 146.642 65.4643 146.694C65.3645 146.751 64.9913 146.98 64.8871 147.037C64.7911 147.078 64.6863 147.093 64.5828 147.081C64.4794 147.069 64.3809 147.029 64.2968 146.967L53.6029 140.697C53.3666 140.55 53.1685 140.348 53.025 140.107C52.8816 139.867 52.797 139.595 52.7782 139.314C52.7696 139.223 52.7842 139.131 52.8207 139.048C52.8572 138.965 52.9144 138.892 52.9866 138.838C53.0864 138.772 53.477 138.543 53.5812 138.486C53.6779 138.445 53.7834 138.43 53.8875 138.442C53.9916 138.454 54.0909 138.494 54.1758 138.556L64.8697 144.821Z" fill="#88BCA1"/>
<path opacity="0.4" d="M64.8697 144.821C65.1034 144.972 65.2992 145.176 65.4416 145.417C65.584 145.657 65.669 145.929 65.69 146.209C65.7003 146.303 65.6846 146.398 65.6448 146.484C65.6049 146.569 65.5425 146.642 65.4643 146.694C65.3645 146.751 64.9913 146.98 64.8871 147.037C64.7911 147.078 64.6863 147.093 64.5828 147.081C64.4794 147.069 64.3809 147.029 64.2968 146.967L53.6029 140.697C53.3666 140.55 53.1685 140.348 53.025 140.107C52.8816 139.867 52.797 139.595 52.7782 139.314C52.7696 139.223 52.7842 139.131 52.8207 139.048C52.8572 138.965 52.9144 138.892 52.9866 138.838C53.0864 138.772 53.477 138.543 53.5812 138.486C53.6779 138.445 53.7834 138.43 53.8875 138.442C53.9916 138.454 54.0909 138.494 54.1758 138.556L64.8697 144.821Z" fill="black"/>
<path d="M64.2969 145.178L53.6029 138.909C53.1472 138.644 52.7783 138.834 52.7783 139.349C52.797 139.63 52.8816 139.902 53.025 140.143C53.1685 140.383 53.3666 140.586 53.6029 140.733L64.2969 147.002C64.7309 147.271 65.1171 147.082 65.1171 146.562C65.0968 146.282 65.012 146.011 64.8695 145.771C64.727 145.53 64.5309 145.327 64.2969 145.178Z" fill="#88BCA1"/>
<path opacity="0.3" d="M64.2969 145.178L53.6029 138.909C53.1472 138.644 52.7783 138.834 52.7783 139.349C52.797 139.63 52.8816 139.902 53.025 140.143C53.1685 140.383 53.3666 140.586 53.6029 140.733L64.2969 147.002C64.7309 147.271 65.1171 147.082 65.1171 146.562C65.0968 146.282 65.012 146.011 64.8695 145.771C64.727 145.53 64.5309 145.327 64.2969 145.178Z" fill="black"/>
<path d="M50.5518 136.433C50.7886 136.58 50.9871 136.783 51.1306 137.025C51.2741 137.266 51.3584 137.539 51.3764 137.82C51.3857 137.914 51.3696 138.009 51.3298 138.095C51.2901 138.18 51.2282 138.253 51.1507 138.305L50.5735 138.644C50.4772 138.686 50.3718 138.702 50.2676 138.691C50.1634 138.679 50.064 138.64 49.9789 138.578L44.9401 135.622C44.7032 135.474 44.5048 135.271 44.3613 135.03C44.2178 134.788 44.1335 134.515 44.1154 134.234C44.1062 134.144 44.1206 134.053 44.1572 133.97C44.1938 133.887 44.2512 133.816 44.3238 133.763C44.4236 133.697 44.8142 133.467 44.9184 133.41C45.0147 133.368 45.12 133.352 45.2242 133.364C45.3284 133.375 45.4279 133.414 45.5129 133.476L50.5518 136.433Z" fill="#88BCA1"/>
<path opacity="0.4" d="M50.5518 136.433C50.7886 136.58 50.9871 136.783 51.1306 137.025C51.2741 137.266 51.3584 137.539 51.3764 137.82C51.3857 137.914 51.3696 138.009 51.3298 138.095C51.2901 138.18 51.2282 138.253 51.1507 138.305L50.5735 138.644C50.4772 138.686 50.3718 138.702 50.2676 138.691C50.1634 138.679 50.064 138.64 49.9789 138.578L44.9401 135.622C44.7032 135.474 44.5048 135.271 44.3613 135.03C44.2178 134.788 44.1335 134.515 44.1154 134.234C44.1062 134.144 44.1206 134.053 44.1572 133.97C44.1938 133.887 44.2512 133.816 44.3238 133.763C44.4236 133.697 44.8142 133.467 44.9184 133.41C45.0147 133.368 45.12 133.352 45.2242 133.364C45.3284 133.375 45.4279 133.414 45.5129 133.476L50.5518 136.433Z" fill="black"/>
<path d="M49.9789 136.767L44.94 133.816C44.4843 133.547 44.1154 133.736 44.1154 134.256C44.1334 134.538 44.2177 134.81 44.3612 135.052C44.5047 135.293 44.7032 135.496 44.94 135.644L49.9789 138.569C50.4129 138.834 50.8035 138.644 50.8035 138.129C50.7788 137.853 50.6915 137.586 50.5484 137.35C50.4054 137.114 50.2104 136.914 49.9789 136.767Z" fill="#88BCA1"/>
<path opacity="0.3" d="M49.9789 136.767L44.94 133.816C44.4843 133.547 44.1154 133.736 44.1154 134.256C44.1334 134.538 44.2177 134.81 44.3612 135.052C44.5047 135.293 44.7032 135.496 44.94 135.644L49.9789 138.569C50.4129 138.834 50.8035 138.644 50.8035 138.129C50.7788 137.853 50.6915 137.586 50.5484 137.35C50.4054 137.114 50.2104 136.914 49.9789 136.767Z" fill="black"/>
<path d="M85.4027 142.75C93.2148 147.315 105.823 147.315 113.613 142.75C117.519 140.464 119.464 137.463 119.455 134.472V132.401C119.455 132.401 117.446 128.436 113.613 126.202C105.827 121.638 93.2148 121.638 85.4027 126.202C81.553 128.458 79.5609 132.401 79.5609 132.401V134.468C79.5609 137.477 81.5096 140.468 85.4027 142.75Z" fill="#E0E0E0"/>
<path d="M99.508 144.108C110.524 144.108 119.455 138.874 119.455 132.419C119.455 125.963 110.524 120.73 99.508 120.73C88.4915 120.73 79.5609 125.963 79.5609 132.419C79.5609 138.874 88.4915 144.108 99.508 144.108Z" fill="#F0F0F0"/>
<path d="M87.8722 139.058C94.2955 142.821 104.716 142.821 111.144 139.058C114.36 137.173 115.966 134.701 115.961 132.229V125.18C114.811 123.086 113.153 121.325 111.144 120.065C104.716 116.302 94.2955 116.302 87.8722 120.065C85.8597 121.322 84.1993 123.084 83.0504 125.18V132.229C83.0504 134.705 84.6562 137.173 87.8722 139.058Z" fill="#88BCA1"/>
<path opacity="0.15" d="M87.8722 139.058C94.2955 142.821 104.716 142.821 111.144 139.058C114.36 137.173 115.966 134.701 115.961 132.229V125.18C114.811 123.086 113.153 121.325 111.144 120.065C104.716 116.302 94.2955 116.302 87.8722 120.065C85.8597 121.322 84.1993 123.084 83.0504 125.18V132.229C83.0504 134.705 84.6562 137.173 87.8722 139.058Z" fill="black"/>
<path opacity="0.04" d="M90.4806 140.301C93.3372 141.356 96.3552 141.89 99.3951 141.878V117.249C96.3552 117.237 93.3372 117.771 90.4806 118.827V140.301Z" fill="black"/>
<path opacity="0.07" d="M111.144 120.065C107.902 118.166 103.644 117.227 99.3951 117.245V141.874C103.644 141.874 107.902 140.953 111.144 139.054C114.386 137.155 115.966 134.697 115.961 132.225V125.176C114.81 123.083 113.152 121.324 111.144 120.065Z" fill="black"/>
<path d="M99.508 134.829C108.595 134.829 115.961 130.511 115.961 125.184C115.961 119.858 108.595 115.54 99.508 115.54C90.4211 115.54 83.0547 119.858 83.0547 125.184C83.0547 130.511 90.4211 134.829 99.508 134.829Z" fill="#88BCA1"/>
<path d="M27.1631 26.2205C27.1631 17.2722 33.3521 6.3942 40.9863 1.91786C44.8055 -0.320304 48.2603 -0.531784 50.7602 0.930954L71.0197 12.8267C71.0197 21.775 59.1105 42.7292 51.4893 47.1923L31.2254 35.2965C28.7125 33.8426 27.1631 30.6968 27.1631 26.2205Z" fill="#88BCA1"/>
<path d="M47.44 38.1162C47.44 29.1679 53.6246 18.2899 61.2588 13.8092C65.0694 11.5798 68.5198 11.364 71.0197 12.8179C73.5196 14.2718 75.082 17.4088 75.082 21.9027C75.082 30.851 68.8931 41.729 61.2588 46.2097C57.4396 48.4479 53.9805 48.655 51.4763 47.1834C48.9721 45.7119 47.44 42.5749 47.44 38.1162Z" fill="#88BCA1"/>
<path opacity="0.15" d="M47.44 38.1162C47.44 29.1679 53.6246 18.2899 61.2588 13.8092C65.0694 11.5798 68.5198 11.364 71.0197 12.8179C73.5196 14.2718 75.082 17.4088 75.082 21.9027C75.082 30.851 68.8931 41.729 61.2588 46.2097C57.4396 48.4479 53.9805 48.655 51.4763 47.1834C48.9721 45.7119 47.44 42.5749 47.44 38.1162Z" fill="black"/>
<path opacity="0.15" d="M48.0216 33.0671C47.6416 34.7227 47.4465 36.4164 47.44 38.1162C47.44 42.5838 48.9807 45.7251 51.4763 47.1923C53.9718 48.6594 57.4396 48.4567 61.2588 46.2186C62.7012 45.3576 64.0447 44.3366 65.2647 43.1741L48.0216 33.0671Z" fill="black"/>
<path d="M106.613 58.4843C106.027 61.9033 105.68 63.811 104.035 65.0931C103.722 69.1817 102.19 72.0896 101.17 72.9928C100.997 79.3284 97.8805 81.3639 97.8805 81.3639C97.8805 81.3639 98.4057 99.4278 99.0914 103.917C100.263 111.645 101.322 113.61 100.797 116.047C100.285 118.421 96.3875 119.417 93.228 117.677C89.8427 115.818 88.5884 109.645 87.3167 103.917C85.8932 97.5113 84.7127 91.0964 84.7127 91.0964C81.7267 90.2725 76.9787 90.4355 74.3789 89.7306C71.7792 89.0256 71.0241 88.237 68.9018 85.263C66.7794 82.2891 60.9073 76.0724 59.18 73.2219C57.4526 70.3713 57.0099 66.9435 56.9318 60.4449C56.8754 55.9422 56.3849 52.5717 56.2547 48.0777C56.2547 47.7473 56.233 47.4125 56.2287 47.0644C56.2287 46.1083 56.2287 45.1038 56.2287 44.0244L47.4357 38.8651C47.4357 38.6272 47.4357 38.3805 47.4357 38.1338C47.4357 33.4371 49.1457 28.2074 51.8712 23.6474C54.3364 19.5279 57.6392 15.9592 61.2589 13.8312C61.9648 13.4148 62.7003 13.0526 63.4593 12.7473C66.5841 14.6639 70.6204 17.0518 73.6541 18.5983C73.958 18.7525 74.405 18.9684 74.865 19.1931C75.5855 19.5455 76.3537 19.92 76.7052 20.1095C80.2901 22.0392 81.1104 24.859 83.606 27.2557C85.5937 29.1635 102.898 44.6941 105.68 46.9234C108.462 49.1528 107.524 53.1753 106.613 58.4843Z" fill="#EB9481"/>
<path opacity="0.3" d="M101.17 72.9709C102.19 72.0677 103.722 69.1599 104.035 65.0712C105.684 63.8112 106.027 61.9034 106.613 58.4625C106.912 56.7222 107.212 55.1229 107.385 53.6733C107.312 54.1139 106.643 58.0792 106.027 58.4625C105.411 58.8458 104.942 57.621 104.942 57.621C104.942 57.621 104.152 63.1283 103.206 63.7892C102.26 64.45 101.904 63.3089 101.904 63.3089C101.435 67.1728 101.001 69.085 99.8726 69.5255C98.7442 69.9661 97.7676 68.3404 97.2989 66.2829C97.1297 68.8779 97.8631 81.3244 97.8631 81.3244C97.8631 81.3244 100.997 79.3065 101.17 72.9709Z" fill="#784C43"/>
<path opacity="0.05" d="M60.2476 31.243C59.2676 32.5797 58.4746 34.0475 57.8909 35.6048C55.7773 41.2751 56.2417 43.9759 56.2417 43.9759L47.4487 38.8167C47.4487 38.5787 47.4487 38.332 47.4487 38.0853C47.4487 34.3712 48.5163 30.3266 50.3131 26.542L60.2476 31.243Z" fill="black"/>
<path d="M99.3952 107.913C97.2815 107.059 93.8485 108.385 93.319 109.235C92.7896 110.086 94.3563 115.157 95.4891 116.456C96.9387 118.078 100.814 117.919 100.927 115.201C101.04 112.482 99.3952 107.913 99.3952 107.913Z" fill="#EB9481"/>
<path opacity="0.4" d="M99.3952 107.913C97.2815 107.059 93.8485 108.385 93.319 109.235C92.7896 110.086 94.3563 115.157 95.4891 116.456C96.9387 118.078 100.814 117.919 100.927 115.201C101.04 112.482 99.3952 107.913 99.3952 107.913Z" fill="white"/>
<path d="M97.1688 109.218C99.1999 108.733 99.3952 107.896 99.3952 107.896C97.2816 107.041 93.8486 108.367 93.3191 109.218C94.5875 109.497 95.9003 109.497 97.1688 109.218Z" fill="#784C43"/>
<path d="M56.2417 43.9937C56.2417 39.8345 57.8909 35.6226 57.8909 35.6226C57.8909 35.6226 55.6254 37.2263 54.8528 43.183L56.2417 43.9937Z" fill="#784C43"/>
<path d="M97.8805 81.3288C97.3727 76.923 96.917 72.7859 96.726 69.2745C96.5351 65.763 96.6002 65.3444 96.6739 64.7585C96.7477 64.1725 98.1322 62.5996 98.0324 64.7585C97.9326 66.9173 97.5984 68.9881 97.772 72.3453C97.9456 75.7026 97.8805 81.3288 97.8805 81.3288Z" fill="#EB9481"/>
<path opacity="0.8" d="M97.8805 81.3288C97.3727 76.923 96.917 72.7859 96.726 69.2745C96.5351 65.763 96.6002 65.3444 96.6739 64.7585C96.7477 64.1725 98.1322 62.5996 98.0324 64.7585C97.9326 66.9173 97.5984 68.9881 97.772 72.3453C97.9456 75.7026 97.8805 81.3288 97.8805 81.3288Z" fill="#784C43"/>
<g opacity="0.4">
<path opacity="0.4" d="M97.1036 83.4259C97.1023 83.376 97.092 83.3267 97.0732 83.2805C97.0289 83.1996 96.97 83.1279 96.8996 83.0691C96.2178 82.4596 95.3545 82.0997 94.4475 82.0469C93.7513 81.9813 93.0494 82.0199 92.3642 82.1615C91.2705 82.3862 90.051 82.7783 89.5475 83.8841C89.5256 83.92 89.5119 83.9604 89.5074 84.0023C89.5029 84.0442 89.5077 84.0867 89.5215 84.1265C89.5866 84.2498 89.7689 84.2146 89.8991 84.1617C90.985 83.7342 92.1335 83.493 93.2974 83.448C93.8682 83.4348 94.4392 83.4568 95.0074 83.514C95.6043 83.6239 96.2106 83.6726 96.8172 83.6594C96.9091 83.6556 96.996 83.6162 97.0602 83.5493C97.0854 83.5129 97.1004 83.4703 97.1036 83.4259Z" fill="#784C43"/>
<path opacity="0.4" d="M95.7625 86.4439C95.3285 86.5937 94.8945 86.8008 94.4128 86.9285C94.0455 87.0237 93.6709 87.0871 93.293 87.118C92.9244 87.14 92.5549 87.14 92.1863 87.118C91.9693 87.118 91.7523 87.118 91.5396 87.118C91.4132 87.0965 91.2857 87.0818 91.1577 87.0739C91.0882 87.0739 91.0188 87.0739 90.945 87.0739C90.8712 87.0739 90.7975 87.2854 90.8669 87.3515C91.3667 87.8474 92.0165 88.1578 92.7114 88.2327C93.1314 88.2745 93.5544 88.2745 93.9744 88.2327C94.7903 88.1534 95.8537 87.9242 96.4352 87.2898C96.7607 86.8889 96.1228 86.3249 95.7625 86.4439Z" fill="#784C43"/>
<path opacity="0.4" d="M98.4057 103.186C98.0985 102.837 97.6749 102.616 97.2165 102.565C97.108 102.565 96.9951 102.538 96.8866 102.53C96.6192 102.514 96.3511 102.514 96.0837 102.53C95.5404 102.559 95.0026 102.655 94.4822 102.816C93.675 103.058 92.7462 103.521 92.4207 104.371C92.4207 104.415 92.3859 104.468 92.3686 104.517C92.3427 104.59 92.3295 104.668 92.3295 104.746C92.3305 104.784 92.3405 104.822 92.3586 104.855C92.3767 104.889 92.4024 104.918 92.4337 104.94C92.4894 104.961 92.5493 104.967 92.6083 104.96C92.6672 104.952 92.7235 104.93 92.7722 104.896L94.135 104.208C94.401 104.087 94.6769 103.99 94.9596 103.917C95.2434 103.821 95.5334 103.744 95.8276 103.688C96.1149 103.645 96.4055 103.629 96.6957 103.64C97.2448 103.7 97.7969 103.729 98.3492 103.728C98.5793 103.706 98.4881 103.323 98.4057 103.186Z" fill="#784C43"/>
</g>
<g opacity="0.4">
<path opacity="0.4" d="M74.1228 84.2586C74.0617 84.2128 73.9856 84.1923 73.9101 84.2013C73.5437 84.2227 73.1817 84.2938 72.8338 84.4128C72.2422 84.6414 71.7119 85.0082 71.2859 85.4835C70.8599 85.9589 70.5501 86.5293 70.3817 87.1488C70.3798 87.159 70.3798 87.1694 70.3817 87.1796C70.6949 87.5661 71.0405 87.9243 71.4146 88.2503C71.4317 88.203 71.4448 88.1544 71.4537 88.1049C71.6002 87.2527 72.0036 86.4676 72.6081 85.8579C73.0488 85.4298 73.5125 85.0268 73.997 84.6507C74.0582 84.6077 74.11 84.5522 74.1489 84.4877C74.1699 84.4557 74.1812 84.4182 74.1812 84.3797C74.1812 84.3413 74.1699 84.3037 74.1489 84.2718L74.1228 84.2586Z" fill="#784C43"/>
<path opacity="0.4" d="M73.9015 89.5589L74.3702 89.6955C74.6046 89.7572 74.8563 89.81 75.1211 89.8629C75.2421 89.6492 75.3285 89.4171 75.3771 89.1756C75.4941 88.5782 75.5421 87.9691 75.5203 87.3604C75.5255 87.0219 75.4185 86.6914 75.2165 86.4219C75.1818 86.3823 75.1384 86.3426 75.0863 86.3559C75.0343 86.3691 75.0125 86.4484 75.0082 86.5101C74.9421 87.505 74.6138 88.4637 74.0577 89.2857C73.9974 89.3717 73.9451 89.4631 73.9015 89.5589Z" fill="#784C43"/>
</g>
<path opacity="0.4" d="M94.1958 53.3165C95.6888 52.7613 97.3119 54.4311 97.5984 55.396C97.8222 56.0906 97.8834 56.8285 97.7771 57.5512C97.6709 58.2739 97.4002 58.9616 96.9864 59.5595C96.6566 59.9649 96.2486 59.3084 96.1705 58.0351C96.1732 56.7923 95.7269 55.5916 94.9162 54.6603C93.9744 53.6733 93.7791 53.4707 94.1958 53.3165Z" fill="#784C43"/>
<path opacity="0.35" d="M83.7101 56.1274C82.1477 56.4269 81.6008 58.7048 81.8395 59.6829C81.9977 60.396 82.318 61.0618 82.7746 61.6271C83.2312 62.1924 83.8117 62.6416 84.4696 62.9388C84.9557 63.115 84.9774 62.3396 84.4002 61.2073C83.7761 60.1488 83.5525 58.8961 83.7708 57.6826C84.0833 56.3212 84.1484 56.0436 83.7101 56.1274Z" fill="#784C43"/>
<path opacity="0.4" d="M100.697 50.5759C101.951 50.0472 103.392 51.4131 103.67 52.2237C103.889 52.8065 103.969 53.4333 103.904 54.0534C103.839 54.6735 103.631 55.2693 103.297 55.7925C103.028 56.1493 102.659 55.6074 102.546 54.528C102.508 53.4679 102.086 52.4593 101.361 51.695C100.537 50.8932 100.35 50.7257 100.697 50.5759Z" fill="#784C43"/>
<path d="M101.17 72.9709C100.897 70.5212 101.044 66.1198 101.17 63.6525C101.296 61.1853 102.807 60.4671 102.885 61.0927C102.963 61.7184 102.255 62.8242 101.921 65.2475C101.609 67.5032 101.318 69.997 101.17 72.9709Z" fill="#EB9481"/>
<path opacity="0.8" d="M101.17 72.9709C100.897 70.5212 101.044 66.1198 101.17 63.6525C101.296 61.1853 102.807 60.4671 102.885 61.0927C102.963 61.7184 102.255 62.8242 101.921 65.2475C101.609 67.5032 101.318 69.997 101.17 72.9709Z" fill="#784C43"/>
<path d="M78.1895 87.3296C77.8352 88.2405 77.6356 89.2059 77.5992 90.1845C79.9906 90.5194 82.612 90.8498 84.7126 91.0657C84.7126 90.5326 84.4132 88.1094 84.4132 88.1094C82.777 86.77 78.1895 87.3296 78.1895 87.3296Z" fill="#EB9481"/>
<path opacity="0.3" d="M78.1895 87.3296C77.8352 88.2405 77.6356 89.2059 77.5992 90.1845C79.9906 90.5194 82.612 90.8498 84.7126 91.0657C84.7126 90.5326 84.4132 88.1094 84.4132 88.1094C82.777 86.77 78.1895 87.3296 78.1895 87.3296Z" fill="white"/>
<path opacity="0.8" d="M77.5992 90.1846L78.6669 90.33C78.6611 89.3108 78.5001 88.2987 78.1895 87.3296C77.8352 88.2405 77.6356 89.2059 77.5992 90.1846Z" fill="#784C43"/>
<path opacity="0.4" d="M73.6541 69.0451C73.4545 68.8028 73.2679 68.5517 73.0856 68.2961C72.6516 67.7102 72.4259 67.0625 72.0136 66.4897C71.5362 65.823 71.0891 65.1357 70.6725 64.4278C70.5336 64.1899 69.4529 61.8768 69.479 63.062C69.5397 65.5645 70.9242 67.8071 72.261 69.9087C72.6559 70.5343 73.2245 71.2304 73.0118 72.0499C72.8208 72.7593 72.0657 73.1293 71.3669 73.3276C70.6682 73.5259 69.9043 73.6845 69.4399 74.244C69.3539 74.3255 69.296 74.4329 69.2749 74.5504C69.2538 74.6678 69.2706 74.7891 69.3227 74.8961C69.4573 75.0811 69.7307 75.0679 69.952 75.0371C71.0419 74.8595 72.151 74.8402 73.2462 74.9798C74.3462 75.1237 75.3731 75.6172 76.1801 76.3897C76.9569 77.1827 77.5429 78.4031 77.3172 79.5002C77.1723 80.0469 76.8999 80.5501 76.5229 80.9673C76.3363 81.2008 75.8198 81.7163 76.0108 81.9454C76.2018 82.1745 77.0568 82.1481 77.3128 82.1657C78.6626 82.2803 79.1053 82.3508 79.9993 82.8266C80.7498 83.1549 81.3884 83.7005 81.8352 84.3951C82.4819 85.3203 82.8464 86.4262 83.3152 88.1048C83.5688 89.0494 83.7659 90.0087 83.9054 90.9774L84.7083 91.0611C84.6606 90.1094 84.5174 89.03 84.4089 88.1048C84.2657 86.8315 83.836 85.9019 83.7145 84.6859C83.5929 83.4698 83.3716 82.4829 83.224 81.3286C83.0417 79.9011 82.9072 78.9362 82.6815 77.8039C82.1173 74.9842 81.8135 72.138 81.2536 69.3183C81.1538 68.7984 80.8196 67.2564 80.0384 67.3885C79.9155 67.4186 79.8005 67.4756 79.7016 67.5555C79.6026 67.6354 79.522 67.7363 79.4655 67.8512C79.3601 68.0847 79.2885 68.3326 79.2529 68.5869L78.8188 70.7898C78.7876 71.1252 78.666 71.4453 78.4673 71.7151C78.3227 71.8591 78.1448 71.964 77.95 72.0202C77.7551 72.0764 77.5495 72.0821 77.3519 72.0367C76.9582 71.9404 76.5887 71.7618 76.2669 71.5124C75.2837 70.8217 74.4038 69.9907 73.6541 69.0451Z" fill="#784C43"/>
<path d="M84.7127 91.0611C84.6823 90.3562 84.5564 89.2151 84.4132 88.1048C83.9228 84.2541 83.1112 79.2183 82.4732 75.1825C81.5748 69.5871 81.6052 65.0491 80.6113 65.0491C79.5436 65.0491 79.4959 67.4987 79.9906 70.3581C80.2944 72.1204 80.6373 74.4335 81.2145 77.2621C81.3013 77.7852 81.3535 78.3136 81.3708 78.8438C81.4075 79.0808 81.3688 79.3234 81.2603 79.5366C81.1518 79.7497 80.9792 79.9222 80.7675 80.0289C80.4679 80.1464 80.151 80.212 79.8301 80.2228C78.4456 80.3506 77.009 80.562 75.8459 81.3375C75.7286 81.4067 75.6267 81.4997 75.5464 81.6106C75.5073 81.6661 75.4824 81.7306 75.4741 81.7983C75.4657 81.866 75.4742 81.9348 75.4986 81.9983C75.6549 82.3288 76.5446 82.2318 76.8354 82.2142C77.4994 82.1702 78.1374 82.0688 78.8101 82.0027C80.3075 81.8485 82.0392 82.3596 83.0504 84.8445C83.8924 88.0608 84.7127 91.0611 84.7127 91.0611Z" fill="#EB9481"/>
<path opacity="0.9" d="M84.7127 91.0611C84.6823 90.3562 84.5564 89.2151 84.4132 88.1048C83.9228 84.2541 83.1112 79.2183 82.4732 75.1825C81.5748 69.5871 81.6052 65.0491 80.6113 65.0491C79.5436 65.0491 79.4959 67.4987 79.9906 70.3581C80.2944 72.1204 80.6373 74.4335 81.2145 77.2621C81.3013 77.7852 81.3535 78.3136 81.3708 78.8438C81.4075 79.0808 81.3688 79.3234 81.2603 79.5366C81.1518 79.7497 80.9792 79.9222 80.7675 80.0289C80.4679 80.1464 80.151 80.212 79.8301 80.2228C78.4456 80.3506 77.009 80.562 75.8459 81.3375C75.7286 81.4067 75.6267 81.4997 75.5464 81.6106C75.5073 81.6661 75.4824 81.7306 75.4741 81.7983C75.4657 81.866 75.4742 81.9348 75.4986 81.9983C75.6549 82.3288 76.5446 82.2318 76.8354 82.2142C77.4994 82.1702 78.1374 82.0688 78.8101 82.0027C80.3075 81.8485 82.0392 82.3596 83.0504 84.8445C83.8924 88.0608 84.7127 91.0611 84.7127 91.0611Z" fill="#784C43"/>
</g>
<defs>
<filter id="filter0_d_523_3584" x="0" y="0" width="208" height="208" filterUnits="userSpaceOnUse" color-interpolation-filters="sRGB">
<feFlood flood-opacity="0" result="BackgroundImageFix"/>
<feColorMatrix in="SourceAlpha" type="matrix" values="0 0 0 0 0 0 0 0 0 0 0 0 0 0 0 0 0 0 127 0" result="hardAlpha"/>
<feOffset dy="4"/>
<feGaussianBlur stdDeviation="2"/>
<feComposite in2="hardAlpha" operator="out"/>
<feColorMatrix type="matrix" values="0 0 0 0 0 0 0 0 0 0 0 0 0 0 0 0 0 0 0.25 0"/>
<feBlend mode="normal" in2="BackgroundImageFix" result="effect1_dropShadow_523_3584"/>
<feBlend mode="normal" in="SourceGraphic" in2="effect1_dropShadow_523_3584" result="shape"/>
</filter>
</defs>
</svg>
