<svg width="230" height="116" viewBox="0 0 230 116" fill="none" xmlns="http://www.w3.org/2000/svg">
<rect width="230" height="116" rx="4" fill="#D3EBD3"/>
<path d="M29.1666 72.1666H42.8333V66.875C42.8333 64.9305 42.1736 63.2569 40.8541 61.8541C39.5347 60.4514 37.9166 59.75 36 59.75C34.0833 59.75 32.4652 60.4514 31.1458 61.8541C29.8263 63.2569 29.1666 64.9305 29.1666 66.875V72.1666ZM22.6666 74.6666V72.1666H26.6666V66.875C26.6666 64.9305 27.1736 63.1458 28.1875 61.5208C29.2013 59.8958 30.6111 58.7222 32.4166 58C30.6111 57.2778 29.2013 56.0972 28.1875 54.4583C27.1736 52.8194 26.6666 51.0278 26.6666 49.0833V43.8333H22.6666V41.3333H49.3333V43.8333H45.3333V49.0833C45.3333 51.0278 44.8194 52.8194 43.7916 54.4583C42.7638 56.0972 41.3611 57.2778 39.5833 58C41.3888 58.7222 42.7986 59.8958 43.8125 61.5208C44.8263 63.1458 45.3333 64.9305 45.3333 66.875V72.1666H49.3333V74.6666H22.6666Z" fill="#337066"/>
<path d="M71.854 24.168C71.854 24.6627 71.7373 25.1293 71.504 25.568C71.2707 26.0067 70.8973 26.366 70.384 26.646C69.8707 26.9167 69.2127 27.052 68.41 27.052H66.646V31H65.05V21.27H68.41C69.1567 21.27 69.7867 21.4007 70.3 21.662C70.8227 21.914 71.21 22.2593 71.462 22.698C71.7233 23.1367 71.854 23.6267 71.854 24.168ZM68.41 25.75C69.0167 25.75 69.4693 25.6147 69.768 25.344C70.0667 25.064 70.216 24.672 70.216 24.168C70.216 23.104 69.614 22.572 68.41 22.572H66.646V25.75H68.41ZM77.0022 31.126C76.2742 31.126 75.6162 30.9627 75.0282 30.636C74.4402 30.3 73.9782 29.8333 73.6422 29.236C73.3062 28.6293 73.1382 27.9293 73.1382 27.136C73.1382 26.352 73.3108 25.6567 73.6562 25.05C74.0015 24.4433 74.4728 23.9767 75.0702 23.65C75.6675 23.3233 76.3348 23.16 77.0722 23.16C77.8095 23.16 78.4768 23.3233 79.0742 23.65C79.6715 23.9767 80.1428 24.4433 80.4882 25.05C80.8335 25.6567 81.0062 26.352 81.0062 27.136C81.0062 27.92 80.8288 28.6153 80.4742 29.222C80.1195 29.8287 79.6342 30.3 79.0182 30.636C78.4115 30.9627 77.7395 31.126 77.0022 31.126ZM77.0022 29.74C77.4128 29.74 77.7955 29.642 78.1502 29.446C78.5142 29.25 78.8082 28.956 79.0322 28.564C79.2562 28.172 79.3682 27.696 79.3682 27.136C79.3682 26.576 79.2608 26.1047 79.0462 25.722C78.8315 25.33 78.5468 25.036 78.1922 24.84C77.8375 24.644 77.4548 24.546 77.0442 24.546C76.6335 24.546 76.2508 24.644 75.8962 24.84C75.5508 25.036 75.2755 25.33 75.0702 25.722C74.8648 26.1047 74.7622 26.576 74.7622 27.136C74.7622 27.9667 74.9722 28.6107 75.3922 29.068C75.8215 29.516 76.3582 29.74 77.0022 29.74ZM84.4599 24.406C84.6932 24.014 85.0012 23.7107 85.3839 23.496C85.7759 23.272 86.2379 23.16 86.7699 23.16V24.812H86.3639C85.7386 24.812 85.2626 24.9707 84.9359 25.288C84.6186 25.6053 84.4599 26.156 84.4599 26.94V31H82.8639V23.286H84.4599V24.406ZM91.9017 27.108C91.9017 26.3333 92.0603 25.6473 92.3777 25.05C92.7043 24.4527 93.143 23.9907 93.6937 23.664C94.2537 23.328 94.8743 23.16 95.5557 23.16C96.153 23.16 96.6803 23.2813 97.1377 23.524C97.6043 23.7667 97.9637 24.0607 98.2157 24.406V23.286H99.8257V34.668H98.2157V29.88C97.9637 30.2253 97.5997 30.5193 97.1237 30.762C96.6477 31.0047 96.1063 31.126 95.4997 31.126C94.837 31.126 94.2303 30.958 93.6797 30.622C93.1383 30.2767 92.7043 29.8007 92.3777 29.194C92.0603 28.578 91.9017 27.8827 91.9017 27.108ZM98.2157 27.136C98.2157 26.604 98.1037 26.142 97.8797 25.75C97.665 25.358 97.3803 25.0593 97.0257 24.854C96.671 24.6487 96.2883 24.546 95.8777 24.546C95.467 24.546 95.0843 24.6487 94.7297 24.854C94.375 25.05 94.0857 25.344 93.8617 25.736C93.647 26.1187 93.5397 26.576 93.5397 27.108C93.5397 27.64 93.647 28.1067 93.8617 28.508C94.0857 28.9093 94.375 29.2173 94.7297 29.432C95.0937 29.6373 95.4763 29.74 95.8777 29.74C96.2883 29.74 96.671 29.6373 97.0257 29.432C97.3803 29.2267 97.665 28.928 97.8797 28.536C98.1037 28.1347 98.2157 27.668 98.2157 27.136ZM109.188 23.286V31H107.592V30.09C107.34 30.4073 107.009 30.6593 106.598 30.846C106.197 31.0233 105.767 31.112 105.31 31.112C104.703 31.112 104.157 30.986 103.672 30.734C103.196 30.482 102.818 30.1087 102.538 29.614C102.267 29.1193 102.132 28.522 102.132 27.822V23.286H103.714V27.584C103.714 28.2747 103.887 28.8067 104.232 29.18C104.577 29.544 105.049 29.726 105.646 29.726C106.243 29.726 106.715 29.544 107.06 29.18C107.415 28.8067 107.592 28.2747 107.592 27.584V23.286H109.188ZM118.644 26.954C118.644 27.2433 118.625 27.5047 118.588 27.738H112.694C112.74 28.354 112.969 28.8487 113.38 29.222C113.79 29.5953 114.294 29.782 114.892 29.782C115.75 29.782 116.357 29.4227 116.712 28.704H118.434C118.2 29.4133 117.776 29.9967 117.16 30.454C116.553 30.902 115.797 31.126 114.892 31.126C114.154 31.126 113.492 30.9627 112.904 30.636C112.325 30.3 111.868 29.8333 111.532 29.236C111.205 28.6293 111.042 27.9293 111.042 27.136C111.042 26.3427 111.2 25.6473 111.518 25.05C111.844 24.4433 112.297 23.9767 112.876 23.65C113.464 23.3233 114.136 23.16 114.892 23.16C115.62 23.16 116.268 23.3187 116.838 23.636C117.407 23.9533 117.85 24.4013 118.168 24.98C118.485 25.5493 118.644 26.2073 118.644 26.954ZM116.978 26.45C116.968 25.862 116.758 25.3907 116.348 25.036C115.937 24.6813 115.428 24.504 114.822 24.504C114.271 24.504 113.8 24.6813 113.408 25.036C113.016 25.3813 112.782 25.8527 112.708 26.45H116.978ZM131.481 26.954C131.481 27.2433 131.462 27.5047 131.425 27.738H125.531C125.578 28.354 125.806 28.8487 126.217 29.222C126.628 29.5953 127.132 29.782 127.729 29.782C128.588 29.782 129.194 29.4227 129.549 28.704H131.271C131.038 29.4133 130.613 29.9967 129.997 30.454C129.39 30.902 128.634 31.126 127.729 31.126C126.992 31.126 126.329 30.9627 125.741 30.636C125.162 30.3 124.705 29.8333 124.369 29.236C124.042 28.6293 123.879 27.9293 123.879 27.136C123.879 26.3427 124.038 25.6473 124.355 25.05C124.682 24.4433 125.134 23.9767 125.713 23.65C126.301 23.3233 126.973 23.16 127.729 23.16C128.457 23.16 129.106 23.3187 129.675 23.636C130.244 23.9533 130.688 24.4013 131.005 24.98C131.322 25.5493 131.481 26.2073 131.481 26.954ZM129.815 26.45C129.806 25.862 129.596 25.3907 129.185 25.036C128.774 24.6813 128.266 24.504 127.659 24.504C127.108 24.504 126.637 24.6813 126.245 25.036C125.853 25.3813 125.62 25.8527 125.545 26.45H129.815ZM136.132 31.126C135.525 31.126 134.979 31.0187 134.494 30.804C134.018 30.58 133.64 30.2813 133.36 29.908C133.08 29.5253 132.93 29.1007 132.912 28.634H134.564C134.592 28.9607 134.746 29.236 135.026 29.46C135.315 29.6747 135.674 29.782 136.104 29.782C136.552 29.782 136.897 29.698 137.14 29.53C137.392 29.3527 137.518 29.1287 137.518 28.858C137.518 28.5687 137.378 28.354 137.098 28.214C136.827 28.074 136.393 27.92 135.796 27.752C135.217 27.5933 134.746 27.4393 134.382 27.29C134.018 27.1407 133.7 26.912 133.43 26.604C133.168 26.296 133.038 25.89 133.038 25.386C133.038 24.9753 133.159 24.602 133.402 24.266C133.644 23.9207 133.99 23.65 134.438 23.454C134.895 23.258 135.418 23.16 136.006 23.16C136.883 23.16 137.588 23.384 138.12 23.832C138.661 24.2707 138.95 24.8727 138.988 25.638H137.392C137.364 25.2927 137.224 25.0173 136.972 24.812C136.72 24.6067 136.379 24.504 135.95 24.504C135.53 24.504 135.208 24.5833 134.984 24.742C134.76 24.9007 134.648 25.1107 134.648 25.372C134.648 25.5773 134.722 25.75 134.872 25.89C135.021 26.03 135.203 26.142 135.418 26.226C135.632 26.3007 135.95 26.3987 136.37 26.52C136.93 26.6693 137.387 26.8233 137.742 26.982C138.106 27.1313 138.418 27.3553 138.68 27.654C138.941 27.9527 139.076 28.3493 139.086 28.844C139.086 29.2827 138.964 29.6747 138.722 30.02C138.479 30.3653 138.134 30.636 137.686 30.832C137.247 31.028 136.729 31.126 136.132 31.126ZM143.89 31.126C143.284 31.126 142.738 31.0187 142.252 30.804C141.776 30.58 141.398 30.2813 141.118 29.908C140.838 29.5253 140.689 29.1007 140.67 28.634H142.322C142.35 28.9607 142.504 29.236 142.784 29.46C143.074 29.6747 143.433 29.782 143.862 29.782C144.31 29.782 144.656 29.698 144.898 29.53C145.15 29.3527 145.276 29.1287 145.276 28.858C145.276 28.5687 145.136 28.354 144.856 28.214C144.586 28.074 144.152 27.92 143.554 27.752C142.976 27.5933 142.504 27.4393 142.14 27.29C141.776 27.1407 141.459 26.912 141.188 26.604C140.927 26.296 140.796 25.89 140.796 25.386C140.796 24.9753 140.918 24.602 141.16 24.266C141.403 23.9207 141.748 23.65 142.196 23.454C142.654 23.258 143.176 23.16 143.764 23.16C144.642 23.16 145.346 23.384 145.878 23.832C146.42 24.2707 146.709 24.8727 146.746 25.638H145.15C145.122 25.2927 144.982 25.0173 144.73 24.812C144.478 24.6067 144.138 24.504 143.708 24.504C143.288 24.504 142.966 24.5833 142.742 24.742C142.518 24.9007 142.406 25.1107 142.406 25.372C142.406 25.5773 142.481 25.75 142.63 25.89C142.78 26.03 142.962 26.142 143.176 26.226C143.391 26.3007 143.708 26.3987 144.128 26.52C144.688 26.6693 145.146 26.8233 145.5 26.982C145.864 27.1313 146.177 27.3553 146.438 27.654C146.7 27.9527 146.835 28.3493 146.844 28.844C146.844 29.2827 146.723 29.6747 146.48 30.02C146.238 30.3653 145.892 30.636 145.444 30.832C145.006 31.028 144.488 31.126 143.89 31.126ZM148.317 27.108C148.317 26.3333 148.475 25.6473 148.793 25.05C149.119 24.4527 149.558 23.9907 150.109 23.664C150.669 23.328 151.285 23.16 151.957 23.16C152.563 23.16 153.091 23.2813 153.539 23.524C153.996 23.7573 154.36 24.0513 154.631 24.406V23.286H156.241V31H154.631V29.852C154.36 30.216 153.991 30.5193 153.525 30.762C153.058 31.0047 152.526 31.126 151.929 31.126C151.266 31.126 150.659 30.958 150.109 30.622C149.558 30.2767 149.119 29.8007 148.793 29.194C148.475 28.578 148.317 27.8827 148.317 27.108ZM154.631 27.136C154.631 26.604 154.519 26.142 154.295 25.75C154.08 25.358 153.795 25.0593 153.441 24.854C153.086 24.6487 152.703 24.546 152.293 24.546C151.882 24.546 151.499 24.6487 151.145 24.854C150.79 25.05 150.501 25.344 150.277 25.736C150.062 26.1187 149.955 26.576 149.955 27.108C149.955 27.64 150.062 28.1067 150.277 28.508C150.501 28.9093 150.79 29.2173 151.145 29.432C151.509 29.6373 151.891 29.74 152.293 29.74C152.703 29.74 153.086 29.6373 153.441 29.432C153.795 29.2267 154.08 28.928 154.295 28.536C154.519 28.1347 154.631 27.668 154.631 27.136ZM161.417 31.126C160.81 31.126 160.264 31.0187 159.779 30.804C159.303 30.58 158.925 30.2813 158.645 29.908C158.365 29.5253 158.216 29.1007 158.197 28.634H159.849C159.877 28.9607 160.031 29.236 160.311 29.46C160.6 29.6747 160.96 29.782 161.389 29.782C161.837 29.782 162.182 29.698 162.425 29.53C162.677 29.3527 162.803 29.1287 162.803 28.858C162.803 28.5687 162.663 28.354 162.383 28.214C162.112 28.074 161.678 27.92 161.081 27.752C160.502 27.5933 160.031 27.4393 159.667 27.29C159.303 27.1407 158.986 26.912 158.715 26.604C158.454 26.296 158.323 25.89 158.323 25.386C158.323 24.9753 158.444 24.602 158.687 24.266C158.93 23.9207 159.275 23.65 159.723 23.454C160.18 23.258 160.703 23.16 161.291 23.16C162.168 23.16 162.873 23.384 163.405 23.832C163.946 24.2707 164.236 24.8727 164.273 25.638H162.677C162.649 25.2927 162.509 25.0173 162.257 24.812C162.005 24.6067 161.664 24.504 161.235 24.504C160.815 24.504 160.493 24.5833 160.269 24.742C160.045 24.9007 159.933 25.1107 159.933 25.372C159.933 25.5773 160.008 25.75 160.157 25.89C160.306 26.03 160.488 26.142 160.703 26.226C160.918 26.3007 161.235 26.3987 161.655 26.52C162.215 26.6693 162.672 26.8233 163.027 26.982C163.391 27.1313 163.704 27.3553 163.965 27.654C164.226 27.9527 164.362 28.3493 164.371 28.844C164.371 29.2827 164.25 29.6747 164.007 30.02C163.764 30.3653 163.419 30.636 162.971 30.832C162.532 31.028 162.014 31.126 161.417 31.126ZM66.646 45.406C66.8793 45.014 67.1873 44.7107 67.57 44.496C67.962 44.272 68.424 44.16 68.956 44.16V45.812H68.55C67.9247 45.812 67.4487 45.9707 67.122 46.288C66.8047 46.6053 66.646 47.156 66.646 47.94V52H65.05V44.286H66.646V45.406ZM77.773 47.954C77.773 48.2433 77.7544 48.5047 77.717 48.738H71.823C71.8697 49.354 72.0984 49.8487 72.509 50.222C72.9197 50.5953 73.4237 50.782 74.021 50.782C74.8797 50.782 75.4864 50.4227 75.841 49.704H77.563C77.3297 50.4133 76.905 50.9967 76.289 51.454C75.6824 51.902 74.9264 52.126 74.021 52.126C73.2837 52.126 72.621 51.9627 72.033 51.636C71.4544 51.3 70.997 50.8333 70.661 50.236C70.3344 49.6293 70.171 48.9293 70.171 48.136C70.171 47.3427 70.3297 46.6473 70.647 46.05C70.9737 45.4433 71.4264 44.9767 72.005 44.65C72.593 44.3233 73.265 44.16 74.021 44.16C74.749 44.16 75.3977 44.3187 75.967 44.636C76.5364 44.9533 76.9797 45.4013 77.297 45.98C77.6144 46.5493 77.773 47.2073 77.773 47.954ZM76.107 47.45C76.0977 46.862 75.8877 46.3907 75.477 46.036C75.0664 45.6813 74.5577 45.504 73.951 45.504C73.4004 45.504 72.929 45.6813 72.537 46.036C72.145 46.3813 71.9117 46.8527 71.837 47.45H76.107ZM81.2197 41.64V52H79.6237V41.64H81.2197ZM83.0631 48.108C83.0631 47.3333 83.2217 46.6473 83.5391 46.05C83.8657 45.4527 84.3044 44.9907 84.8551 44.664C85.4151 44.328 86.0311 44.16 86.7031 44.16C87.3097 44.16 87.8371 44.2813 88.2851 44.524C88.7424 44.7573 89.1064 45.0513 89.3771 45.406V44.286H90.9871V52H89.3771V50.852C89.1064 51.216 88.7377 51.5193 88.2711 51.762C87.8044 52.0047 87.2724 52.126 86.6751 52.126C86.0124 52.126 85.4057 51.958 84.8551 51.622C84.3044 51.2767 83.8657 50.8007 83.5391 50.194C83.2217 49.578 83.0631 48.8827 83.0631 48.108ZM89.3771 48.136C89.3771 47.604 89.2651 47.142 89.0411 46.75C88.8264 46.358 88.5417 46.0593 88.1871 45.854C87.8324 45.6487 87.4497 45.546 87.0391 45.546C86.6284 45.546 86.2457 45.6487 85.8911 45.854C85.5364 46.05 85.2471 46.344 85.0231 46.736C84.8084 47.1187 84.7011 47.576 84.7011 48.108C84.7011 48.64 84.8084 49.1067 85.0231 49.508C85.2471 49.9093 85.5364 50.2173 85.8911 50.432C86.2551 50.6373 86.6377 50.74 87.0391 50.74C87.4497 50.74 87.8324 50.6373 88.1871 50.432C88.5417 50.2267 88.8264 49.928 89.0411 49.536C89.2651 49.1347 89.3771 48.668 89.3771 48.136ZM96.6114 50.782C97.5354 50.782 98.1467 50.376 98.4454 49.564H100.167C99.962 50.2733 99.5934 50.8567 99.0614 51.314C98.5387 51.762 97.8807 52.0233 97.0874 52.098V52.672C97.6287 52.672 98.0674 52.798 98.4034 53.05C98.7394 53.3113 98.9074 53.6753 98.9074 54.142C98.9074 54.6087 98.7394 54.9773 98.4034 55.248C98.0674 55.528 97.6427 55.668 97.1294 55.668H95.2814V54.66H96.8074C97.0687 54.66 97.2647 54.6227 97.3954 54.548C97.526 54.4733 97.5914 54.338 97.5914 54.142C97.5914 53.946 97.526 53.8107 97.3954 53.736C97.2647 53.6613 97.0687 53.624 96.8074 53.624H96.0374V52.084C95.4027 52.0093 94.8427 51.7993 94.3574 51.454C93.872 51.0993 93.494 50.642 93.2234 50.082C92.962 49.5127 92.8314 48.864 92.8314 48.136C92.8314 47.3427 92.99 46.6473 93.3074 46.05C93.634 45.4433 94.082 44.9767 94.6514 44.65C95.2207 44.3233 95.874 44.16 96.6114 44.16C97.5447 44.16 98.3147 44.384 98.9214 44.832C99.5374 45.2707 99.9527 45.9007 100.167 46.722H98.4454C98.3054 46.3393 98.0814 46.0407 97.7734 45.826C97.4654 45.6113 97.078 45.504 96.6114 45.504C95.958 45.504 95.4354 45.7373 95.0434 46.204C94.6607 46.6613 94.4694 47.3053 94.4694 48.136C94.4694 48.9667 94.6607 49.6153 95.0434 50.082C95.4354 50.5487 95.958 50.782 96.6114 50.782ZM105.384 52.126C104.656 52.126 103.998 51.9627 103.41 51.636C102.822 51.3 102.36 50.8333 102.024 50.236C101.688 49.6293 101.52 48.9293 101.52 48.136C101.52 47.352 101.693 46.6567 102.038 46.05C102.383 45.4433 102.855 44.9767 103.452 44.65C104.049 44.3233 104.717 44.16 105.454 44.16C106.191 44.16 106.859 44.3233 107.456 44.65C108.053 44.9767 108.525 45.4433 108.87 46.05C109.215 46.6567 109.388 47.352 109.388 48.136C109.388 48.92 109.211 49.6153 108.856 50.222C108.501 50.8287 108.016 51.3 107.4 51.636C106.793 51.9627 106.121 52.126 105.384 52.126ZM105.384 50.74C105.795 50.74 106.177 50.642 106.532 50.446C106.896 50.25 107.19 49.956 107.414 49.564C107.638 49.172 107.75 48.696 107.75 48.136C107.75 47.576 107.643 47.1047 107.428 46.722C107.213 46.33 106.929 46.036 106.574 45.84C106.219 45.644 105.837 45.546 105.426 45.546C105.015 45.546 104.633 45.644 104.278 45.84C103.933 46.036 103.657 46.33 103.452 46.722C103.247 47.1047 103.144 47.576 103.144 48.136C103.144 48.9667 103.354 49.6107 103.774 50.068C104.203 50.516 104.74 50.74 105.384 50.74ZM103.172 43.362C103.247 42.8207 103.424 42.4147 103.704 42.144C103.984 41.864 104.334 41.724 104.754 41.724C104.931 41.724 105.085 41.752 105.216 41.808C105.347 41.864 105.505 41.948 105.692 42.06C105.832 42.1533 105.949 42.2233 106.042 42.27C106.145 42.3167 106.257 42.34 106.378 42.34C106.537 42.34 106.667 42.2933 106.77 42.2C106.882 42.0973 106.952 41.948 106.98 41.752H107.876C107.801 42.2933 107.624 42.704 107.344 42.984C107.064 43.2547 106.714 43.39 106.294 43.39C106.117 43.39 105.958 43.362 105.818 43.306C105.678 43.2407 105.524 43.152 105.356 43.04C105.188 42.9373 105.057 42.8673 104.964 42.83C104.88 42.7833 104.782 42.76 104.67 42.76C104.511 42.76 104.376 42.8113 104.264 42.914C104.161 43.0167 104.096 43.166 104.068 43.362H103.172ZM118.316 47.954C118.316 48.2433 118.297 48.5047 118.26 48.738H112.366C112.412 49.354 112.641 49.8487 113.052 50.222C113.462 50.5953 113.966 50.782 114.564 50.782C115.422 50.782 116.029 50.4227 116.384 49.704H118.106C117.872 50.4133 117.448 50.9967 116.832 51.454C116.225 51.902 115.469 52.126 114.564 52.126C113.826 52.126 113.164 51.9627 112.576 51.636C111.997 51.3 111.54 50.8333 111.204 50.236C110.877 49.6293 110.714 48.9293 110.714 48.136C110.714 47.3427 110.872 46.6473 111.19 46.05C111.516 45.4433 111.969 44.9767 112.548 44.65C113.136 44.3233 113.808 44.16 114.564 44.16C115.292 44.16 115.94 44.3187 116.51 44.636C117.079 44.9533 117.522 45.4013 117.84 45.98C118.157 46.5493 118.316 47.2073 118.316 47.954ZM116.65 47.45C116.64 46.862 116.43 46.3907 116.02 46.036C115.609 45.6813 115.1 45.504 114.494 45.504C113.943 45.504 113.472 45.6813 113.08 46.036C112.688 46.3813 112.454 46.8527 112.38 47.45H116.65ZM122.966 52.126C122.36 52.126 121.814 52.0187 121.328 51.804C120.852 51.58 120.474 51.2813 120.194 50.908C119.914 50.5253 119.765 50.1007 119.746 49.634H121.398C121.426 49.9607 121.58 50.236 121.86 50.46C122.15 50.6747 122.509 50.782 122.938 50.782C123.386 50.782 123.732 50.698 123.974 50.53C124.226 50.3527 124.352 50.1287 124.352 49.858C124.352 49.5687 124.212 49.354 123.932 49.214C123.662 49.074 123.228 48.92 122.63 48.752C122.052 48.5933 121.58 48.4393 121.216 48.29C120.852 48.1407 120.535 47.912 120.264 47.604C120.003 47.296 119.872 46.89 119.872 46.386C119.872 45.9753 119.994 45.602 120.236 45.266C120.479 44.9207 120.824 44.65 121.272 44.454C121.73 44.258 122.252 44.16 122.84 44.16C123.718 44.16 124.422 44.384 124.954 44.832C125.496 45.2707 125.785 45.8727 125.822 46.638H124.226C124.198 46.2927 124.058 46.0173 123.806 45.812C123.554 45.6067 123.214 45.504 122.784 45.504C122.364 45.504 122.042 45.5833 121.818 45.742C121.594 45.9007 121.482 46.1107 121.482 46.372C121.482 46.5773 121.557 46.75 121.706 46.89C121.856 47.03 122.038 47.142 122.252 47.226C122.467 47.3007 122.784 47.3987 123.204 47.52C123.764 47.6693 124.222 47.8233 124.576 47.982C124.94 48.1313 125.253 48.3553 125.514 48.654C125.776 48.9527 125.911 49.3493 125.92 49.844C125.92 50.2827 125.799 50.6747 125.556 51.02C125.314 51.3653 124.968 51.636 124.52 51.832C124.082 52.028 123.564 52.126 122.966 52.126ZM131.309 48.108C131.309 47.3333 131.468 46.6473 131.785 46.05C132.112 45.4527 132.551 44.9907 133.101 44.664C133.661 44.328 134.282 44.16 134.963 44.16C135.467 44.16 135.962 44.272 136.447 44.496C136.942 44.7107 137.334 45 137.623 45.364V41.64H139.233V52H137.623V50.838C137.362 51.2113 136.998 51.5193 136.531 51.762C136.074 52.0047 135.547 52.126 134.949 52.126C134.277 52.126 133.661 51.958 133.101 51.622C132.551 51.2767 132.112 50.8007 131.785 50.194C131.468 49.578 131.309 48.8827 131.309 48.108ZM137.623 48.136C137.623 47.604 137.511 47.142 137.287 46.75C137.073 46.358 136.788 46.0593 136.433 45.854C136.079 45.6487 135.696 45.546 135.285 45.546C134.875 45.546 134.492 45.6487 134.137 45.854C133.783 46.05 133.493 46.344 133.269 46.736C133.055 47.1187 132.947 47.576 132.947 48.108C132.947 48.64 133.055 49.1067 133.269 49.508C133.493 49.9093 133.783 50.2173 134.137 50.432C134.501 50.6373 134.884 50.74 135.285 50.74C135.696 50.74 136.079 50.6373 136.433 50.432C136.788 50.2267 137.073 49.928 137.287 49.536C137.511 49.1347 137.623 48.668 137.623 48.136ZM148.68 47.954C148.68 48.2433 148.661 48.5047 148.624 48.738H142.73C142.776 49.354 143.005 49.8487 143.416 50.222C143.826 50.5953 144.33 50.782 144.928 50.782C145.786 50.782 146.393 50.4227 146.748 49.704H148.47C148.236 50.4133 147.812 50.9967 147.196 51.454C146.589 51.902 145.833 52.126 144.928 52.126C144.19 52.126 143.528 51.9627 142.94 51.636C142.361 51.3 141.904 50.8333 141.568 50.236C141.241 49.6293 141.078 48.9293 141.078 48.136C141.078 47.3427 141.236 46.6473 141.554 46.05C141.88 45.4433 142.333 44.9767 142.912 44.65C143.5 44.3233 144.172 44.16 144.928 44.16C145.656 44.16 146.304 44.3187 146.874 44.636C147.443 44.9533 147.886 45.4013 148.204 45.98C148.521 46.5493 148.68 47.2073 148.68 47.954ZM147.014 47.45C147.004 46.862 146.794 46.3907 146.384 46.036C145.973 45.6813 145.464 45.504 144.858 45.504C144.307 45.504 143.836 45.6813 143.444 46.036C143.052 46.3813 142.818 46.8527 142.744 47.45H147.014ZM68.032 71.572L70.216 65.286H71.91L68.97 73H67.066L64.14 65.286H65.848L68.032 71.572ZM74.2084 64.264C73.9191 64.264 73.6764 64.166 73.4804 63.97C73.2844 63.774 73.1864 63.5313 73.1864 63.242C73.1864 62.9527 73.2844 62.71 73.4804 62.514C73.6764 62.318 73.9191 62.22 74.2084 62.22C74.4884 62.22 74.7264 62.318 74.9224 62.514C75.1184 62.71 75.2164 62.9527 75.2164 63.242C75.2164 63.5313 75.1184 63.774 74.9224 63.97C74.7264 64.166 74.4884 64.264 74.2084 64.264ZM74.9924 65.286V73H73.3964V65.286H74.9924ZM80.7138 73.126C79.9858 73.126 79.3278 72.9627 78.7398 72.636C78.1518 72.3 77.6898 71.8333 77.3538 71.236C77.0178 70.6293 76.8498 69.9293 76.8498 69.136C76.8498 68.352 77.0225 67.6567 77.3678 67.05C77.7131 66.4433 78.1845 65.9767 78.7818 65.65C79.3791 65.3233 80.0465 65.16 80.7838 65.16C81.5211 65.16 82.1885 65.3233 82.7858 65.65C83.3831 65.9767 83.8545 66.4433 84.1998 67.05C84.5451 67.6567 84.7178 68.352 84.7178 69.136C84.7178 69.92 84.5405 70.6153 84.1858 71.222C83.8311 71.8287 83.3458 72.3 82.7298 72.636C82.1231 72.9627 81.4511 73.126 80.7138 73.126ZM80.7138 71.74C81.1245 71.74 81.5071 71.642 81.8618 71.446C82.2258 71.25 82.5198 70.956 82.7438 70.564C82.9678 70.172 83.0798 69.696 83.0798 69.136C83.0798 68.576 82.9725 68.1047 82.7578 67.722C82.5431 67.33 82.2585 67.036 81.9038 66.84C81.5491 66.644 81.1665 66.546 80.7558 66.546C80.3451 66.546 79.9625 66.644 79.6078 66.84C79.2625 67.036 78.9871 67.33 78.7818 67.722C78.5765 68.1047 78.4738 68.576 78.4738 69.136C78.4738 69.9667 78.6838 70.6107 79.1038 71.068C79.5331 71.516 80.0698 71.74 80.7138 71.74ZM88.1715 62.64V73H86.5755V62.64H88.1715ZM97.617 68.954C97.617 69.2433 97.5983 69.5047 97.561 69.738H91.667C91.7136 70.354 91.9423 70.8487 92.353 71.222C92.7636 71.5953 93.2676 71.782 93.865 71.782C94.7236 71.782 95.3303 71.4227 95.685 70.704H97.407C97.1736 71.4133 96.749 71.9967 96.133 72.454C95.5263 72.902 94.7703 73.126 93.865 73.126C93.1276 73.126 92.465 72.9627 91.877 72.636C91.2983 72.3 90.841 71.8333 90.505 71.236C90.1783 70.6293 90.015 69.9293 90.015 69.136C90.015 68.3427 90.1736 67.6473 90.491 67.05C90.8176 66.4433 91.2703 65.9767 91.849 65.65C92.437 65.3233 93.109 65.16 93.865 65.16C94.593 65.16 95.2416 65.3187 95.811 65.636C96.3803 65.9533 96.8236 66.4013 97.141 66.98C97.4583 67.5493 97.617 68.2073 97.617 68.954ZM95.951 68.45C95.9416 67.862 95.7316 67.3907 95.321 67.036C94.9103 66.6813 94.4016 66.504 93.795 66.504C93.2443 66.504 92.773 66.6813 92.381 67.036C91.989 67.3813 91.7556 67.8527 91.681 68.45H95.951ZM93.823 63.536L91.821 64.74V63.494L93.823 62.332L95.825 63.494V64.74L93.823 63.536ZM103.36 65.16C103.966 65.16 104.508 65.286 104.984 65.538C105.469 65.79 105.847 66.1633 106.118 66.658C106.388 67.1527 106.524 67.75 106.524 68.45V73H104.942V68.688C104.942 67.9973 104.769 67.47 104.424 67.106C104.078 66.7327 103.607 66.546 103.01 66.546C102.412 66.546 101.936 66.7327 101.582 67.106C101.236 67.47 101.064 67.9973 101.064 68.688V73H99.4676V65.286H101.064V66.168C101.325 65.8507 101.656 65.6033 102.058 65.426C102.468 65.2487 102.902 65.16 103.36 65.16ZM108.307 69.136C108.307 68.3427 108.466 67.6473 108.783 67.05C109.11 66.4433 109.558 65.9767 110.127 65.65C110.697 65.3233 111.35 65.16 112.087 65.16C113.021 65.16 113.791 65.384 114.397 65.832C115.013 66.2707 115.429 66.9007 115.643 67.722H113.921C113.781 67.3393 113.557 67.0407 113.249 66.826C112.941 66.6113 112.554 66.504 112.087 66.504C111.434 66.504 110.911 66.7373 110.519 67.204C110.137 67.6613 109.945 68.3053 109.945 69.136C109.945 69.9667 110.137 70.6153 110.519 71.082C110.911 71.5487 111.434 71.782 112.087 71.782C113.011 71.782 113.623 71.376 113.921 70.564H115.643C115.419 71.348 114.999 71.9733 114.383 72.44C113.767 72.8973 113.002 73.126 112.087 73.126C111.35 73.126 110.697 72.9627 110.127 72.636C109.558 72.3 109.11 71.8333 108.783 71.236C108.466 70.6293 108.307 69.9293 108.307 69.136ZM118.326 64.264C118.037 64.264 117.794 64.166 117.598 63.97C117.402 63.774 117.304 63.5313 117.304 63.242C117.304 62.9527 117.402 62.71 117.598 62.514C117.794 62.318 118.037 62.22 118.326 62.22C118.606 62.22 118.844 62.318 119.04 62.514C119.236 62.71 119.334 62.9527 119.334 63.242C119.334 63.5313 119.236 63.774 119.04 63.97C118.844 64.166 118.606 64.264 118.326 64.264ZM119.11 65.286V73H117.514V65.286H119.11ZM120.953 69.108C120.953 68.3333 121.112 67.6473 121.429 67.05C121.756 66.4527 122.195 65.9907 122.745 65.664C123.305 65.328 123.921 65.16 124.593 65.16C125.2 65.16 125.727 65.2813 126.175 65.524C126.633 65.7573 126.997 66.0513 127.267 66.406V65.286H128.877V73H127.267V71.852C126.997 72.216 126.628 72.5193 126.161 72.762C125.695 73.0047 125.163 73.126 124.565 73.126C123.903 73.126 123.296 72.958 122.745 72.622C122.195 72.2767 121.756 71.8007 121.429 71.194C121.112 70.578 120.953 69.8827 120.953 69.108ZM127.267 69.136C127.267 68.604 127.155 68.142 126.931 67.75C126.717 67.358 126.432 67.0593 126.077 66.854C125.723 66.6487 125.34 66.546 124.929 66.546C124.519 66.546 124.136 66.6487 123.781 66.854C123.427 67.05 123.137 67.344 122.913 67.736C122.699 68.1187 122.591 68.576 122.591 69.108C122.591 69.64 122.699 70.1067 122.913 70.508C123.137 70.9093 123.427 71.2173 123.781 71.432C124.145 71.6373 124.528 71.74 124.929 71.74C125.34 71.74 125.723 71.6373 126.077 71.432C126.432 71.2267 126.717 70.928 126.931 70.536C127.155 70.1347 127.267 69.668 127.267 69.136ZM136.766 66.42C137.037 66.0653 137.406 65.7667 137.872 65.524C138.339 65.2813 138.866 65.16 139.454 65.16C140.126 65.16 140.738 65.328 141.288 65.664C141.848 65.9907 142.287 66.4527 142.604 67.05C142.922 67.6473 143.08 68.3333 143.08 69.108C143.08 69.8827 142.922 70.578 142.604 71.194C142.287 71.8007 141.848 72.2767 141.288 72.622C140.738 72.958 140.126 73.126 139.454 73.126C138.866 73.126 138.344 73.0093 137.886 72.776C137.429 72.5333 137.056 72.2347 136.766 71.88V76.668H135.17V65.286H136.766V66.42ZM141.456 69.108C141.456 68.576 141.344 68.1187 141.12 67.736C140.906 67.344 140.616 67.05 140.252 66.854C139.898 66.6487 139.515 66.546 139.104 66.546C138.703 66.546 138.32 66.6487 137.956 66.854C137.602 67.0593 137.312 67.358 137.088 67.75C136.874 68.142 136.766 68.604 136.766 69.136C136.766 69.668 136.874 70.1347 137.088 70.536C137.312 70.928 137.602 71.2267 137.956 71.432C138.32 71.6373 138.703 71.74 139.104 71.74C139.515 71.74 139.898 71.6373 140.252 71.432C140.616 71.2173 140.906 70.9093 141.12 70.508C141.344 70.1067 141.456 69.64 141.456 69.108ZM152.009 68.954C152.009 69.2433 151.99 69.5047 151.953 69.738H146.059C146.105 70.354 146.334 70.8487 146.745 71.222C147.155 71.5953 147.659 71.782 148.257 71.782C149.115 71.782 149.722 71.4227 150.077 70.704H151.799C151.565 71.4133 151.141 71.9967 150.525 72.454C149.918 72.902 149.162 73.126 148.257 73.126C147.519 73.126 146.857 72.9627 146.269 72.636C145.69 72.3 145.233 71.8333 144.897 71.236C144.57 70.6293 144.407 69.9293 144.407 69.136C144.407 68.3427 144.565 67.6473 144.883 67.05C145.209 66.4433 145.662 65.9767 146.241 65.65C146.829 65.3233 147.501 65.16 148.257 65.16C148.985 65.16 149.633 65.3187 150.203 65.636C150.772 65.9533 151.215 66.4013 151.533 66.98C151.85 67.5493 152.009 68.2073 152.009 68.954ZM150.343 68.45C150.333 67.862 150.123 67.3907 149.713 67.036C149.302 66.6813 148.793 66.504 148.187 66.504C147.636 66.504 147.165 66.6813 146.773 67.036C146.381 67.3813 146.147 67.8527 146.073 68.45H150.343ZM155.455 66.406C155.689 66.014 155.997 65.7107 156.379 65.496C156.771 65.272 157.233 65.16 157.765 65.16V66.812H157.359C156.734 66.812 156.258 66.9707 155.931 67.288C155.614 67.6053 155.455 68.156 155.455 68.94V73H153.859V65.286H155.455V66.406ZM158.98 69.108C158.98 68.3333 159.139 67.6473 159.456 67.05C159.783 66.4527 160.222 65.9907 160.772 65.664C161.332 65.328 161.953 65.16 162.634 65.16C163.138 65.16 163.633 65.272 164.118 65.496C164.613 65.7107 165.005 66 165.294 66.364V62.64H166.904V73H165.294V71.838C165.033 72.2113 164.669 72.5193 164.202 72.762C163.745 73.0047 163.218 73.126 162.62 73.126C161.948 73.126 161.332 72.958 160.772 72.622C160.222 72.2767 159.783 71.8007 159.456 71.194C159.139 70.578 158.98 69.8827 158.98 69.108ZM165.294 69.136C165.294 68.604 165.182 68.142 164.958 67.75C164.744 67.358 164.459 67.0593 164.104 66.854C163.75 66.6487 163.367 66.546 162.956 66.546C162.546 66.546 162.163 66.6487 161.808 66.854C161.454 67.05 161.164 67.344 160.94 67.736C160.726 68.1187 160.618 68.576 160.618 69.108C160.618 69.64 160.726 70.1067 160.94 70.508C161.164 70.9093 161.454 71.2173 161.808 71.432C162.172 71.6373 162.555 71.74 162.956 71.74C163.367 71.74 163.75 71.6373 164.104 71.432C164.459 71.2267 164.744 70.928 164.958 70.536C165.182 70.1347 165.294 69.668 165.294 69.136ZM176.267 65.286V73H174.671V72.09C174.419 72.4073 174.087 72.6593 173.677 72.846C173.275 73.0233 172.846 73.112 172.389 73.112C171.782 73.112 171.236 72.986 170.751 72.734C170.275 72.482 169.897 72.1087 169.617 71.614C169.346 71.1193 169.211 70.522 169.211 69.822V65.286H170.793V69.584C170.793 70.2747 170.965 70.8067 171.311 71.18C171.656 71.544 172.127 71.726 172.725 71.726C173.322 71.726 173.793 71.544 174.139 71.18C174.493 70.8067 174.671 70.2747 174.671 69.584V65.286H176.267ZM180.248 66.406C180.482 66.014 180.79 65.7107 181.172 65.496C181.564 65.272 182.026 65.16 182.558 65.16V66.812H182.152C181.527 66.812 181.051 66.9707 180.724 67.288C180.407 67.6053 180.248 68.156 180.248 68.94V73H178.652V65.286H180.248V66.406ZM183.773 69.108C183.773 68.3333 183.932 67.6473 184.249 67.05C184.576 66.4527 185.015 65.9907 185.565 65.664C186.125 65.328 186.741 65.16 187.413 65.16C188.02 65.16 188.547 65.2813 188.995 65.524C189.453 65.7573 189.817 66.0513 190.087 66.406V65.286H191.697V73H190.087V71.852C189.817 72.216 189.448 72.5193 188.981 72.762C188.515 73.0047 187.983 73.126 187.385 73.126C186.723 73.126 186.116 72.958 185.565 72.622C185.015 72.2767 184.576 71.8007 184.249 71.194C183.932 70.578 183.773 69.8827 183.773 69.108ZM190.087 69.136C190.087 68.604 189.975 68.142 189.751 67.75C189.537 67.358 189.252 67.0593 188.897 66.854C188.543 66.6487 188.16 66.546 187.749 66.546C187.339 66.546 186.956 66.6487 186.601 66.854C186.247 67.05 185.957 67.344 185.733 67.736C185.519 68.1187 185.411 68.576 185.411 69.108C185.411 69.64 185.519 70.1067 185.733 70.508C185.957 70.9093 186.247 71.2173 186.601 71.432C186.965 71.6373 187.348 71.74 187.749 71.74C188.16 71.74 188.543 71.6373 188.897 71.432C189.252 71.2267 189.537 70.928 189.751 70.536C189.975 70.1347 190.087 69.668 190.087 69.136ZM203.412 65.16C204.018 65.16 204.56 65.286 205.036 65.538C205.521 65.79 205.899 66.1633 206.17 66.658C206.45 67.1527 206.59 67.75 206.59 68.45V73H205.008V68.688C205.008 67.9973 204.835 67.47 204.49 67.106C204.144 66.7327 203.673 66.546 203.076 66.546C202.478 66.546 202.002 66.7327 201.648 67.106C201.302 67.47 201.13 67.9973 201.13 68.688V73H199.548V68.688C199.548 67.9973 199.375 67.47 199.03 67.106C198.684 66.7327 198.213 66.546 197.616 66.546C197.018 66.546 196.542 66.7327 196.188 67.106C195.842 67.47 195.67 67.9973 195.67 68.688V73H194.074V65.286H195.67V66.168C195.931 65.8507 196.262 65.6033 196.664 65.426C197.065 65.2487 197.494 65.16 197.952 65.16C198.568 65.16 199.118 65.2907 199.604 65.552C200.089 65.8133 200.462 66.1913 200.724 66.686C200.957 66.2193 201.321 65.8507 201.816 65.58C202.31 65.3 202.842 65.16 203.412 65.16ZM66.912 87.588V91.858C66.912 92.1473 66.9773 92.3573 67.108 92.488C67.248 92.6093 67.4813 92.67 67.808 92.67H68.788V94H67.528C66.8093 94 66.2587 93.832 65.876 93.496C65.4933 93.16 65.302 92.614 65.302 91.858V87.588H64.392V86.286H65.302V84.368H66.912V86.286H68.788V87.588H66.912ZM70.007 90.108C70.007 89.3333 70.1657 88.6473 70.483 88.05C70.8097 87.4527 71.2483 86.9907 71.799 86.664C72.359 86.328 72.975 86.16 73.647 86.16C74.2537 86.16 74.781 86.2813 75.229 86.524C75.6863 86.7573 76.0503 87.0513 76.321 87.406V86.286H77.931V94H76.321V92.852C76.0503 93.216 75.6817 93.5193 75.215 93.762C74.7483 94.0047 74.2163 94.126 73.619 94.126C72.9563 94.126 72.3497 93.958 71.799 93.622C71.2483 93.2767 70.8097 92.8007 70.483 92.194C70.1657 91.578 70.007 90.8827 70.007 90.108ZM76.321 90.136C76.321 89.604 76.209 89.142 75.985 88.75C75.7703 88.358 75.4857 88.0593 75.131 87.854C74.7763 87.6487 74.3937 87.546 73.983 87.546C73.5723 87.546 73.1897 87.6487 72.835 87.854C72.4803 88.05 72.191 88.344 71.967 88.736C71.7523 89.1187 71.645 89.576 71.645 90.108C71.645 90.64 71.7523 91.1067 71.967 91.508C72.191 91.9093 72.4803 92.2173 72.835 92.432C73.199 92.6373 73.5817 92.74 73.983 92.74C74.3937 92.74 74.7763 92.6373 75.131 92.432C75.4857 92.2267 75.7703 91.928 75.985 91.536C76.209 91.1347 76.321 90.668 76.321 90.136ZM84.1993 86.16C84.8059 86.16 85.3473 86.286 85.8233 86.538C86.3086 86.79 86.6866 87.1633 86.9573 87.658C87.2279 88.1527 87.3633 88.75 87.3633 89.45V94H85.7813V89.688C85.7813 88.9973 85.6086 88.47 85.2633 88.106C84.9179 87.7327 84.4466 87.546 83.8493 87.546C83.2519 87.546 82.7759 87.7327 82.4213 88.106C82.0759 88.47 81.9033 88.9973 81.9033 89.688V94H80.3073V86.286H81.9033V87.168C82.1646 86.8507 82.4959 86.6033 82.8973 86.426C83.3079 86.2487 83.7419 86.16 84.1993 86.16ZM91.5411 87.588V91.858C91.5411 92.1473 91.6064 92.3573 91.7371 92.488C91.8771 92.6093 92.1104 92.67 92.4371 92.67H93.4171V94H92.1571C91.4384 94 90.8877 93.832 90.5051 93.496C90.1224 93.16 89.9311 92.614 89.9311 91.858V87.588H89.0211V86.286H89.9311V84.368H91.5411V86.286H93.4171V87.588H91.5411ZM98.514 94.126C97.786 94.126 97.128 93.9627 96.54 93.636C95.952 93.3 95.49 92.8333 95.154 92.236C94.818 91.6293 94.65 90.9293 94.65 90.136C94.65 89.352 94.8227 88.6567 95.168 88.05C95.5134 87.4433 95.9847 86.9767 96.582 86.65C97.1794 86.3233 97.8467 86.16 98.584 86.16C99.3214 86.16 99.9887 86.3233 100.586 86.65C101.183 86.9767 101.655 87.4433 102 88.05C102.345 88.6567 102.518 89.352 102.518 90.136C102.518 90.92 102.341 91.6153 101.986 92.222C101.631 92.8287 101.146 93.3 100.53 93.636C99.9234 93.9627 99.2514 94.126 98.514 94.126ZM98.514 92.74C98.9247 92.74 99.3074 92.642 99.662 92.446C100.026 92.25 100.32 91.956 100.544 91.564C100.768 91.172 100.88 90.696 100.88 90.136C100.88 89.576 100.773 89.1047 100.558 88.722C100.343 88.33 100.059 88.036 99.704 87.84C99.3494 87.644 98.9667 87.546 98.556 87.546C98.1454 87.546 97.7627 87.644 97.408 87.84C97.0627 88.036 96.7874 88.33 96.582 88.722C96.3767 89.1047 96.274 89.576 96.274 90.136C96.274 90.9667 96.484 91.6107 96.904 92.068C97.3334 92.516 97.87 92.74 98.514 92.74ZM110.155 87.588V91.858C110.155 92.1473 110.22 92.3573 110.351 92.488C110.491 92.6093 110.724 92.67 111.051 92.67H112.031V94H110.771C110.052 94 109.501 93.832 109.119 93.496C108.736 93.16 108.545 92.614 108.545 91.858V87.588H107.635V86.286H108.545V84.368H110.155V86.286H112.031V87.588H110.155ZM120.851 89.954C120.851 90.2433 120.833 90.5047 120.795 90.738H114.901C114.948 91.354 115.177 91.8487 115.587 92.222C115.998 92.5953 116.502 92.782 117.099 92.782C117.958 92.782 118.565 92.4227 118.919 91.704H120.641C120.408 92.4133 119.983 92.9967 119.367 93.454C118.761 93.902 118.005 94.126 117.099 94.126C116.362 94.126 115.699 93.9627 115.111 93.636C114.533 93.3 114.075 92.8333 113.739 92.236C113.413 91.6293 113.249 90.9293 113.249 90.136C113.249 89.3427 113.408 88.6473 113.725 88.05C114.052 87.4433 114.505 86.9767 115.083 86.65C115.671 86.3233 116.343 86.16 117.099 86.16C117.827 86.16 118.476 86.3187 119.045 86.636C119.615 86.9533 120.058 87.4013 120.375 87.98C120.693 88.5493 120.851 89.2073 120.851 89.954ZM119.185 89.45C119.176 88.862 118.966 88.3907 118.555 88.036C118.145 87.6813 117.636 87.504 117.029 87.504C116.479 87.504 116.007 87.6813 115.615 88.036C115.223 88.3813 114.99 88.8527 114.915 89.45H119.185ZM132.04 86.16C132.647 86.16 133.188 86.286 133.664 86.538C134.149 86.79 134.527 87.1633 134.798 87.658C135.078 88.1527 135.218 88.75 135.218 89.45V94H133.636V89.688C133.636 88.9973 133.463 88.47 133.118 88.106C132.773 87.7327 132.301 87.546 131.704 87.546C131.107 87.546 130.631 87.7327 130.276 88.106C129.931 88.47 129.758 88.9973 129.758 89.688V94H128.176V89.688C128.176 88.9973 128.003 88.47 127.658 88.106C127.313 87.7327 126.841 87.546 126.244 87.546C125.647 87.546 125.171 87.7327 124.816 88.106C124.471 88.47 124.298 88.9973 124.298 89.688V94H122.702V86.286H124.298V87.168C124.559 86.8507 124.891 86.6033 125.292 86.426C125.693 86.2487 126.123 86.16 126.58 86.16C127.196 86.16 127.747 86.2907 128.232 86.552C128.717 86.8133 129.091 87.1913 129.352 87.686C129.585 87.2193 129.949 86.8507 130.444 86.58C130.939 86.3 131.471 86.16 132.04 86.16ZM139.125 87.42C139.396 87.0653 139.764 86.7667 140.231 86.524C140.698 86.2813 141.225 86.16 141.813 86.16C142.485 86.16 143.096 86.328 143.647 86.664C144.207 86.9907 144.646 87.4527 144.963 88.05C145.28 88.6473 145.439 89.3333 145.439 90.108C145.439 90.8827 145.28 91.578 144.963 92.194C144.646 92.8007 144.207 93.2767 143.647 93.622C143.096 93.958 142.485 94.126 141.813 94.126C141.225 94.126 140.702 94.0093 140.245 93.776C139.788 93.5333 139.414 93.2347 139.125 92.88V97.668H137.529V86.286H139.125V87.42ZM143.815 90.108C143.815 89.576 143.703 89.1187 143.479 88.736C143.264 88.344 142.975 88.05 142.611 87.854C142.256 87.6487 141.874 87.546 141.463 87.546C141.062 87.546 140.679 87.6487 140.315 87.854C139.96 88.0593 139.671 88.358 139.447 88.75C139.232 89.142 139.125 89.604 139.125 90.136C139.125 90.668 139.232 91.1347 139.447 91.536C139.671 91.928 139.96 92.2267 140.315 92.432C140.679 92.6373 141.062 92.74 141.463 92.74C141.874 92.74 142.256 92.6373 142.611 92.432C142.975 92.2173 143.264 91.9093 143.479 91.508C143.703 91.1067 143.815 90.64 143.815 90.108ZM150.643 94.126C149.915 94.126 149.257 93.9627 148.669 93.636C148.081 93.3 147.619 92.8333 147.283 92.236C146.947 91.6293 146.779 90.9293 146.779 90.136C146.779 89.352 146.952 88.6567 147.297 88.05C147.643 87.4433 148.114 86.9767 148.711 86.65C149.309 86.3233 149.976 86.16 150.713 86.16C151.451 86.16 152.118 86.3233 152.715 86.65C153.313 86.9767 153.784 87.4433 154.129 88.05C154.475 88.6567 154.647 89.352 154.647 90.136C154.647 90.92 154.47 91.6153 154.115 92.222C153.761 92.8287 153.275 93.3 152.659 93.636C152.053 93.9627 151.381 94.126 150.643 94.126ZM150.643 92.74C151.054 92.74 151.437 92.642 151.791 92.446C152.155 92.25 152.449 91.956 152.673 91.564C152.897 91.172 153.009 90.696 153.009 90.136C153.009 89.576 152.902 89.1047 152.687 88.722C152.473 88.33 152.188 88.036 151.833 87.84C151.479 87.644 151.096 87.546 150.685 87.546C150.275 87.546 149.892 87.644 149.537 87.84C149.192 88.036 148.917 88.33 148.711 88.722C148.506 89.1047 148.403 89.576 148.403 90.136C148.403 90.9667 148.613 91.6107 149.033 92.068C149.463 92.516 149.999 92.74 150.643 92.74ZM159.123 84.13C160.075 84.13 160.836 84.3913 161.405 84.914C161.984 85.4367 162.273 86.1507 162.273 87.056C162.273 87.9987 161.974 88.708 161.377 89.184C160.78 89.66 159.986 89.898 158.997 89.898L158.941 91.004H157.555L157.485 88.806H157.947C158.852 88.806 159.543 88.6847 160.019 88.442C160.504 88.1993 160.747 87.7373 160.747 87.056C160.747 86.5613 160.602 86.174 160.313 85.894C160.033 85.614 159.641 85.474 159.137 85.474C158.633 85.474 158.236 85.6093 157.947 85.88C157.658 86.1507 157.513 86.5287 157.513 87.014H156.015C156.015 86.454 156.141 85.9547 156.393 85.516C156.645 85.0773 157.004 84.7367 157.471 84.494C157.947 84.2513 158.498 84.13 159.123 84.13ZM158.227 94.098C157.938 94.098 157.695 94 157.499 93.804C157.303 93.608 157.205 93.3653 157.205 93.076C157.205 92.7867 157.303 92.544 157.499 92.348C157.695 92.152 157.938 92.054 158.227 92.054C158.507 92.054 158.745 92.152 158.941 92.348C159.137 92.544 159.235 92.7867 159.235 93.076C159.235 93.3653 159.137 93.608 158.941 93.804C158.745 94 158.507 94.098 158.227 94.098Z" fill="#337066"/>
</svg>
