<svg width="90" height="116" viewBox="0 0 90 116" fill="none" xmlns="http://www.w3.org/2000/svg">
<rect width="230" height="116" rx="4" fill="#D3EBD3"/>
<path d="M42.0834 55.7916C42.7223 55.7916 43.257 55.5764 43.6875 55.1458C44.1181 54.7153 44.3334 54.1805 44.3334 53.5416C44.3334 52.9028 44.1181 52.368 43.6875 51.9375C43.257 51.5069 42.7223 51.2916 42.0834 51.2916C41.4445 51.2916 40.9098 51.5069 40.4792 51.9375C40.0487 52.368 39.8334 52.9028 39.8334 53.5416C39.8334 54.1805 40.0487 54.7153 40.4792 55.1458C40.9098 55.5764 41.4445 55.7916 42.0834 55.7916ZM29.9167 55.7916C30.5556 55.7916 31.0903 55.5764 31.5209 55.1458C31.9514 54.7153 32.1667 54.1805 32.1667 53.5416C32.1667 52.9028 31.9514 52.368 31.5209 51.9375C31.0903 51.5069 30.5556 51.2916 29.9167 51.2916C29.2778 51.2916 28.7431 51.5069 28.3125 51.9375C27.882 52.368 27.6667 52.9028 27.6667 53.5416C27.6667 54.1805 27.882 54.7153 28.3125 55.1458C28.7431 55.5764 29.2778 55.7916 29.9167 55.7916ZM36 60.625C34.1389 60.625 32.4514 61.1458 30.9375 62.1875C29.4237 63.2291 28.3056 64.6111 27.5834 66.3333H29.7917C30.4028 65.1666 31.2709 64.2639 32.3959 63.625C33.5209 62.9861 34.7362 62.6666 36.0417 62.6666C37.3473 62.6666 38.5487 62.9861 39.6459 63.625C40.7431 64.2639 41.6112 65.1666 42.25 66.3333H44.4167C43.7223 64.6111 42.6112 63.2291 41.0834 62.1875C39.5556 61.1458 37.8612 60.625 36 60.625ZM36 74.6666C33.7223 74.6666 31.5695 74.2291 29.5417 73.3541C27.5139 72.4791 25.7431 71.2847 24.2292 69.7708C22.7153 68.2569 21.5209 66.4861 20.6459 64.4583C19.7709 62.4305 19.3334 60.2639 19.3334 57.9583C19.3334 55.6805 19.7709 53.5278 20.6459 51.5C21.5209 49.4722 22.7153 47.7083 24.2292 46.2083C25.7431 44.7083 27.5139 43.5208 29.5417 42.6458C31.5695 41.7708 33.7362 41.3333 36.0417 41.3333C38.3195 41.3333 40.4723 41.7708 42.5 42.6458C44.5278 43.5208 46.2917 44.7083 47.7917 46.2083C49.2917 47.7083 50.4792 49.4722 51.3542 51.5C52.2292 53.5278 52.6667 55.6944 52.6667 58C52.6667 60.2778 52.2292 62.4305 51.3542 64.4583C50.4792 66.4861 49.2917 68.2569 47.7917 69.7708C46.2917 71.2847 44.5278 72.4791 42.5 73.3541C40.4723 74.2291 38.3056 74.6666 36 74.6666ZM36 72.1666C39.9445 72.1666 43.2917 70.7847 46.0417 68.0208C48.7917 65.2569 50.1667 61.9166 50.1667 58C50.1667 54.0555 48.7917 50.7083 46.0417 47.9583C43.2917 45.2083 39.9445 43.8333 36 43.8333C32.0834 43.8333 28.7431 45.2083 25.9792 47.9583C23.2153 50.7083 21.8334 54.0555 21.8334 58C21.8334 61.9166 23.2153 65.2569 25.9792 68.0208C28.7431 70.7847 32.0834 72.1666 36 72.1666Z" fill="#337066"/>
<path d="M68.256 31.098C67.6027 31.098 67.0147 30.986 66.492 30.762C65.9693 30.5287 65.5587 30.202 65.26 29.782C64.9613 29.362 64.812 28.872 64.812 28.312H66.52C66.5573 28.732 66.7207 29.0773 67.01 29.348C67.3087 29.6187 67.724 29.754 68.256 29.754C68.8067 29.754 69.236 29.6233 69.544 29.362C69.852 29.0913 70.006 28.746 70.006 28.326C70.006 27.9993 69.908 27.7333 69.712 27.528C69.5253 27.3227 69.2873 27.164 68.998 27.052C68.718 26.94 68.326 26.8187 67.822 26.688C67.1873 26.52 66.6693 26.352 66.268 26.184C65.876 26.0067 65.54 25.736 65.26 25.372C64.98 25.008 64.84 24.5227 64.84 23.916C64.84 23.356 64.98 22.866 65.26 22.446C65.54 22.026 65.932 21.704 66.436 21.48C66.94 21.256 67.5233 21.144 68.186 21.144C69.1287 21.144 69.8987 21.382 70.496 21.858C71.1027 22.3247 71.4387 22.9687 71.504 23.79H69.74C69.712 23.4353 69.544 23.132 69.236 22.88C68.928 22.628 68.522 22.502 68.018 22.502C67.5607 22.502 67.1873 22.6187 66.898 22.852C66.6087 23.0853 66.464 23.4213 66.464 23.86C66.464 24.1587 66.5527 24.406 66.73 24.602C66.9167 24.7887 67.15 24.938 67.43 25.05C67.71 25.162 68.0927 25.2833 68.578 25.414C69.222 25.5913 69.7447 25.7687 70.146 25.946C70.5567 26.1233 70.902 26.3987 71.182 26.772C71.4713 27.136 71.616 27.626 71.616 28.242C71.616 28.7367 71.4807 29.2033 71.21 29.642C70.9487 30.0807 70.5613 30.4353 70.048 30.706C69.544 30.9673 68.9467 31.098 68.256 31.098ZM74.5912 22.264C74.3019 22.264 74.0592 22.166 73.8632 21.97C73.6672 21.774 73.5692 21.5313 73.5692 21.242C73.5692 20.9527 73.6672 20.71 73.8632 20.514C74.0592 20.318 74.3019 20.22 74.5912 20.22C74.8712 20.22 75.1092 20.318 75.3052 20.514C75.5012 20.71 75.5992 20.9527 75.5992 21.242C75.5992 21.5313 75.5012 21.774 75.3052 21.97C75.1092 22.166 74.8712 22.264 74.5912 22.264ZM75.3752 23.286V31H73.7792V23.286H75.3752ZM81.6426 23.16C82.2493 23.16 82.7906 23.286 83.2666 23.538C83.752 23.79 84.13 24.1633 84.4006 24.658C84.6713 25.1527 84.8066 25.75 84.8066 26.45V31H83.2246V26.688C83.2246 25.9973 83.052 25.47 82.7066 25.106C82.3613 24.7327 81.89 24.546 81.2926 24.546C80.6953 24.546 80.2193 24.7327 79.8646 25.106C79.5193 25.47 79.3466 25.9973 79.3466 26.688V31H77.7506V23.286H79.3466V24.168C79.608 23.8507 79.9393 23.6033 80.3406 23.426C80.7513 23.2487 81.1853 23.16 81.6426 23.16ZM86.5904 27.108C86.5904 26.3333 86.7491 25.6473 87.0664 25.05C87.3931 24.4527 87.8318 23.9907 88.3824 23.664C88.9424 23.328 89.5584 23.16 90.2304 23.16C90.8371 23.16 91.3644 23.2813 91.8124 23.524C92.2698 23.7573 92.6338 24.0513 92.9044 24.406V23.286H94.5144V31H92.9044V29.852C92.6338 30.216 92.2651 30.5193 91.7984 30.762C91.3318 31.0047 90.7998 31.126 90.2024 31.126C89.5398 31.126 88.9331 30.958 88.3824 30.622C87.8318 30.2767 87.3931 29.8007 87.0664 29.194C86.7491 28.578 86.5904 27.8827 86.5904 27.108ZM92.9044 27.136C92.9044 26.604 92.7924 26.142 92.5684 25.75C92.3538 25.358 92.0691 25.0593 91.7144 24.854C91.3598 24.6487 90.9771 24.546 90.5664 24.546C90.1558 24.546 89.7731 24.6487 89.4184 24.854C89.0638 25.05 88.7744 25.344 88.5504 25.736C88.3358 26.1187 88.2284 26.576 88.2284 27.108C88.2284 27.64 88.3358 28.1067 88.5504 28.508C88.7744 28.9093 89.0638 29.2173 89.4184 29.432C89.7824 29.6373 90.1651 29.74 90.5664 29.74C90.9771 29.74 91.3598 29.6373 91.7144 29.432C92.0691 29.2267 92.3538 28.928 92.5684 28.536C92.7924 28.1347 92.9044 27.668 92.9044 27.136ZM97.7027 22.264C97.4134 22.264 97.1707 22.166 96.9747 21.97C96.7787 21.774 96.6807 21.5313 96.6807 21.242C96.6807 20.9527 96.7787 20.71 96.9747 20.514C97.1707 20.318 97.4134 20.22 97.7027 20.22C97.9827 20.22 98.2207 20.318 98.4167 20.514C98.6127 20.71 98.7107 20.9527 98.7107 21.242C98.7107 21.5313 98.6127 21.774 98.4167 21.97C98.2207 22.166 97.9827 22.264 97.7027 22.264ZM98.4867 23.286V31H96.8907V23.286H98.4867ZM103.662 31.126C103.055 31.126 102.509 31.0187 102.024 30.804C101.548 30.58 101.17 30.2813 100.89 29.908C100.61 29.5253 100.461 29.1007 100.442 28.634H102.094C102.122 28.9607 102.276 29.236 102.556 29.46C102.845 29.6747 103.205 29.782 103.634 29.782C104.082 29.782 104.427 29.698 104.67 29.53C104.922 29.3527 105.048 29.1287 105.048 28.858C105.048 28.5687 104.908 28.354 104.628 28.214C104.357 28.074 103.923 27.92 103.326 27.752C102.747 27.5933 102.276 27.4393 101.912 27.29C101.548 27.1407 101.231 26.912 100.96 26.604C100.699 26.296 100.568 25.89 100.568 25.386C100.568 24.9753 100.689 24.602 100.932 24.266C101.175 23.9207 101.52 23.65 101.968 23.454C102.425 23.258 102.948 23.16 103.536 23.16C104.413 23.16 105.118 23.384 105.65 23.832C106.191 24.2707 106.481 24.8727 106.518 25.638H104.922C104.894 25.2927 104.754 25.0173 104.502 24.812C104.25 24.6067 103.909 24.504 103.48 24.504C103.06 24.504 102.738 24.5833 102.514 24.742C102.29 24.9007 102.178 25.1107 102.178 25.372C102.178 25.5773 102.253 25.75 102.402 25.89C102.551 26.03 102.733 26.142 102.948 26.226C103.163 26.3007 103.48 26.3987 103.9 26.52C104.46 26.6693 104.917 26.8233 105.272 26.982C105.636 27.1313 105.949 27.3553 106.21 27.654C106.471 27.9527 106.607 28.3493 106.616 28.844C106.616 29.2827 106.495 29.6747 106.252 30.02C106.009 30.3653 105.664 30.636 105.216 30.832C104.777 31.028 104.259 31.126 103.662 31.126ZM112.005 27.108C112.005 26.3333 112.164 25.6473 112.481 25.05C112.808 24.4527 113.247 23.9907 113.797 23.664C114.357 23.328 114.978 23.16 115.659 23.16C116.163 23.16 116.658 23.272 117.143 23.496C117.638 23.7107 118.03 24 118.319 24.364V20.64H119.929V31H118.319V29.838C118.058 30.2113 117.694 30.5193 117.227 30.762C116.77 31.0047 116.243 31.126 115.645 31.126C114.973 31.126 114.357 30.958 113.797 30.622C113.247 30.2767 112.808 29.8007 112.481 29.194C112.164 28.578 112.005 27.8827 112.005 27.108ZM118.319 27.136C118.319 26.604 118.207 26.142 117.983 25.75C117.769 25.358 117.484 25.0593 117.129 24.854C116.775 24.6487 116.392 24.546 115.981 24.546C115.571 24.546 115.188 24.6487 114.833 24.854C114.479 25.05 114.189 25.344 113.965 25.736C113.751 26.1187 113.643 26.576 113.643 27.108C113.643 27.64 113.751 28.1067 113.965 28.508C114.189 28.9093 114.479 29.2173 114.833 29.432C115.197 29.6373 115.58 29.74 115.981 29.74C116.392 29.74 116.775 29.6373 117.129 29.432C117.484 29.2267 117.769 28.928 117.983 28.536C118.207 28.1347 118.319 27.668 118.319 27.136ZM129.376 26.954C129.376 27.2433 129.357 27.5047 129.32 27.738H123.426C123.472 28.354 123.701 28.8487 124.112 29.222C124.522 29.5953 125.026 29.782 125.624 29.782C126.482 29.782 127.089 29.4227 127.444 28.704H129.166C128.932 29.4133 128.508 29.9967 127.892 30.454C127.285 30.902 126.529 31.126 125.624 31.126C124.886 31.126 124.224 30.9627 123.636 30.636C123.057 30.3 122.6 29.8333 122.264 29.236C121.937 28.6293 121.774 27.9293 121.774 27.136C121.774 26.3427 121.932 25.6473 122.25 25.05C122.576 24.4433 123.029 23.9767 123.608 23.65C124.196 23.3233 124.868 23.16 125.624 23.16C126.352 23.16 127 23.3187 127.57 23.636C128.139 23.9533 128.582 24.4013 128.9 24.98C129.217 25.5493 129.376 26.2073 129.376 26.954ZM127.71 26.45C127.7 25.862 127.49 25.3907 127.08 25.036C126.669 24.6813 126.16 24.504 125.554 24.504C125.003 24.504 124.532 24.6813 124.14 25.036C123.748 25.3813 123.514 25.8527 123.44 26.45H127.71ZM134.611 27.108C134.611 26.3333 134.77 25.6473 135.087 25.05C135.414 24.4527 135.852 23.9907 136.403 23.664C136.963 23.328 137.584 23.16 138.265 23.16C138.862 23.16 139.39 23.2813 139.847 23.524C140.314 23.7667 140.673 24.0607 140.925 24.406V23.286H142.535V34.668H140.925V29.88C140.673 30.2253 140.309 30.5193 139.833 30.762C139.357 31.0047 138.816 31.126 138.209 31.126C137.546 31.126 136.94 30.958 136.389 30.622C135.848 30.2767 135.414 29.8007 135.087 29.194C134.77 28.578 134.611 27.8827 134.611 27.108ZM140.925 27.136C140.925 26.604 140.813 26.142 140.589 25.75C140.374 25.358 140.09 25.0593 139.735 24.854C139.38 24.6487 138.998 24.546 138.587 24.546C138.176 24.546 137.794 24.6487 137.439 24.854C137.084 25.05 136.795 25.344 136.571 25.736C136.356 26.1187 136.249 26.576 136.249 27.108C136.249 27.64 136.356 28.1067 136.571 28.508C136.795 28.9093 137.084 29.2173 137.439 29.432C137.803 29.6373 138.186 29.74 138.587 29.74C138.998 29.74 139.38 29.6373 139.735 29.432C140.09 29.2267 140.374 28.928 140.589 28.536C140.813 28.1347 140.925 27.668 140.925 27.136ZM151.897 23.286V31H150.301V30.09C150.049 30.4073 149.718 30.6593 149.307 30.846C148.906 31.0233 148.477 31.112 148.019 31.112C147.413 31.112 146.867 30.986 146.381 30.734C145.905 30.482 145.527 30.1087 145.247 29.614C144.977 29.1193 144.841 28.522 144.841 27.822V23.286H146.423V27.584C146.423 28.2747 146.596 28.8067 146.941 29.18C147.287 29.544 147.758 29.726 148.355 29.726C148.953 29.726 149.424 29.544 149.769 29.18C150.124 28.8067 150.301 28.2747 150.301 27.584V23.286H151.897ZM161.353 26.954C161.353 27.2433 161.334 27.5047 161.297 27.738H155.403C155.45 28.354 155.678 28.8487 156.089 29.222C156.5 29.5953 157.004 29.782 157.601 29.782C158.46 29.782 159.066 29.4227 159.421 28.704H161.143C160.91 29.4133 160.485 29.9967 159.869 30.454C159.262 30.902 158.506 31.126 157.601 31.126C156.864 31.126 156.201 30.9627 155.613 30.636C155.034 30.3 154.577 29.8333 154.241 29.236C153.914 28.6293 153.751 27.9293 153.751 27.136C153.751 26.3427 153.91 25.6473 154.227 25.05C154.554 24.4433 155.006 23.9767 155.585 23.65C156.173 23.3233 156.845 23.16 157.601 23.16C158.329 23.16 158.978 23.3187 159.547 23.636C160.116 23.9533 160.56 24.4013 160.877 24.98C161.194 25.5493 161.353 26.2073 161.353 26.954ZM159.687 26.45C159.678 25.862 159.468 25.3907 159.057 25.036C158.646 24.6813 158.138 24.504 157.531 24.504C156.98 24.504 156.509 24.6813 156.117 25.036C155.725 25.3813 155.492 25.8527 155.417 26.45H159.687ZM166.588 27.108C166.588 26.3333 166.747 25.6473 167.064 25.05C167.391 24.4527 167.83 23.9907 168.38 23.664C168.94 23.328 169.556 23.16 170.228 23.16C170.835 23.16 171.362 23.2813 171.81 23.524C172.268 23.7573 172.632 24.0513 172.902 24.406V23.286H174.512V31H172.902V29.852C172.632 30.216 172.263 30.5193 171.796 30.762C171.33 31.0047 170.798 31.126 170.2 31.126C169.538 31.126 168.931 30.958 168.38 30.622C167.83 30.2767 167.391 29.8007 167.064 29.194C166.747 28.578 166.588 27.8827 166.588 27.108ZM172.902 27.136C172.902 26.604 172.79 26.142 172.566 25.75C172.352 25.358 172.067 25.0593 171.712 24.854C171.358 24.6487 170.975 24.546 170.564 24.546C170.154 24.546 169.771 24.6487 169.416 24.854C169.062 25.05 168.772 25.344 168.548 25.736C168.334 26.1187 168.226 26.576 168.226 27.108C168.226 27.64 168.334 28.1067 168.548 28.508C168.772 28.9093 169.062 29.2173 169.416 29.432C169.78 29.6373 170.163 29.74 170.564 29.74C170.975 29.74 171.358 29.6373 171.712 29.432C172.067 29.2267 172.352 28.928 172.566 28.536C172.79 28.1347 172.902 27.668 172.902 27.136ZM74.388 44.16C74.9947 44.16 75.536 44.286 76.012 44.538C76.4973 44.79 76.8753 45.1633 77.146 45.658C77.426 46.1527 77.566 46.75 77.566 47.45V52H75.984V47.688C75.984 46.9973 75.8113 46.47 75.466 46.106C75.1207 45.7327 74.6493 45.546 74.052 45.546C73.4547 45.546 72.9787 45.7327 72.624 46.106C72.2787 46.47 72.106 46.9973 72.106 47.688V52H70.524V47.688C70.524 46.9973 70.3513 46.47 70.006 46.106C69.6607 45.7327 69.1893 45.546 68.592 45.546C67.9947 45.546 67.5187 45.7327 67.164 46.106C66.8187 46.47 66.646 46.9973 66.646 47.688V52H65.05V44.286H66.646V45.168C66.9073 44.8507 67.2387 44.6033 67.64 44.426C68.0413 44.2487 68.4707 44.16 68.928 44.16C69.544 44.16 70.0947 44.2907 70.58 44.552C71.0653 44.8133 71.4387 45.1913 71.7 45.686C71.9333 45.2193 72.2973 44.8507 72.792 44.58C73.2867 44.3 73.8187 44.16 74.388 44.16ZM86.8629 44.286V52H85.2669V51.09C85.0149 51.4073 84.6835 51.6593 84.2729 51.846C83.8715 52.0233 83.4422 52.112 82.9849 52.112C82.3782 52.112 81.8322 51.986 81.3469 51.734C80.8709 51.482 80.4929 51.1087 80.2129 50.614C79.9422 50.1193 79.8069 49.522 79.8069 48.822V44.286H81.3889V48.584C81.3889 49.2747 81.5615 49.8067 81.9069 50.18C82.2522 50.544 82.7235 50.726 83.3209 50.726C83.9182 50.726 84.3895 50.544 84.7349 50.18C85.0895 49.8067 85.2669 49.2747 85.2669 48.584V44.286H86.8629ZM90.8447 41.64V52H89.2487V41.64H90.8447ZM97.2101 44.16C97.7981 44.16 98.3207 44.286 98.7781 44.538C99.2447 44.79 99.6087 45.1633 99.8701 45.658C100.141 46.1527 100.276 46.75 100.276 47.45V52H98.6941V47.688C98.6941 46.9973 98.5214 46.47 98.1761 46.106C97.8307 45.7327 97.3594 45.546 96.7621 45.546C96.1647 45.546 95.6887 45.7327 95.3341 46.106C94.9887 46.47 94.8161 46.9973 94.8161 47.688V52H93.2201V41.64H94.8161V45.182C95.0867 44.8553 95.4274 44.6033 95.8381 44.426C96.2581 44.2487 96.7154 44.16 97.2101 44.16ZM109.662 47.954C109.662 48.2433 109.643 48.5047 109.606 48.738H103.712C103.759 49.354 103.987 49.8487 104.398 50.222C104.809 50.5953 105.313 50.782 105.91 50.782C106.769 50.782 107.375 50.4227 107.73 49.704H109.452C109.219 50.4133 108.794 50.9967 108.178 51.454C107.571 51.902 106.815 52.126 105.91 52.126C105.173 52.126 104.51 51.9627 103.922 51.636C103.343 51.3 102.886 50.8333 102.55 50.236C102.223 49.6293 102.06 48.9293 102.06 48.136C102.06 47.3427 102.219 46.6473 102.536 46.05C102.863 45.4433 103.315 44.9767 103.894 44.65C104.482 44.3233 105.154 44.16 105.91 44.16C106.638 44.16 107.287 44.3187 107.856 44.636C108.425 44.9533 108.869 45.4013 109.186 45.98C109.503 46.5493 109.662 47.2073 109.662 47.954ZM107.996 47.45C107.987 46.862 107.777 46.3907 107.366 46.036C106.955 45.6813 106.447 45.504 105.84 45.504C105.289 45.504 104.818 45.6813 104.426 46.036C104.034 46.3813 103.801 46.8527 103.726 47.45H107.996ZM113.109 45.406C113.342 45.014 113.65 44.7107 114.033 44.496C114.425 44.272 114.887 44.16 115.419 44.16V45.812H115.013C114.387 45.812 113.911 45.9707 113.585 46.288C113.267 46.6053 113.109 47.156 113.109 47.94V52H111.513V44.286H113.109V45.406ZM128.152 47.954C128.152 48.2433 128.134 48.5047 128.096 48.738H122.202C122.249 49.354 122.478 49.8487 122.888 50.222C123.299 50.5953 123.803 50.782 124.4 50.782C125.259 50.782 125.866 50.4227 126.22 49.704H127.942C127.709 50.4133 127.284 50.9967 126.668 51.454C126.062 51.902 125.306 52.126 124.4 52.126C123.663 52.126 123 51.9627 122.412 51.636C121.834 51.3 121.376 50.8333 121.04 50.236C120.714 49.6293 120.55 48.9293 120.55 48.136C120.55 47.3427 120.709 46.6473 121.026 46.05C121.353 45.4433 121.806 44.9767 122.384 44.65C122.972 44.3233 123.644 44.16 124.4 44.16C125.128 44.16 125.777 44.3187 126.346 44.636C126.916 44.9533 127.359 45.4013 127.676 45.98C127.994 46.5493 128.152 47.2073 128.152 47.954ZM126.486 47.45C126.477 46.862 126.267 46.3907 125.856 46.036C125.446 45.6813 124.937 45.504 124.33 45.504C123.78 45.504 123.308 45.6813 122.916 46.036C122.524 46.3813 122.291 46.8527 122.216 47.45H126.486ZM132.803 52.126C132.196 52.126 131.65 52.0187 131.165 51.804C130.689 51.58 130.311 51.2813 130.031 50.908C129.751 50.5253 129.602 50.1007 129.583 49.634H131.235C131.263 49.9607 131.417 50.236 131.697 50.46C131.986 50.6747 132.346 50.782 132.775 50.782C133.223 50.782 133.568 50.698 133.811 50.53C134.063 50.3527 134.189 50.1287 134.189 49.858C134.189 49.5687 134.049 49.354 133.769 49.214C133.498 49.074 133.064 48.92 132.467 48.752C131.888 48.5933 131.417 48.4393 131.053 48.29C130.689 48.1407 130.372 47.912 130.101 47.604C129.84 47.296 129.709 46.89 129.709 46.386C129.709 45.9753 129.83 45.602 130.073 45.266C130.316 44.9207 130.661 44.65 131.109 44.454C131.566 44.258 132.089 44.16 132.677 44.16C133.554 44.16 134.259 44.384 134.791 44.832C135.332 45.2707 135.622 45.8727 135.659 46.638H134.063C134.035 46.2927 133.895 46.0173 133.643 45.812C133.391 45.6067 133.05 45.504 132.621 45.504C132.201 45.504 131.879 45.5833 131.655 45.742C131.431 45.9007 131.319 46.1107 131.319 46.372C131.319 46.5773 131.394 46.75 131.543 46.89C131.692 47.03 131.874 47.142 132.089 47.226C132.304 47.3007 132.621 47.3987 133.041 47.52C133.601 47.6693 134.058 47.8233 134.413 47.982C134.777 48.1313 135.09 48.3553 135.351 48.654C135.612 48.9527 135.748 49.3493 135.757 49.844C135.757 50.2827 135.636 50.6747 135.393 51.02C135.15 51.3653 134.805 51.636 134.357 51.832C133.918 52.028 133.4 52.126 132.803 52.126ZM139.623 45.588V49.858C139.623 50.1473 139.689 50.3573 139.819 50.488C139.959 50.6093 140.193 50.67 140.519 50.67H141.499V52H140.239C139.521 52 138.97 51.832 138.587 51.496C138.205 51.16 138.013 50.614 138.013 49.858V45.588H137.103V44.286H138.013V42.368H139.623V44.286H141.499V45.588H139.623ZM142.718 48.108C142.718 47.3333 142.877 46.6473 143.194 46.05C143.521 45.4527 143.96 44.9907 144.51 44.664C145.07 44.328 145.686 44.16 146.358 44.16C146.965 44.16 147.492 44.2813 147.94 44.524C148.398 44.7573 148.762 45.0513 149.032 45.406V44.286H150.642V52H149.032V50.852C148.762 51.216 148.393 51.5193 147.926 51.762C147.46 52.0047 146.928 52.126 146.33 52.126C145.668 52.126 145.061 51.958 144.51 51.622C143.96 51.2767 143.521 50.8007 143.194 50.194C142.877 49.578 142.718 48.8827 142.718 48.108ZM149.032 48.136C149.032 47.604 148.92 47.142 148.696 46.75C148.482 46.358 148.197 46.0593 147.842 45.854C147.488 45.6487 147.105 45.546 146.694 45.546C146.284 45.546 145.901 45.6487 145.546 45.854C145.192 46.05 144.902 46.344 144.678 46.736C144.464 47.1187 144.356 47.576 144.356 48.108C144.356 48.64 144.464 49.1067 144.678 49.508C144.902 49.9093 145.192 50.2173 145.546 50.432C145.91 50.6373 146.293 50.74 146.694 50.74C147.105 50.74 147.488 50.6373 147.842 50.432C148.197 50.2267 148.482 49.928 148.696 49.536C148.92 49.1347 149.032 48.668 149.032 48.136ZM148.388 42.214L145.294 43.74V42.564L148.388 40.856V42.214ZM67.85 73.126C67.2433 73.126 66.6973 73.0187 66.212 72.804C65.736 72.58 65.358 72.2813 65.078 71.908C64.798 71.5253 64.6487 71.1007 64.63 70.634H66.282C66.31 70.9607 66.464 71.236 66.744 71.46C67.0333 71.6747 67.3927 71.782 67.822 71.782C68.27 71.782 68.6153 71.698 68.858 71.53C69.11 71.3527 69.236 71.1287 69.236 70.858C69.236 70.5687 69.096 70.354 68.816 70.214C68.5453 70.074 68.1113 69.92 67.514 69.752C66.9353 69.5933 66.464 69.4393 66.1 69.29C65.736 69.1407 65.4187 68.912 65.148 68.604C64.8867 68.296 64.756 67.89 64.756 67.386C64.756 66.9753 64.8773 66.602 65.12 66.266C65.3627 65.9207 65.708 65.65 66.156 65.454C66.6133 65.258 67.136 65.16 67.724 65.16C68.6013 65.16 69.306 65.384 69.838 65.832C70.3793 66.2707 70.6687 66.8727 70.706 67.638H69.11C69.082 67.2927 68.942 67.0173 68.69 66.812C68.438 66.6067 68.0973 66.504 67.668 66.504C67.248 66.504 66.926 66.5833 66.702 66.742C66.478 66.9007 66.366 67.1107 66.366 67.372C66.366 67.5773 66.4407 67.75 66.59 67.89C66.7393 68.03 66.9213 68.142 67.136 68.226C67.3507 68.3007 67.668 68.3987 68.088 68.52C68.648 68.6693 69.1053 68.8233 69.46 68.982C69.824 69.1313 70.1367 69.3553 70.398 69.654C70.6593 69.9527 70.7947 70.3493 70.804 70.844C70.804 71.2827 70.6827 71.6747 70.44 72.02C70.1973 72.3653 69.852 72.636 69.404 72.832C68.9653 73.028 68.4473 73.126 67.85 73.126ZM76.1545 73.126C75.4265 73.126 74.7685 72.9627 74.1805 72.636C73.5925 72.3 73.1305 71.8333 72.7945 71.236C72.4585 70.6293 72.2905 69.9293 72.2905 69.136C72.2905 68.352 72.4632 67.6567 72.8085 67.05C73.1538 66.4433 73.6252 65.9767 74.2225 65.65C74.8198 65.3233 75.4872 65.16 76.2245 65.16C76.9618 65.16 77.6292 65.3233 78.2265 65.65C78.8238 65.9767 79.2952 66.4433 79.6405 67.05C79.9858 67.6567 80.1585 68.352 80.1585 69.136C80.1585 69.92 79.9812 70.6153 79.6265 71.222C79.2718 71.8287 78.7865 72.3 78.1705 72.636C77.5638 72.9627 76.8918 73.126 76.1545 73.126ZM76.1545 71.74C76.5652 71.74 76.9478 71.642 77.3025 71.446C77.6665 71.25 77.9605 70.956 78.1845 70.564C78.4085 70.172 78.5205 69.696 78.5205 69.136C78.5205 68.576 78.4132 68.1047 78.1985 67.722C77.9838 67.33 77.6992 67.036 77.3445 66.84C76.9898 66.644 76.6072 66.546 76.1965 66.546C75.7858 66.546 75.4032 66.644 75.0485 66.84C74.7032 67.036 74.4278 67.33 74.2225 67.722C74.0172 68.1047 73.9145 68.576 73.9145 69.136C73.9145 69.9667 74.1245 70.6107 74.5445 71.068C74.9738 71.516 75.5105 71.74 76.1545 71.74ZM85.2502 66.588H83.8222V73H82.2122V66.588H81.3022V65.286H82.2122V64.74C82.2122 63.8533 82.4456 63.2093 82.9122 62.808C83.3882 62.3973 84.1302 62.192 85.1382 62.192V63.522C84.6529 63.522 84.3122 63.6153 84.1162 63.802C83.9202 63.9793 83.8222 64.292 83.8222 64.74V65.286H85.2502V66.588ZM88.5407 66.406C88.774 66.014 89.082 65.7107 89.4647 65.496C89.8567 65.272 90.3187 65.16 90.8507 65.16V66.812H90.4447C89.8194 66.812 89.3434 66.9707 89.0167 67.288C88.6994 67.6053 88.5407 68.156 88.5407 68.94V73H86.9447V65.286H88.5407V66.406ZM99.6677 68.954C99.6677 69.2433 99.6491 69.5047 99.6117 69.738H93.7177C93.7644 70.354 93.9931 70.8487 94.4037 71.222C94.8144 71.5953 95.3184 71.782 95.9157 71.782C96.7744 71.782 97.3811 71.4227 97.7357 70.704H99.4577C99.2244 71.4133 98.7997 71.9967 98.1837 72.454C97.5771 72.902 96.8211 73.126 95.9157 73.126C95.1784 73.126 94.5157 72.9627 93.9277 72.636C93.3491 72.3 92.8917 71.8333 92.5557 71.236C92.2291 70.6293 92.0657 69.9293 92.0657 69.136C92.0657 68.3427 92.2244 67.6473 92.5417 67.05C92.8684 66.4433 93.3211 65.9767 93.8997 65.65C94.4877 65.3233 95.1597 65.16 95.9157 65.16C96.6437 65.16 97.2924 65.3187 97.8617 65.636C98.4311 65.9533 98.8744 66.4013 99.1917 66.98C99.5091 67.5493 99.6677 68.2073 99.6677 68.954ZM98.0017 68.45C97.9924 67.862 97.7824 67.3907 97.3717 67.036C96.9611 66.6813 96.4524 66.504 95.8457 66.504C95.2951 66.504 94.8237 66.6813 94.4317 67.036C94.0397 67.3813 93.8064 67.8527 93.7317 68.45H98.0017ZM105.41 65.16C106.017 65.16 106.558 65.286 107.034 65.538C107.52 65.79 107.898 66.1633 108.168 66.658C108.439 67.1527 108.574 67.75 108.574 68.45V73H106.992V68.688C106.992 67.9973 106.82 67.47 106.474 67.106C106.129 66.7327 105.658 66.546 105.06 66.546C104.463 66.546 103.987 66.7327 103.632 67.106C103.287 67.47 103.114 67.9973 103.114 68.688V73H101.518V65.286H103.114V66.168C103.376 65.8507 103.707 65.6033 104.108 65.426C104.519 65.2487 104.953 65.16 105.41 65.16ZM110.358 69.108C110.358 68.3333 110.517 67.6473 110.834 67.05C111.161 66.4527 111.599 65.9907 112.15 65.664C112.71 65.328 113.331 65.16 114.012 65.16C114.516 65.16 115.011 65.272 115.496 65.496C115.991 65.7107 116.383 66 116.672 66.364V62.64H118.282V73H116.672V71.838C116.411 72.2113 116.047 72.5193 115.58 72.762C115.123 73.0047 114.595 73.126 113.998 73.126C113.326 73.126 112.71 72.958 112.15 72.622C111.599 72.2767 111.161 71.8007 110.834 71.194C110.517 70.578 110.358 69.8827 110.358 69.108ZM116.672 69.136C116.672 68.604 116.56 68.142 116.336 67.75C116.121 67.358 115.837 67.0593 115.482 66.854C115.127 66.6487 114.745 66.546 114.334 66.546C113.923 66.546 113.541 66.6487 113.186 66.854C112.831 67.05 112.542 67.344 112.318 67.736C112.103 68.1187 111.996 68.576 111.996 69.108C111.996 69.64 112.103 70.1067 112.318 70.508C112.542 70.9093 112.831 71.2173 113.186 71.432C113.55 71.6373 113.933 71.74 114.334 71.74C114.745 71.74 115.127 71.6373 115.482 71.432C115.837 71.2267 116.121 70.928 116.336 70.536C116.56 70.1347 116.672 69.668 116.672 69.136ZM124.004 73.126C123.276 73.126 122.618 72.9627 122.03 72.636C121.442 72.3 120.98 71.8333 120.644 71.236C120.308 70.6293 120.14 69.9293 120.14 69.136C120.14 68.352 120.313 67.6567 120.658 67.05C121.004 66.4433 121.475 65.9767 122.072 65.65C122.67 65.3233 123.337 65.16 124.074 65.16C124.812 65.16 125.479 65.3233 126.076 65.65C126.674 65.9767 127.145 66.4433 127.49 67.05C127.836 67.6567 128.008 68.352 128.008 69.136C128.008 69.92 127.831 70.6153 127.476 71.222C127.122 71.8287 126.636 72.3 126.02 72.636C125.414 72.9627 124.742 73.126 124.004 73.126ZM124.004 71.74C124.415 71.74 124.798 71.642 125.152 71.446C125.516 71.25 125.81 70.956 126.034 70.564C126.258 70.172 126.37 69.696 126.37 69.136C126.37 68.576 126.263 68.1047 126.048 67.722C125.834 67.33 125.549 67.036 125.194 66.84C124.84 66.644 124.457 66.546 124.046 66.546C123.636 66.546 123.253 66.644 122.898 66.84C122.553 67.036 122.278 67.33 122.072 67.722C121.867 68.1047 121.764 68.576 121.764 69.136C121.764 69.9667 121.974 70.6107 122.394 71.068C122.824 71.516 123.36 71.74 124.004 71.74ZM136.765 71.572L138.949 65.286H140.643L137.703 73H135.799L132.873 65.286H134.581L136.765 71.572ZM142.941 64.264C142.652 64.264 142.409 64.166 142.213 63.97C142.017 63.774 141.919 63.5313 141.919 63.242C141.919 62.9527 142.017 62.71 142.213 62.514C142.409 62.318 142.652 62.22 142.941 62.22C143.221 62.22 143.459 62.318 143.655 62.514C143.851 62.71 143.949 62.9527 143.949 63.242C143.949 63.5313 143.851 63.774 143.655 63.97C143.459 64.166 143.221 64.264 142.941 64.264ZM143.725 65.286V73H142.129V65.286H143.725ZM149.447 73.126C148.719 73.126 148.061 72.9627 147.473 72.636C146.885 72.3 146.423 71.8333 146.087 71.236C145.751 70.6293 145.583 69.9293 145.583 69.136C145.583 68.352 145.755 67.6567 146.101 67.05C146.446 66.4433 146.917 65.9767 147.515 65.65C148.112 65.3233 148.779 65.16 149.517 65.16C150.254 65.16 150.921 65.3233 151.519 65.65C152.116 65.9767 152.587 66.4433 152.933 67.05C153.278 67.6567 153.451 68.352 153.451 69.136C153.451 69.92 153.273 70.6153 152.919 71.222C152.564 71.8287 152.079 72.3 151.463 72.636C150.856 72.9627 150.184 73.126 149.447 73.126ZM149.447 71.74C149.857 71.74 150.24 71.642 150.595 71.446C150.959 71.25 151.253 70.956 151.477 70.564C151.701 70.172 151.813 69.696 151.813 69.136C151.813 68.576 151.705 68.1047 151.491 67.722C151.276 67.33 150.991 67.036 150.637 66.84C150.282 66.644 149.899 66.546 149.489 66.546C149.078 66.546 148.695 66.644 148.341 66.84C147.995 67.036 147.72 67.33 147.515 67.722C147.309 68.1047 147.207 68.576 147.207 69.136C147.207 69.9667 147.417 70.6107 147.837 71.068C148.266 71.516 148.803 71.74 149.447 71.74ZM156.904 62.64V73H155.308V62.64H156.904ZM166.35 68.954C166.35 69.2433 166.331 69.5047 166.294 69.738H160.4C160.447 70.354 160.675 70.8487 161.086 71.222C161.497 71.5953 162.001 71.782 162.598 71.782C163.457 71.782 164.063 71.4227 164.418 70.704H166.14C165.907 71.4133 165.482 71.9967 164.866 72.454C164.259 72.902 163.503 73.126 162.598 73.126C161.861 73.126 161.198 72.9627 160.61 72.636C160.031 72.3 159.574 71.8333 159.238 71.236C158.911 70.6293 158.748 69.9293 158.748 69.136C158.748 68.3427 158.907 67.6473 159.224 67.05C159.551 66.4433 160.003 65.9767 160.582 65.65C161.17 65.3233 161.842 65.16 162.598 65.16C163.326 65.16 163.975 65.3187 164.544 65.636C165.113 65.9533 165.557 66.4013 165.874 66.98C166.191 67.5493 166.35 68.2073 166.35 68.954ZM164.684 68.45C164.675 67.862 164.465 67.3907 164.054 67.036C163.643 66.6813 163.135 66.504 162.528 66.504C161.977 66.504 161.506 66.6813 161.114 67.036C160.722 67.3813 160.489 67.8527 160.414 68.45H164.684ZM162.556 63.536L160.554 64.74V63.494L162.556 62.332L164.558 63.494V64.74L162.556 63.536ZM172.092 65.16C172.699 65.16 173.24 65.286 173.716 65.538C174.202 65.79 174.58 66.1633 174.85 66.658C175.121 67.1527 175.256 67.75 175.256 68.45V73H173.674V68.688C173.674 67.9973 173.502 67.47 173.156 67.106C172.811 66.7327 172.34 66.546 171.742 66.546C171.145 66.546 170.669 66.7327 170.314 67.106C169.969 67.47 169.796 67.9973 169.796 68.688V73H168.2V65.286H169.796V66.168C170.058 65.8507 170.389 65.6033 170.79 65.426C171.201 65.2487 171.635 65.16 172.092 65.16ZM177.04 69.136C177.04 68.3427 177.199 67.6473 177.516 67.05C177.843 66.4433 178.291 65.9767 178.86 65.65C179.43 65.3233 180.083 65.16 180.82 65.16C181.754 65.16 182.524 65.384 183.13 65.832C183.746 66.2707 184.162 66.9007 184.376 67.722H182.654C182.514 67.3393 182.29 67.0407 181.982 66.826C181.674 66.6113 181.287 66.504 180.82 66.504C180.167 66.504 179.644 66.7373 179.252 67.204C178.87 67.6613 178.678 68.3053 178.678 69.136C178.678 69.9667 178.87 70.6153 179.252 71.082C179.644 71.5487 180.167 71.782 180.82 71.782C181.744 71.782 182.356 71.376 182.654 70.564H184.376C184.152 71.348 183.732 71.9733 183.116 72.44C182.5 72.8973 181.735 73.126 180.82 73.126C180.083 73.126 179.43 72.9627 178.86 72.636C178.291 72.3 177.843 71.8333 177.516 71.236C177.199 70.6293 177.04 69.9293 177.04 69.136ZM187.059 64.264C186.769 64.264 186.527 64.166 186.331 63.97C186.135 63.774 186.037 63.5313 186.037 63.242C186.037 62.9527 186.135 62.71 186.331 62.514C186.527 62.318 186.769 62.22 187.059 62.22C187.339 62.22 187.577 62.318 187.773 62.514C187.969 62.71 188.067 62.9527 188.067 63.242C188.067 63.5313 187.969 63.774 187.773 63.97C187.577 64.166 187.339 64.264 187.059 64.264ZM187.843 65.286V73H186.247V65.286H187.843ZM189.686 69.108C189.686 68.3333 189.845 67.6473 190.162 67.05C190.489 66.4527 190.928 65.9907 191.478 65.664C192.038 65.328 192.654 65.16 193.326 65.16C193.933 65.16 194.46 65.2813 194.908 65.524C195.366 65.7573 195.73 66.0513 196 66.406V65.286H197.61V73H196V71.852C195.73 72.216 195.361 72.5193 194.894 72.762C194.428 73.0047 193.896 73.126 193.298 73.126C192.636 73.126 192.029 72.958 191.478 72.622C190.928 72.2767 190.489 71.8007 190.162 71.194C189.845 70.578 189.686 69.8827 189.686 69.108ZM196 69.136C196 68.604 195.888 68.142 195.664 67.75C195.45 67.358 195.165 67.0593 194.81 66.854C194.456 66.6487 194.073 66.546 193.662 66.546C193.252 66.546 192.869 66.6487 192.514 66.854C192.16 67.05 191.87 67.344 191.646 67.736C191.432 68.1187 191.324 68.576 191.324 69.108C191.324 69.64 191.432 70.1067 191.646 70.508C191.87 70.9093 192.16 71.2173 192.514 71.432C192.878 71.6373 193.261 71.74 193.662 71.74C194.073 71.74 194.456 71.6373 194.81 71.432C195.165 71.2267 195.45 70.928 195.664 70.536C195.888 70.1347 196 69.668 196 69.136ZM64.518 90.108C64.518 89.3333 64.6767 88.6473 64.994 88.05C65.3207 87.4527 65.7593 86.9907 66.31 86.664C66.87 86.328 67.4907 86.16 68.172 86.16C68.676 86.16 69.1707 86.272 69.656 86.496C70.1507 86.7107 70.5427 87 70.832 87.364V83.64H72.442V94H70.832V92.838C70.5707 93.2113 70.2067 93.5193 69.74 93.762C69.2827 94.0047 68.7553 94.126 68.158 94.126C67.486 94.126 66.87 93.958 66.31 93.622C65.7593 93.2767 65.3207 92.8007 64.994 92.194C64.6767 91.578 64.518 90.8827 64.518 90.108ZM70.832 90.136C70.832 89.604 70.72 89.142 70.496 88.75C70.2813 88.358 69.9967 88.0593 69.642 87.854C69.2873 87.6487 68.9047 87.546 68.494 87.546C68.0833 87.546 67.7007 87.6487 67.346 87.854C66.9913 88.05 66.702 88.344 66.478 88.736C66.2633 89.1187 66.156 89.576 66.156 90.108C66.156 90.64 66.2633 91.1067 66.478 91.508C66.702 91.9093 66.9913 92.2173 67.346 92.432C67.71 92.6373 68.0927 92.74 68.494 92.74C68.9047 92.74 69.2873 92.6373 69.642 92.432C69.9967 92.2267 70.2813 91.928 70.496 91.536C70.72 91.1347 70.832 90.668 70.832 90.136ZM78.1643 94.126C77.4363 94.126 76.7783 93.9627 76.1903 93.636C75.6023 93.3 75.1403 92.8333 74.8043 92.236C74.4683 91.6293 74.3003 90.9293 74.3003 90.136C74.3003 89.352 74.4729 88.6567 74.8183 88.05C75.1636 87.4433 75.6349 86.9767 76.2323 86.65C76.8296 86.3233 77.4969 86.16 78.2343 86.16C78.9716 86.16 79.6389 86.3233 80.2363 86.65C80.8336 86.9767 81.3049 87.4433 81.6503 88.05C81.9956 88.6567 82.1683 89.352 82.1683 90.136C82.1683 90.92 81.9909 91.6153 81.6363 92.222C81.2816 92.8287 80.7963 93.3 80.1803 93.636C79.5736 93.9627 78.9016 94.126 78.1643 94.126ZM78.1643 92.74C78.5749 92.74 78.9576 92.642 79.3123 92.446C79.6763 92.25 79.9703 91.956 80.1943 91.564C80.4183 91.172 80.5303 90.696 80.5303 90.136C80.5303 89.576 80.4229 89.1047 80.2083 88.722C79.9936 88.33 79.7089 88.036 79.3543 87.84C78.9996 87.644 78.6169 87.546 78.2063 87.546C77.7956 87.546 77.4129 87.644 77.0583 87.84C76.7129 88.036 76.4376 88.33 76.2323 88.722C76.0269 89.1047 75.9243 89.576 75.9243 90.136C75.9243 90.9667 76.1343 91.6107 76.5543 92.068C76.9836 92.516 77.5203 92.74 78.1643 92.74ZM93.364 86.16C93.9707 86.16 94.512 86.286 94.988 86.538C95.4733 86.79 95.8513 87.1633 96.122 87.658C96.402 88.1527 96.542 88.75 96.542 89.45V94H94.96V89.688C94.96 88.9973 94.7873 88.47 94.442 88.106C94.0967 87.7327 93.6253 87.546 93.028 87.546C92.4307 87.546 91.9547 87.7327 91.6 88.106C91.2547 88.47 91.082 88.9973 91.082 89.688V94H89.5V89.688C89.5 88.9973 89.3273 88.47 88.982 88.106C88.6367 87.7327 88.1653 87.546 87.568 87.546C86.9707 87.546 86.4947 87.7327 86.14 88.106C85.7947 88.47 85.622 88.9973 85.622 89.688V94H84.026V86.286H85.622V87.168C85.8833 86.8507 86.2147 86.6033 86.616 86.426C87.0173 86.2487 87.4467 86.16 87.904 86.16C88.52 86.16 89.0707 86.2907 89.556 86.552C90.0413 86.8133 90.4147 87.1913 90.676 87.686C90.9093 87.2193 91.2733 86.8507 91.768 86.58C92.2627 86.3 92.7947 86.16 93.364 86.16ZM105.923 89.954C105.923 90.2433 105.904 90.5047 105.867 90.738H99.9729C100.02 91.354 100.248 91.8487 100.659 92.222C101.07 92.5953 101.574 92.782 102.171 92.782C103.03 92.782 103.636 92.4227 103.991 91.704H105.713C105.48 92.4133 105.055 92.9967 104.439 93.454C103.832 93.902 103.076 94.126 102.171 94.126C101.434 94.126 100.771 93.9627 100.183 93.636C99.6042 93.3 99.1469 92.8333 98.8109 92.236C98.4842 91.6293 98.3209 90.9293 98.3209 90.136C98.3209 89.3427 98.4796 88.6473 98.7969 88.05C99.1236 87.4433 99.5762 86.9767 100.155 86.65C100.743 86.3233 101.415 86.16 102.171 86.16C102.899 86.16 103.548 86.3187 104.117 86.636C104.686 86.9533 105.13 87.4013 105.447 87.98C105.764 88.5493 105.923 89.2073 105.923 89.954ZM104.257 89.45C104.248 88.862 104.038 88.3907 103.627 88.036C103.216 87.6813 102.708 87.504 102.101 87.504C101.55 87.504 101.079 87.6813 100.687 88.036C100.295 88.3813 100.062 88.8527 99.9869 89.45H104.257ZM103.571 84.214L100.477 85.74V84.564L103.571 82.856V84.214ZM110.574 94.126C109.967 94.126 109.421 94.0187 108.936 93.804C108.46 93.58 108.082 93.2813 107.802 92.908C107.522 92.5253 107.372 92.1007 107.354 91.634H109.006C109.034 91.9607 109.188 92.236 109.468 92.46C109.757 92.6747 110.116 92.782 110.546 92.782C110.994 92.782 111.339 92.698 111.582 92.53C111.834 92.3527 111.96 92.1287 111.96 91.858C111.96 91.5687 111.82 91.354 111.54 91.214C111.269 91.074 110.835 90.92 110.238 90.752C109.659 90.5933 109.188 90.4393 108.824 90.29C108.46 90.1407 108.142 89.912 107.872 89.604C107.61 89.296 107.48 88.89 107.48 88.386C107.48 87.9753 107.601 87.602 107.844 87.266C108.086 86.9207 108.432 86.65 108.88 86.454C109.337 86.258 109.86 86.16 110.448 86.16C111.325 86.16 112.03 86.384 112.562 86.832C113.103 87.2707 113.392 87.8727 113.43 88.638H111.834C111.806 88.2927 111.666 88.0173 111.414 87.812C111.162 87.6067 110.821 87.504 110.392 87.504C109.972 87.504 109.65 87.5833 109.426 87.742C109.202 87.9007 109.09 88.1107 109.09 88.372C109.09 88.5773 109.164 88.75 109.314 88.89C109.463 89.03 109.645 89.142 109.86 89.226C110.074 89.3007 110.392 89.3987 110.812 89.52C111.372 89.6693 111.829 89.8233 112.184 89.982C112.548 90.1313 112.86 90.3553 113.122 90.654C113.383 90.9527 113.518 91.3493 113.528 91.844C113.528 92.2827 113.406 92.6747 113.164 93.02C112.921 93.3653 112.576 93.636 112.128 93.832C111.689 94.028 111.171 94.126 110.574 94.126ZM117.394 87.588V91.858C117.394 92.1473 117.459 92.3573 117.59 92.488C117.73 92.6093 117.963 92.67 118.29 92.67H119.27V94H118.01C117.291 94 116.741 93.832 116.358 93.496C115.975 93.16 115.784 92.614 115.784 91.858V87.588H114.874V86.286H115.784V84.368H117.394V86.286H119.27V87.588H117.394ZM121.833 85.264C121.544 85.264 121.301 85.166 121.105 84.97C120.909 84.774 120.811 84.5313 120.811 84.242C120.811 83.9527 120.909 83.71 121.105 83.514C121.301 83.318 121.544 83.22 121.833 83.22C122.113 83.22 122.351 83.318 122.547 83.514C122.743 83.71 122.841 83.9527 122.841 84.242C122.841 84.5313 122.743 84.774 122.547 84.97C122.351 85.166 122.113 85.264 121.833 85.264ZM122.617 86.286V94H121.021V86.286H122.617ZM124.46 90.136C124.46 89.3427 124.619 88.6473 124.936 88.05C125.263 87.4433 125.711 86.9767 126.28 86.65C126.85 86.3233 127.503 86.16 128.24 86.16C129.174 86.16 129.944 86.384 130.55 86.832C131.166 87.2707 131.582 87.9007 131.796 88.722H130.074C129.934 88.3393 129.71 88.0407 129.402 87.826C129.094 87.6113 128.707 87.504 128.24 87.504C127.587 87.504 127.064 87.7373 126.672 88.204C126.29 88.6613 126.098 89.3053 126.098 90.136C126.098 90.9667 126.29 91.6153 126.672 92.082C127.064 92.5487 127.587 92.782 128.24 92.782C129.164 92.782 129.776 92.376 130.074 91.564H131.796C131.572 92.348 131.152 92.9733 130.536 93.44C129.92 93.8973 129.155 94.126 128.24 94.126C127.503 94.126 126.85 93.9627 126.28 93.636C125.711 93.3 125.263 92.8333 124.936 92.236C124.619 91.6293 124.46 90.9293 124.46 90.136ZM133.135 90.108C133.135 89.3333 133.294 88.6473 133.611 88.05C133.938 87.4527 134.376 86.9907 134.927 86.664C135.487 86.328 136.103 86.16 136.775 86.16C137.382 86.16 137.909 86.2813 138.357 86.524C138.814 86.7573 139.178 87.0513 139.449 87.406V86.286H141.059V94H139.449V92.852C139.178 93.216 138.81 93.5193 138.343 93.762C137.876 94.0047 137.344 94.126 136.747 94.126C136.084 94.126 135.478 93.958 134.927 93.622C134.376 93.2767 133.938 92.8007 133.611 92.194C133.294 91.578 133.135 90.8827 133.135 90.108ZM139.449 90.136C139.449 89.604 139.337 89.142 139.113 88.75C138.898 88.358 138.614 88.0593 138.259 87.854C137.904 87.6487 137.522 87.546 137.111 87.546C136.7 87.546 136.318 87.6487 135.963 87.854C135.608 88.05 135.319 88.344 135.095 88.736C134.88 89.1187 134.773 89.576 134.773 90.108C134.773 90.64 134.88 91.1067 135.095 91.508C135.319 91.9093 135.608 92.2173 135.963 92.432C136.327 92.6373 136.71 92.74 137.111 92.74C137.522 92.74 137.904 92.6373 138.259 92.432C138.614 92.2267 138.898 91.928 139.113 91.536C139.337 91.1347 139.449 90.668 139.449 90.136Z" fill="#337066"/>
</svg>
