<svg width="230" height="116" viewBox="0 0 230 116" fill="none" xmlns="http://www.w3.org/2000/svg">
<g opacity="0.8">
<rect width="230" height="116" rx="4" fill="#EDF7ED"/>
<mask id="mask0_657_3125" style="mask-type:alpha" maskUnits="userSpaceOnUse" x="16" y="38" width="40" height="40">
<rect x="16" y="38" width="40" height="40" fill="#D9D9D9"/>
</mask>
<g mask="url(#mask0_657_3125)">
<path d="M30.75 71.3333H41.25C41.3888 71.3333 41.5 71.2989 41.5833 71.23C41.6666 71.16 41.7222 71.0694 41.75 70.9583L43.5 64H28.5L30.25 70.9583C30.2777 71.0694 30.3333 71.16 30.4166 71.23C30.5 71.2989 30.6111 71.3333 30.75 71.3333ZM30.75 73.8333C30.0555 73.8333 29.4372 73.6183 28.895 73.1883C28.3538 72.7572 28 72.2083 27.8333 71.5417L25.9166 64H46.0833L44.1666 71.5417C44 72.2083 43.6455 72.7572 43.1033 73.1883C42.5622 73.6183 41.9444 73.8333 41.25 73.8333H30.75ZM25.1666 61.5H46.875C47.0139 61.5 47.1322 61.4511 47.23 61.3533C47.3266 61.2567 47.375 61.1389 47.375 61V58H24.6666V61C24.6666 61.1389 24.715 61.2567 24.8116 61.3533C24.9094 61.4511 25.0277 61.5 25.1666 61.5ZM36 51.875C36.1111 49.4028 37.035 47.2983 38.7716 45.5617C40.5072 43.8261 42.6111 42.9028 45.0833 42.7917C45 45.0694 44.2155 47.0417 42.73 48.7083C41.2433 50.375 39.4166 51.4028 37.25 51.7917V55.5H49.875V61C49.875 61.8055 49.5833 62.5067 49 63.1033C48.4166 63.7011 47.7083 64 46.875 64H25.1666C24.3333 64 23.625 63.7011 23.0416 63.1033C22.4583 62.5067 22.1666 61.8055 22.1666 61V55.5H34.75V51.7917C32.5833 51.4028 30.7572 50.375 29.2716 48.7083C27.785 47.0417 27 45.0694 26.9166 42.7917C29.3888 42.9028 31.4933 43.8261 33.23 45.5617C34.9655 47.2983 35.8889 49.4028 36 51.875Z" fill="#337066"/>
</g>
<path d="M75.298 41.27V51H73.702V44.336L70.734 51H69.628L66.646 44.336V51H65.05V41.27H66.772L70.188 48.9L73.59 41.27H75.298ZM77.1437 47.108C77.1437 46.3333 77.3024 45.6473 77.6197 45.05C77.9464 44.4527 78.385 43.9907 78.9357 43.664C79.4957 43.328 80.1117 43.16 80.7837 43.16C81.3904 43.16 81.9177 43.2813 82.3657 43.524C82.823 43.7573 83.187 44.0513 83.4577 44.406V43.286H85.0677V51H83.4577V49.852C83.187 50.216 82.8184 50.5193 82.3517 50.762C81.885 51.0047 81.353 51.126 80.7557 51.126C80.093 51.126 79.4864 50.958 78.9357 50.622C78.385 50.2767 77.9464 49.8007 77.6197 49.194C77.3024 48.578 77.1437 47.8827 77.1437 47.108ZM83.4577 47.136C83.4577 46.604 83.3457 46.142 83.1217 45.75C82.907 45.358 82.6224 45.0593 82.2677 44.854C81.913 44.6487 81.5304 44.546 81.1197 44.546C80.709 44.546 80.3264 44.6487 79.9717 44.854C79.617 45.05 79.3277 45.344 79.1037 45.736C78.889 46.1187 78.7817 46.576 78.7817 47.108C78.7817 47.64 78.889 48.1067 79.1037 48.508C79.3277 48.9093 79.617 49.2173 79.9717 49.432C80.3357 49.6373 80.7184 49.74 81.1197 49.74C81.5304 49.74 81.913 49.6373 82.2677 49.432C82.6224 49.2267 82.907 48.928 83.1217 48.536C83.3457 48.1347 83.4577 47.668 83.4577 47.136ZM88.256 42.264C87.9667 42.264 87.724 42.166 87.528 41.97C87.332 41.774 87.234 41.5313 87.234 41.242C87.234 40.9527 87.332 40.71 87.528 40.514C87.724 40.318 87.9667 40.22 88.256 40.22C88.536 40.22 88.774 40.318 88.97 40.514C89.166 40.71 89.264 40.9527 89.264 41.242C89.264 41.5313 89.166 41.774 88.97 41.97C88.774 42.166 88.536 42.264 88.256 42.264ZM89.04 43.286V51H87.444V43.286H89.04ZM94.2154 51.126C93.6087 51.126 93.0627 51.0187 92.5774 50.804C92.1014 50.58 91.7234 50.2813 91.4434 49.908C91.1634 49.5253 91.0141 49.1007 90.9954 48.634H92.6474C92.6754 48.9607 92.8294 49.236 93.1094 49.46C93.3987 49.6747 93.7581 49.782 94.1874 49.782C94.6354 49.782 94.9807 49.698 95.2234 49.53C95.4754 49.3527 95.6014 49.1287 95.6014 48.858C95.6014 48.5687 95.4614 48.354 95.1814 48.214C94.9107 48.074 94.4767 47.92 93.8794 47.752C93.3007 47.5933 92.8294 47.4393 92.4654 47.29C92.1014 47.1407 91.7841 46.912 91.5134 46.604C91.2521 46.296 91.1214 45.89 91.1214 45.386C91.1214 44.9753 91.2427 44.602 91.4854 44.266C91.7281 43.9207 92.0734 43.65 92.5214 43.454C92.9787 43.258 93.5014 43.16 94.0894 43.16C94.9667 43.16 95.6714 43.384 96.2034 43.832C96.7447 44.2707 97.0341 44.8727 97.0714 45.638H95.4754C95.4474 45.2927 95.3074 45.0173 95.0554 44.812C94.8034 44.6067 94.4627 44.504 94.0334 44.504C93.6134 44.504 93.2914 44.5833 93.0674 44.742C92.8434 44.9007 92.7314 45.1107 92.7314 45.372C92.7314 45.5773 92.8061 45.75 92.9554 45.89C93.1047 46.03 93.2867 46.142 93.5014 46.226C93.7161 46.3007 94.0334 46.3987 94.4534 46.52C95.0134 46.6693 95.4707 46.8233 95.8254 46.982C96.1894 47.1313 96.5021 47.3553 96.7634 47.654C97.0247 47.9527 97.1601 48.3493 97.1694 48.844C97.1694 49.2827 97.0481 49.6747 96.8054 50.02C96.5627 50.3653 96.2174 50.636 95.7694 50.832C95.3307 51.028 94.8127 51.126 94.2154 51.126ZM102.559 47.136C102.559 46.3427 102.717 45.6473 103.035 45.05C103.361 44.4433 103.809 43.9767 104.379 43.65C104.948 43.3233 105.601 43.16 106.339 43.16C107.272 43.16 108.042 43.384 108.649 43.832C109.265 44.2707 109.68 44.9007 109.895 45.722H108.173C108.033 45.3393 107.809 45.0407 107.501 44.826C107.193 44.6113 106.805 44.504 106.339 44.504C105.685 44.504 105.163 44.7373 104.771 45.204C104.388 45.6613 104.197 46.3053 104.197 47.136C104.197 47.9667 104.388 48.6153 104.771 49.082C105.163 49.5487 105.685 49.782 106.339 49.782C107.263 49.782 107.874 49.376 108.173 48.564H109.895C109.671 49.348 109.251 49.9733 108.635 50.44C108.019 50.8973 107.253 51.126 106.339 51.126C105.601 51.126 104.948 50.9627 104.379 50.636C103.809 50.3 103.361 49.8333 103.035 49.236C102.717 48.6293 102.559 47.9293 102.559 47.136ZM115.111 51.126C114.383 51.126 113.725 50.9627 113.137 50.636C112.549 50.3 112.087 49.8333 111.751 49.236C111.415 48.6293 111.247 47.9293 111.247 47.136C111.247 46.352 111.42 45.6567 111.765 45.05C112.11 44.4433 112.582 43.9767 113.179 43.65C113.776 43.3233 114.444 43.16 115.181 43.16C115.918 43.16 116.586 43.3233 117.183 43.65C117.78 43.9767 118.252 44.4433 118.597 45.05C118.942 45.6567 119.115 46.352 119.115 47.136C119.115 47.92 118.938 48.6153 118.583 49.222C118.228 49.8287 117.743 50.3 117.127 50.636C116.52 50.9627 115.848 51.126 115.111 51.126ZM115.111 49.74C115.522 49.74 115.904 49.642 116.259 49.446C116.623 49.25 116.917 48.956 117.141 48.564C117.365 48.172 117.477 47.696 117.477 47.136C117.477 46.576 117.37 46.1047 117.155 45.722C116.94 45.33 116.656 45.036 116.301 44.84C115.946 44.644 115.564 44.546 115.153 44.546C114.742 44.546 114.36 44.644 114.005 44.84C113.66 45.036 113.384 45.33 113.179 45.722C112.974 46.1047 112.871 46.576 112.871 47.136C112.871 47.9667 113.081 48.6107 113.501 49.068C113.93 49.516 114.467 49.74 115.111 49.74ZM124.865 43.16C125.472 43.16 126.013 43.286 126.489 43.538C126.974 43.79 127.352 44.1633 127.623 44.658C127.894 45.1527 128.029 45.75 128.029 46.45V51H126.447V46.688C126.447 45.9973 126.274 45.47 125.929 45.106C125.584 44.7327 125.112 44.546 124.515 44.546C123.918 44.546 123.442 44.7327 123.087 45.106C122.742 45.47 122.569 45.9973 122.569 46.688V51H120.973V43.286H122.569V44.168C122.83 43.8507 123.162 43.6033 123.563 43.426C123.974 43.2487 124.408 43.16 124.865 43.16ZM132.207 44.588V48.858C132.207 49.1473 132.272 49.3573 132.403 49.488C132.543 49.6093 132.776 49.67 133.103 49.67H134.083V51H132.823C132.104 51 131.553 50.832 131.171 50.496C130.788 50.16 130.597 49.614 130.597 48.858V44.588H129.687V43.286H130.597V41.368H132.207V43.286H134.083V44.588H132.207ZM142.904 46.954C142.904 47.2433 142.885 47.5047 142.848 47.738H136.954C137 48.354 137.229 48.8487 137.64 49.222C138.05 49.5953 138.554 49.782 139.152 49.782C140.01 49.782 140.617 49.4227 140.972 48.704H142.694C142.46 49.4133 142.036 49.9967 141.42 50.454C140.813 50.902 140.057 51.126 139.152 51.126C138.414 51.126 137.752 50.9627 137.164 50.636C136.585 50.3 136.128 49.8333 135.792 49.236C135.465 48.6293 135.302 47.9293 135.302 47.136C135.302 46.3427 135.46 45.6473 135.778 45.05C136.104 44.4433 136.557 43.9767 137.136 43.65C137.724 43.3233 138.396 43.16 139.152 43.16C139.88 43.16 140.528 43.3187 141.098 43.636C141.667 43.9533 142.11 44.4013 142.428 44.98C142.745 45.5493 142.904 46.2073 142.904 46.954ZM141.238 46.45C141.228 45.862 141.018 45.3907 140.608 45.036C140.197 44.6813 139.688 44.504 139.082 44.504C138.531 44.504 138.06 44.6813 137.668 45.036C137.276 45.3813 137.042 45.8527 136.968 46.45H141.238ZM151.74 43.286V51H150.144V50.09C149.892 50.4073 149.561 50.6593 149.15 50.846C148.749 51.0233 148.32 51.112 147.862 51.112C147.256 51.112 146.71 50.986 146.224 50.734C145.748 50.482 145.37 50.1087 145.09 49.614C144.82 49.1193 144.684 48.522 144.684 47.822V43.286H146.266V47.584C146.266 48.2747 146.439 48.8067 146.784 49.18C147.13 49.544 147.601 49.726 148.198 49.726C148.796 49.726 149.267 49.544 149.612 49.18C149.967 48.8067 150.144 48.2747 150.144 47.584V43.286H151.74ZM149.696 41.214L146.602 42.74V41.564L149.696 39.856V41.214ZM153.594 47.108C153.594 46.3333 153.753 45.6473 154.07 45.05C154.397 44.4527 154.835 43.9907 155.386 43.664C155.946 43.328 156.567 43.16 157.248 43.16C157.752 43.16 158.247 43.272 158.732 43.496C159.227 43.7107 159.619 44 159.908 44.364V40.64H161.518V51H159.908V49.838C159.647 50.2113 159.283 50.5193 158.816 50.762C158.359 51.0047 157.831 51.126 157.234 51.126C156.562 51.126 155.946 50.958 155.386 50.622C154.835 50.2767 154.397 49.8007 154.07 49.194C153.753 48.578 153.594 47.8827 153.594 47.108ZM159.908 47.136C159.908 46.604 159.796 46.142 159.572 45.75C159.357 45.358 159.073 45.0593 158.718 44.854C158.363 44.6487 157.981 44.546 157.57 44.546C157.159 44.546 156.777 44.6487 156.422 44.854C156.067 45.05 155.778 45.344 155.554 45.736C155.339 46.1187 155.232 46.576 155.232 47.108C155.232 47.64 155.339 48.1067 155.554 48.508C155.778 48.9093 156.067 49.2173 156.422 49.432C156.786 49.6373 157.169 49.74 157.57 49.74C157.981 49.74 158.363 49.6373 158.718 49.432C159.073 49.2267 159.357 48.928 159.572 48.536C159.796 48.1347 159.908 47.668 159.908 47.136ZM167.24 51.126C166.512 51.126 165.854 50.9627 165.266 50.636C164.678 50.3 164.216 49.8333 163.88 49.236C163.544 48.6293 163.376 47.9293 163.376 47.136C163.376 46.352 163.549 45.6567 163.894 45.05C164.24 44.4433 164.711 43.9767 165.308 43.65C165.906 43.3233 166.573 43.16 167.31 43.16C168.048 43.16 168.715 43.3233 169.312 43.65C169.91 43.9767 170.381 44.4433 170.726 45.05C171.072 45.6567 171.244 46.352 171.244 47.136C171.244 47.92 171.067 48.6153 170.712 49.222C170.358 49.8287 169.872 50.3 169.256 50.636C168.65 50.9627 167.978 51.126 167.24 51.126ZM167.24 49.74C167.651 49.74 168.034 49.642 168.388 49.446C168.752 49.25 169.046 48.956 169.27 48.564C169.494 48.172 169.606 47.696 169.606 47.136C169.606 46.576 169.499 46.1047 169.284 45.722C169.07 45.33 168.785 45.036 168.43 44.84C168.076 44.644 167.693 44.546 167.282 44.546C166.872 44.546 166.489 44.644 166.134 44.84C165.789 45.036 165.514 45.33 165.308 45.722C165.103 46.1047 165 46.576 165 47.136C165 47.9667 165.21 48.6107 165.63 49.068C166.06 49.516 166.596 49.74 167.24 49.74ZM175.902 51.126C175.295 51.126 174.749 51.0187 174.264 50.804C173.788 50.58 173.41 50.2813 173.13 49.908C172.85 49.5253 172.701 49.1007 172.682 48.634H174.334C174.362 48.9607 174.516 49.236 174.796 49.46C175.085 49.6747 175.445 49.782 175.874 49.782C176.322 49.782 176.667 49.698 176.91 49.53C177.162 49.3527 177.288 49.1287 177.288 48.858C177.288 48.5687 177.148 48.354 176.868 48.214C176.597 48.074 176.163 47.92 175.566 47.752C174.987 47.5933 174.516 47.4393 174.152 47.29C173.788 47.1407 173.471 46.912 173.2 46.604C172.939 46.296 172.808 45.89 172.808 45.386C172.808 44.9753 172.929 44.602 173.172 44.266C173.415 43.9207 173.76 43.65 174.208 43.454C174.665 43.258 175.188 43.16 175.776 43.16C176.653 43.16 177.358 43.384 177.89 43.832C178.431 44.2707 178.721 44.8727 178.758 45.638H177.162C177.134 45.2927 176.994 45.0173 176.742 44.812C176.49 44.6067 176.149 44.504 175.72 44.504C175.3 44.504 174.978 44.5833 174.754 44.742C174.53 44.9007 174.418 45.1107 174.418 45.372C174.418 45.5773 174.493 45.75 174.642 45.89C174.791 46.03 174.973 46.142 175.188 46.226C175.403 46.3007 175.72 46.3987 176.14 46.52C176.7 46.6693 177.157 46.8233 177.512 46.982C177.876 47.1313 178.189 47.3553 178.45 47.654C178.711 47.9527 178.847 48.3493 178.856 48.844C178.856 49.2827 178.735 49.6747 178.492 50.02C178.249 50.3653 177.904 50.636 177.456 50.832C177.017 51.028 176.499 51.126 175.902 51.126ZM72.12 69.954C72.12 70.2433 72.1013 70.5047 72.064 70.738H66.17C66.2167 71.354 66.4453 71.8487 66.856 72.222C67.2667 72.5953 67.7707 72.782 68.368 72.782C69.2267 72.782 69.8333 72.4227 70.188 71.704H71.91C71.6767 72.4133 71.252 72.9967 70.636 73.454C70.0293 73.902 69.2733 74.126 68.368 74.126C67.6307 74.126 66.968 73.9627 66.38 73.636C65.8013 73.3 65.344 72.8333 65.008 72.236C64.6813 71.6293 64.518 70.9293 64.518 70.136C64.518 69.3427 64.6767 68.6473 64.994 68.05C65.3207 67.4433 65.7733 66.9767 66.352 66.65C66.94 66.3233 67.612 66.16 68.368 66.16C69.096 66.16 69.7447 66.3187 70.314 66.636C70.8833 66.9533 71.3267 67.4013 71.644 67.98C71.9613 68.5493 72.12 69.2073 72.12 69.954ZM70.454 69.45C70.4447 68.862 70.2347 68.3907 69.824 68.036C69.4133 67.6813 68.9047 67.504 68.298 67.504C67.7473 67.504 67.276 67.6813 66.884 68.036C66.492 68.3813 66.2587 68.8527 66.184 69.45H70.454ZM83.3086 66.16C83.9153 66.16 84.4566 66.286 84.9326 66.538C85.418 66.79 85.796 67.1633 86.0666 67.658C86.3466 68.1527 86.4866 68.75 86.4866 69.45V74H84.9046V69.688C84.9046 68.9973 84.732 68.47 84.3866 68.106C84.0413 67.7327 83.57 67.546 82.9726 67.546C82.3753 67.546 81.8993 67.7327 81.5446 68.106C81.1993 68.47 81.0266 68.9973 81.0266 69.688V74H79.4446V69.688C79.4446 68.9973 79.272 68.47 78.9266 68.106C78.5813 67.7327 78.11 67.546 77.5126 67.546C76.9153 67.546 76.4393 67.7327 76.0846 68.106C75.7393 68.47 75.5666 68.9973 75.5666 69.688V74H73.9706V66.286H75.5666V67.168C75.828 66.8507 76.1593 66.6033 76.5606 66.426C76.962 66.2487 77.3913 66.16 77.8486 66.16C78.4646 66.16 79.0153 66.2907 79.5006 66.552C79.986 66.8133 80.3593 67.1913 80.6206 67.686C80.854 67.2193 81.218 66.8507 81.7126 66.58C82.2073 66.3 82.7393 66.16 83.3086 66.16ZM94.3102 67.434C94.5809 67.0607 94.9496 66.7573 95.4162 66.524C95.8922 66.2813 96.4196 66.16 96.9982 66.16C97.6796 66.16 98.2956 66.3233 98.8462 66.65C99.3969 66.9767 99.8309 67.4433 100.148 68.05C100.466 68.6473 100.624 69.3333 100.624 70.108C100.624 70.8827 100.466 71.578 100.148 72.194C99.8309 72.8007 99.3922 73.2767 98.8322 73.622C98.2816 73.958 97.6702 74.126 96.9982 74.126C96.4009 74.126 95.8689 74.0093 95.4022 73.776C94.9449 73.5427 94.5809 73.244 94.3102 72.88V74H92.7142V63.64H94.3102V67.434ZM99.0002 70.108C99.0002 69.576 98.8882 69.1187 98.6642 68.736C98.4496 68.344 98.1602 68.05 97.7962 67.854C97.4416 67.6487 97.0589 67.546 96.6482 67.546C96.2469 67.546 95.8642 67.6487 95.5002 67.854C95.1456 68.0593 94.8562 68.358 94.6322 68.75C94.4176 69.142 94.3102 69.604 94.3102 70.136C94.3102 70.668 94.4176 71.1347 94.6322 71.536C94.8562 71.928 95.1456 72.2267 95.5002 72.432C95.8642 72.6373 96.2469 72.74 96.6482 72.74C97.0589 72.74 97.4416 72.6373 97.7962 72.432C98.1602 72.2173 98.4496 71.9093 98.6642 71.508C98.8882 71.1067 99.0002 70.64 99.0002 70.108ZM104.078 67.406C104.312 67.014 104.62 66.7107 105.002 66.496C105.394 66.272 105.856 66.16 106.388 66.16V67.812H105.982C105.357 67.812 104.881 67.9707 104.554 68.288C104.237 68.6053 104.078 69.156 104.078 69.94V74H102.482V66.286H104.078V67.406ZM115.206 69.954C115.206 70.2433 115.187 70.5047 115.15 70.738H109.256C109.302 71.354 109.531 71.8487 109.942 72.222C110.352 72.5953 110.856 72.782 111.454 72.782C112.312 72.782 112.919 72.4227 113.274 71.704H114.996C114.762 72.4133 114.338 72.9967 113.722 73.454C113.115 73.902 112.359 74.126 111.454 74.126C110.716 74.126 110.054 73.9627 109.466 73.636C108.887 73.3 108.43 72.8333 108.094 72.236C107.767 71.6293 107.604 70.9293 107.604 70.136C107.604 69.3427 107.762 68.6473 108.08 68.05C108.406 67.4433 108.859 66.9767 109.438 66.65C110.026 66.3233 110.698 66.16 111.454 66.16C112.182 66.16 112.83 66.3187 113.4 66.636C113.969 66.9533 114.412 67.4013 114.73 67.98C115.047 68.5493 115.206 69.2073 115.206 69.954ZM113.54 69.45C113.53 68.862 113.32 68.3907 112.91 68.036C112.499 67.6813 111.99 67.504 111.384 67.504C110.833 67.504 110.362 67.6813 109.97 68.036C109.578 68.3813 109.344 68.8527 109.27 69.45H113.54ZM120.038 72.572L122.222 66.286H123.916L120.976 74H119.072L116.146 66.286H117.854L120.038 72.572ZM132.473 69.954C132.473 70.2433 132.454 70.5047 132.417 70.738H126.523C126.569 71.354 126.798 71.8487 127.209 72.222C127.619 72.5953 128.123 72.782 128.721 72.782C129.579 72.782 130.186 72.4227 130.541 71.704H132.263C132.029 72.4133 131.605 72.9967 130.989 73.454C130.382 73.902 129.626 74.126 128.721 74.126C127.983 74.126 127.321 73.9627 126.733 73.636C126.154 73.3 125.697 72.8333 125.361 72.236C125.034 71.6293 124.871 70.9293 124.871 70.136C124.871 69.3427 125.029 68.6473 125.347 68.05C125.673 67.4433 126.126 66.9767 126.705 66.65C127.293 66.3233 127.965 66.16 128.721 66.16C129.449 66.16 130.097 66.3187 130.667 66.636C131.236 66.9533 131.679 67.4013 131.997 67.98C132.314 68.5493 132.473 69.2073 132.473 69.954ZM130.807 69.45C130.797 68.862 130.587 68.3907 130.177 68.036C129.766 67.6813 129.257 67.504 128.651 67.504C128.1 67.504 127.629 67.6813 127.237 68.036C126.845 68.3813 126.611 68.8527 126.537 69.45H130.807ZM134.967 74.098C134.678 74.098 134.435 74 134.239 73.804C134.043 73.608 133.945 73.3653 133.945 73.076C133.945 72.7867 134.043 72.544 134.239 72.348C134.435 72.152 134.678 72.054 134.967 72.054C135.247 72.054 135.485 72.152 135.681 72.348C135.877 72.544 135.975 72.7867 135.975 73.076C135.975 73.3653 135.877 73.608 135.681 73.804C135.485 74 135.247 74.098 134.967 74.098ZM138.624 74.098C138.335 74.098 138.092 74 137.896 73.804C137.7 73.608 137.602 73.3653 137.602 73.076C137.602 72.7867 137.7 72.544 137.896 72.348C138.092 72.152 138.335 72.054 138.624 72.054C138.904 72.054 139.142 72.152 139.338 72.348C139.534 72.544 139.632 72.7867 139.632 73.076C139.632 73.3653 139.534 73.608 139.338 73.804C139.142 74 138.904 74.098 138.624 74.098ZM142.281 74.098C141.992 74.098 141.749 74 141.553 73.804C141.357 73.608 141.259 73.3653 141.259 73.076C141.259 72.7867 141.357 72.544 141.553 72.348C141.749 72.152 141.992 72.054 142.281 72.054C142.561 72.054 142.799 72.152 142.995 72.348C143.191 72.544 143.289 72.7867 143.289 73.076C143.289 73.3653 143.191 73.608 142.995 73.804C142.799 74 142.561 74.098 142.281 74.098Z" fill="#337066"/>
</g>
</svg>
