<svg width="50" height="50" viewBox="0 0 50 50" fill="none" xmlns="http://www.w3.org/2000/svg">
<path d="M16.4583 42.7083H33.5416V36.0937C33.5416 33.6632 32.717 31.5711 31.0677 29.8177C29.4184 28.0642 27.3958 27.1875 25 27.1875C22.6041 27.1875 20.5816 28.0642 18.9323 29.8177C17.283 31.5711 16.4583 33.6632 16.4583 36.0937V42.7083ZM8.33331 45.8333V42.7083H13.3333V36.0937C13.3333 33.6632 13.967 31.4323 15.2344 29.401C16.5017 27.3698 18.2639 25.9027 20.5208 25C18.2639 24.0972 16.5017 22.6215 15.2344 20.5729C13.967 18.5243 13.3333 16.2847 13.3333 13.8541V7.29163H8.33331V4.16663H41.6666V7.29163H36.6666V13.8541C36.6666 16.2847 36.0243 18.5243 34.7396 20.5729C33.4548 22.6215 31.7014 24.0972 29.4791 25C31.7361 25.9027 33.4982 27.3698 34.7656 29.401C36.033 31.4323 36.6666 33.6632 36.6666 36.0937V42.7083H41.6666V45.8333H8.33331Z" fill="#337066"/>
</svg>
