<svg width="100" height="100" viewBox="0 0 100 100" fill="none" xmlns="http://www.w3.org/2000/svg">
<circle cx="50" cy="50" r="50" fill="#D3EBD3"/>
<path d="M41.458 67.7083H58.5413V61.0937C58.5413 58.6632 57.7167 56.5711 56.0674 54.8177C54.4181 53.0642 52.3955 52.1875 49.9997 52.1875C47.6038 52.1875 45.5813 53.0642 43.932 54.8177C42.2827 56.5711 41.458 58.6632 41.458 61.0937V67.7083ZM33.333 70.8333V67.7083H38.333V61.0937C38.333 58.6632 38.9667 56.4323 40.234 54.401C41.5014 52.3698 43.2636 50.9027 45.5205 50C43.2636 49.0972 41.5014 47.6215 40.234 45.5729C38.9667 43.5243 38.333 41.2847 38.333 38.8541V32.2916H33.333V29.1666H66.6663V32.2916H61.6663V38.8541C61.6663 41.2847 61.024 43.5243 59.7393 45.5729C58.4545 47.6215 56.7011 49.0972 54.4788 50C56.7358 50.9027 58.4979 52.3698 59.7653 54.401C61.0327 56.4323 61.6663 58.6632 61.6663 61.0937V67.7083H66.6663V70.8333H33.333Z" fill="#337066"/>
</svg>
