<svg width="312" height="312" viewBox="0 0 312 312" fill="none" xmlns="http://www.w3.org/2000/svg">
<rect width="312" height="44" fill="white"/>
<path d="M17.79 23.0469H19.3213L22.1992 30.7236L25.0703 23.0469H26.6016L22.8008 33H21.584L17.79 23.0469ZM17.0928 23.0469H18.5488L18.8018 29.6914V33H17.0928V23.0469ZM25.8428 23.0469H27.3057V33H25.5898V29.6914L25.8428 23.0469ZM34.5918 24.373L31.6182 33H29.8203L33.5664 23.0469H34.7148L34.5918 24.373ZM37.0801 33L34.0996 24.373L33.9697 23.0469H35.125L38.8848 33H37.0801ZM36.9365 29.3086V30.6689H31.5225V29.3086H36.9365ZM41.249 23.0469H44.7695C45.526 23.0469 46.1709 23.1608 46.7041 23.3887C47.2373 23.6165 47.6452 23.9538 47.9277 24.4004C48.2148 24.8424 48.3584 25.3893 48.3584 26.041C48.3584 26.5378 48.2673 26.9753 48.085 27.3535C47.9027 27.7318 47.6452 28.0508 47.3125 28.3105C46.9798 28.5658 46.5833 28.764 46.123 28.9053L45.6035 29.1582H42.4385L42.4248 27.7979H44.7969C45.207 27.7979 45.5488 27.7249 45.8223 27.5791C46.0957 27.4333 46.3008 27.235 46.4375 26.9844C46.5788 26.7292 46.6494 26.4421 46.6494 26.123C46.6494 25.7767 46.5811 25.4759 46.4443 25.2207C46.3122 24.9609 46.1071 24.7627 45.8291 24.626C45.5511 24.4847 45.1979 24.4141 44.7695 24.4141H42.9648V33H41.249V23.0469ZM46.9297 33L44.5918 28.5293L46.3896 28.5225L48.7617 32.9111V33H46.9297ZM57.1963 29.7598H58.9053C58.8506 30.4115 58.6683 30.9925 58.3584 31.5029C58.0485 32.0088 57.6133 32.4076 57.0527 32.6992C56.4922 32.9909 55.8109 33.1367 55.0088 33.1367C54.3936 33.1367 53.8398 33.0273 53.3477 32.8086C52.8555 32.5853 52.4339 32.2708 52.083 31.8652C51.7321 31.4551 51.4632 30.9606 51.2764 30.3818C51.0941 29.8031 51.0029 29.1559 51.0029 28.4404V27.6133C51.0029 26.8978 51.0964 26.2507 51.2832 25.6719C51.4746 25.0931 51.748 24.5986 52.1035 24.1885C52.459 23.7738 52.8851 23.457 53.3818 23.2383C53.8831 23.0195 54.446 22.9102 55.0703 22.9102C55.8633 22.9102 56.5332 23.056 57.0801 23.3477C57.627 23.6393 58.0508 24.0426 58.3516 24.5576C58.6569 25.0726 58.8438 25.6628 58.9121 26.3281H57.2031C57.1576 25.8997 57.0573 25.5329 56.9023 25.2275C56.752 24.9222 56.5286 24.6898 56.2324 24.5303C55.9362 24.3662 55.5488 24.2842 55.0703 24.2842C54.6784 24.2842 54.3366 24.3571 54.0449 24.5029C53.7533 24.6488 53.5094 24.863 53.3135 25.1455C53.1175 25.4281 52.9694 25.7767 52.8691 26.1914C52.7734 26.6016 52.7256 27.071 52.7256 27.5996V28.4404C52.7256 28.9417 52.7689 29.3975 52.8555 29.8076C52.9466 30.2132 53.0833 30.5618 53.2656 30.8535C53.4525 31.1452 53.6895 31.3708 53.9766 31.5303C54.2637 31.6898 54.6077 31.7695 55.0088 31.7695C55.4964 31.7695 55.8906 31.6921 56.1914 31.5371C56.4967 31.3822 56.7269 31.1566 56.8818 30.8604C57.0413 30.5596 57.1462 30.1927 57.1963 29.7598ZM54.3936 33.0137H55.6172L55.5352 33.3965C55.7949 33.4421 56.0319 33.5514 56.2461 33.7246C56.4648 33.9023 56.5742 34.1872 56.5742 34.5791C56.5742 34.8115 56.5264 35.0212 56.4307 35.208C56.335 35.3949 56.1914 35.5544 56 35.6865C55.8132 35.8232 55.5785 35.9281 55.2959 36.001C55.0179 36.0739 54.6943 36.1104 54.3252 36.1104L54.2773 35.1807C54.4551 35.1807 54.6146 35.1579 54.7559 35.1123C54.8971 35.0713 55.0088 35.0052 55.0908 34.9141C55.1774 34.8229 55.2207 34.7044 55.2207 34.5586C55.2207 34.4173 55.1842 34.3079 55.1113 34.2305C55.0384 34.153 54.9245 34.0938 54.7695 34.0527C54.6191 34.0117 54.4232 33.9821 54.1816 33.9639L54.3936 33.0137ZM69.6504 27.75V28.2969C69.6504 29.0488 69.5524 29.7233 69.3564 30.3203C69.1605 30.9173 68.8802 31.4255 68.5156 31.8447C68.1556 32.264 67.7227 32.5853 67.2168 32.8086C66.7109 33.0273 66.1504 33.1367 65.5352 33.1367C64.9245 33.1367 64.3662 33.0273 63.8604 32.8086C63.359 32.5853 62.9238 32.264 62.5547 31.8447C62.1855 31.4255 61.8984 30.9173 61.6934 30.3203C61.4928 29.7233 61.3926 29.0488 61.3926 28.2969V27.75C61.3926 26.998 61.4928 26.3258 61.6934 25.7334C61.8939 25.1364 62.1764 24.6283 62.541 24.209C62.9102 23.7852 63.3454 23.4639 63.8467 23.2451C64.3525 23.0218 64.9108 22.9102 65.5215 22.9102C66.1367 22.9102 66.6973 23.0218 67.2031 23.2451C67.709 23.4639 68.1442 23.7852 68.5088 24.209C68.8734 24.6283 69.1536 25.1364 69.3496 25.7334C69.5501 26.3258 69.6504 26.998 69.6504 27.75ZM67.9346 28.2969V27.7363C67.9346 27.1803 67.8799 26.6904 67.7705 26.2666C67.6657 25.8382 67.5085 25.4805 67.2988 25.1934C67.0938 24.9017 66.8408 24.6829 66.54 24.5371C66.2393 24.3867 65.8997 24.3115 65.5215 24.3115C65.1432 24.3115 64.806 24.3867 64.5098 24.5371C64.2135 24.6829 63.9606 24.9017 63.751 25.1934C63.5459 25.4805 63.3887 25.8382 63.2793 26.2666C63.1699 26.6904 63.1152 27.1803 63.1152 27.7363V28.2969C63.1152 28.8529 63.1699 29.3451 63.2793 29.7734C63.3887 30.2018 63.5482 30.5641 63.7578 30.8604C63.972 31.152 64.2272 31.373 64.5234 31.5234C64.8197 31.6693 65.1569 31.7422 65.5352 31.7422C65.918 31.7422 66.2575 31.6693 66.5537 31.5234C66.8499 31.373 67.1006 31.152 67.3057 30.8604C67.5107 30.5641 67.6657 30.2018 67.7705 29.7734C67.8799 29.3451 67.9346 28.8529 67.9346 28.2969ZM83.7646 31.6875V33H77.0928V31.8721L80.333 28.3379C80.6885 27.9368 80.9688 27.5905 81.1738 27.2988C81.3789 27.0072 81.5225 26.7451 81.6045 26.5127C81.6911 26.2757 81.7344 26.0456 81.7344 25.8223C81.7344 25.5078 81.6751 25.2321 81.5566 24.9951C81.4427 24.7536 81.2741 24.5645 81.0508 24.4277C80.8275 24.2865 80.5563 24.2158 80.2373 24.2158C79.8682 24.2158 79.5583 24.2956 79.3076 24.4551C79.057 24.6146 78.8678 24.8356 78.7402 25.1182C78.6126 25.3962 78.5488 25.7152 78.5488 26.0752H76.9014C76.9014 25.4964 77.0335 24.9678 77.2979 24.4893C77.5622 24.0062 77.945 23.6234 78.4463 23.3408C78.9476 23.0537 79.5514 22.9102 80.2578 22.9102C80.9232 22.9102 81.4883 23.0218 81.9531 23.2451C82.418 23.4684 82.7712 23.7852 83.0127 24.1953C83.2588 24.6055 83.3818 25.0908 83.3818 25.6514C83.3818 25.9613 83.3317 26.2689 83.2314 26.5742C83.1312 26.8796 82.9876 27.1849 82.8008 27.4902C82.6185 27.791 82.402 28.0941 82.1514 28.3994C81.9007 28.7002 81.625 29.0055 81.3242 29.3154L79.1709 31.6875H83.7646ZM92.7871 27.1895V28.8164C92.7871 29.5957 92.7096 30.2611 92.5547 30.8125C92.4043 31.3594 92.1855 31.8037 91.8984 32.1455C91.6113 32.4873 91.2673 32.738 90.8662 32.8975C90.4697 33.057 90.0254 33.1367 89.5332 33.1367C89.1413 33.1367 88.7767 33.0866 88.4395 32.9863C88.1068 32.8861 87.806 32.7288 87.5371 32.5146C87.2682 32.3005 87.0381 32.0247 86.8467 31.6875C86.6598 31.3457 86.514 30.9378 86.4092 30.4639C86.3089 29.9899 86.2588 29.4408 86.2588 28.8164V27.1895C86.2588 26.4056 86.3363 25.7448 86.4912 25.207C86.6462 24.6647 86.8672 24.2249 87.1543 23.8877C87.4414 23.5459 87.7832 23.2975 88.1797 23.1426C88.5807 22.9876 89.0273 22.9102 89.5195 22.9102C89.916 22.9102 90.2806 22.9603 90.6133 23.0605C90.9505 23.1562 91.2513 23.3089 91.5156 23.5186C91.7845 23.7282 92.0124 24.0016 92.1992 24.3389C92.3906 24.6715 92.5365 25.0749 92.6367 25.5488C92.737 26.0182 92.7871 26.5651 92.7871 27.1895ZM91.1396 29.0488V26.9434C91.1396 26.5469 91.1169 26.1982 91.0713 25.8975C91.0257 25.5921 90.9574 25.3346 90.8662 25.125C90.7796 24.9108 90.6702 24.7376 90.5381 24.6055C90.4059 24.4688 90.2555 24.3708 90.0869 24.3115C89.9183 24.2477 89.7292 24.2158 89.5195 24.2158C89.2643 24.2158 89.0365 24.266 88.8359 24.3662C88.6354 24.4619 88.4668 24.6169 88.3301 24.8311C88.1934 25.0452 88.0885 25.3278 88.0156 25.6787C87.9473 26.0251 87.9131 26.4466 87.9131 26.9434V29.0488C87.9131 29.4499 87.9359 29.8031 87.9814 30.1084C88.027 30.4137 88.0954 30.6758 88.1865 30.8945C88.2777 31.1087 88.387 31.2865 88.5146 31.4277C88.6468 31.5645 88.7972 31.6647 88.9658 31.7285C89.139 31.7923 89.3281 31.8242 89.5332 31.8242C89.793 31.8242 90.0231 31.7741 90.2236 31.6738C90.4242 31.5736 90.5928 31.4141 90.7295 31.1953C90.8662 30.972 90.9688 30.6826 91.0371 30.3271C91.1055 29.9717 91.1396 29.5456 91.1396 29.0488ZM102.179 31.6875V33H95.5068V31.8721L98.7471 28.3379C99.1025 27.9368 99.3828 27.5905 99.5879 27.2988C99.793 27.0072 99.9365 26.7451 100.019 26.5127C100.105 26.2757 100.148 26.0456 100.148 25.8223C100.148 25.5078 100.089 25.2321 99.9707 24.9951C99.8568 24.7536 99.6882 24.5645 99.4648 24.4277C99.2415 24.2865 98.9704 24.2158 98.6514 24.2158C98.2822 24.2158 97.9723 24.2956 97.7217 24.4551C97.471 24.6146 97.2819 24.8356 97.1543 25.1182C97.0267 25.3962 96.9629 25.7152 96.9629 26.0752H95.3154C95.3154 25.4964 95.4476 24.9678 95.7119 24.4893C95.9762 24.0062 96.359 23.6234 96.8604 23.3408C97.3617 23.0537 97.9655 22.9102 98.6719 22.9102C99.3372 22.9102 99.9023 23.0218 100.367 23.2451C100.832 23.4684 101.185 23.7852 101.427 24.1953C101.673 24.6055 101.796 25.0908 101.796 25.6514C101.796 25.9613 101.746 26.2689 101.646 26.5742C101.545 26.8796 101.402 27.1849 101.215 27.4902C101.033 27.791 100.816 28.0941 100.565 28.3994C100.315 28.7002 100.039 29.0055 99.7383 29.3154L97.585 31.6875H102.179ZM109.212 23.0127V33H107.564V24.9678L105.124 25.7949V24.4346L109.014 23.0127H109.212Z" fill="black" fill-opacity="0.87"/>
<path d="M122.656 26.6562H129.344L126 30L122.656 26.6562Z" fill="black" fill-opacity="0.87"/>
<path d="M248.422 23.4062L243.828 28L248.422 32.5938L247.016 34L241.016 28L247.016 22L248.422 23.4062Z" fill="black" fill-opacity="0.38"/>
<path d="M290.984 22L296.984 28L290.984 34L289.578 32.5938L294.172 28L289.578 23.4062L290.984 22Z" fill="black" fill-opacity="0.38"/>
<path d="M0 44H312V307C312 309.761 309.761 312 307 312H5.00001C2.23858 312 0 309.761 0 307V44Z" fill="white"/>
<path d="M31.9746 62.8438C31.9746 62.6445 31.9434 62.4688 31.8809 62.3164C31.8223 62.1602 31.7168 62.0195 31.5645 61.8945C31.416 61.7695 31.209 61.6504 30.9434 61.5371C30.6816 61.4238 30.3496 61.3086 29.9473 61.1914C29.5254 61.0664 29.1445 60.9277 28.8047 60.7754C28.4648 60.6191 28.1738 60.4414 27.9316 60.2422C27.6895 60.043 27.5039 59.8145 27.375 59.5566C27.2461 59.2988 27.1816 59.0039 27.1816 58.6719C27.1816 58.3398 27.25 58.0332 27.3867 57.752C27.5234 57.4707 27.7188 57.2266 27.9727 57.0195C28.2305 56.8086 28.5371 56.6445 28.8926 56.5273C29.248 56.4102 29.6445 56.3516 30.082 56.3516C30.7227 56.3516 31.2656 56.4746 31.7109 56.7207C32.1602 56.9629 32.502 57.2812 32.7363 57.6758C32.9707 58.0664 33.0879 58.4844 33.0879 58.9297H31.9629C31.9629 58.6094 31.8945 58.3262 31.7578 58.0801C31.6211 57.8301 31.4141 57.6348 31.1367 57.4941C30.8594 57.3496 30.5078 57.2773 30.082 57.2773C29.6797 57.2773 29.3477 57.3379 29.0859 57.459C28.8242 57.5801 28.6289 57.7441 28.5 57.9512C28.375 58.1582 28.3125 58.3945 28.3125 58.6602C28.3125 58.8398 28.3496 59.0039 28.4238 59.1523C28.502 59.2969 28.6211 59.4316 28.7812 59.5566C28.9453 59.6816 29.1523 59.7969 29.4023 59.9023C29.6562 60.0078 29.959 60.1094 30.3105 60.207C30.7949 60.3438 31.2129 60.4961 31.5645 60.6641C31.916 60.832 32.2051 61.0215 32.4316 61.2324C32.6621 61.4395 32.832 61.6758 32.9414 61.9414C33.0547 62.2031 33.1113 62.5 33.1113 62.832C33.1113 63.1797 33.041 63.4941 32.9004 63.7754C32.7598 64.0566 32.5586 64.2969 32.2969 64.4961C32.0352 64.6953 31.7207 64.8496 31.3535 64.959C30.9902 65.0645 30.584 65.1172 30.1348 65.1172C29.7402 65.1172 29.3516 65.0625 28.9688 64.9531C28.5898 64.8438 28.2441 64.6797 27.9316 64.4609C27.623 64.2422 27.375 63.9727 27.1875 63.6523C27.0039 63.3281 26.9121 62.9531 26.9121 62.5273H28.0371C28.0371 62.8203 28.0938 63.0723 28.207 63.2832C28.3203 63.4902 28.4746 63.6621 28.6699 63.7988C28.8691 63.9355 29.0938 64.0371 29.3438 64.1035C29.5977 64.166 29.8613 64.1973 30.1348 64.1973C30.5293 64.1973 30.8633 64.1426 31.1367 64.0332C31.4102 63.9238 31.6172 63.7676 31.7578 63.5645C31.9023 63.3613 31.9746 63.1211 31.9746 62.8438Z" fill="black" fill-opacity="0.38"/>
<path d="M68.1094 56.4688H69.2051L72 63.4238L74.7891 56.4688H75.8906L72.4219 65H71.5664L68.1094 56.4688ZM67.752 56.4688H68.7188L68.877 61.6719V65H67.752V56.4688ZM75.2754 56.4688H76.2422V65H75.1172V61.6719L75.2754 56.4688Z" fill="black" fill-opacity="0.38"/>
<path d="M114.562 56.4688V65H113.449V56.4688H114.562ZM117.305 56.4688V57.3945H110.713V56.4688H117.305Z" fill="black" fill-opacity="0.38"/>
<path d="M153.908 62.4219L155.602 56.4688H156.422L155.947 58.7832L154.125 65H153.311L153.908 62.4219ZM152.156 56.4688L153.504 62.3047L153.908 65H153.1L151.031 56.4688H152.156ZM158.613 62.2988L159.932 56.4688H161.062L159 65H158.191L158.613 62.2988ZM156.545 56.4688L158.191 62.4219L158.789 65H157.975L156.217 58.7832L155.736 56.4688H156.545Z" fill="black" fill-opacity="0.38"/>
<path d="M198.562 56.4688V65H197.449V56.4688H198.562ZM201.305 56.4688V57.3945H194.713V56.4688H201.305Z" fill="black" fill-opacity="0.38"/>
<path d="M238.805 56.4688V65H237.674V56.4688H238.805ZM242.379 60.3066V61.2324H238.559V60.3066H242.379ZM242.959 56.4688V57.3945H238.559V56.4688H242.959Z" fill="black" fill-opacity="0.38"/>
<path d="M283.975 62.8438C283.975 62.6445 283.943 62.4688 283.881 62.3164C283.822 62.1602 283.717 62.0195 283.564 61.8945C283.416 61.7695 283.209 61.6504 282.943 61.5371C282.682 61.4238 282.35 61.3086 281.947 61.1914C281.525 61.0664 281.145 60.9277 280.805 60.7754C280.465 60.6191 280.174 60.4414 279.932 60.2422C279.689 60.043 279.504 59.8145 279.375 59.5566C279.246 59.2988 279.182 59.0039 279.182 58.6719C279.182 58.3398 279.25 58.0332 279.387 57.752C279.523 57.4707 279.719 57.2266 279.973 57.0195C280.23 56.8086 280.537 56.6445 280.893 56.5273C281.248 56.4102 281.645 56.3516 282.082 56.3516C282.723 56.3516 283.266 56.4746 283.711 56.7207C284.16 56.9629 284.502 57.2812 284.736 57.6758C284.971 58.0664 285.088 58.4844 285.088 58.9297H283.963C283.963 58.6094 283.895 58.3262 283.758 58.0801C283.621 57.8301 283.414 57.6348 283.137 57.4941C282.859 57.3496 282.508 57.2773 282.082 57.2773C281.68 57.2773 281.348 57.3379 281.086 57.459C280.824 57.5801 280.629 57.7441 280.5 57.9512C280.375 58.1582 280.312 58.3945 280.312 58.6602C280.312 58.8398 280.35 59.0039 280.424 59.1523C280.502 59.2969 280.621 59.4316 280.781 59.5566C280.945 59.6816 281.152 59.7969 281.402 59.9023C281.656 60.0078 281.959 60.1094 282.311 60.207C282.795 60.3438 283.213 60.4961 283.564 60.6641C283.916 60.832 284.205 61.0215 284.432 61.2324C284.662 61.4395 284.832 61.6758 284.941 61.9414C285.055 62.2031 285.111 62.5 285.111 62.832C285.111 63.1797 285.041 63.4941 284.9 63.7754C284.76 64.0566 284.559 64.2969 284.297 64.4961C284.035 64.6953 283.721 64.8496 283.354 64.959C282.99 65.0645 282.584 65.1172 282.135 65.1172C281.74 65.1172 281.352 65.0625 280.969 64.9531C280.59 64.8438 280.244 64.6797 279.932 64.4609C279.623 64.2422 279.375 63.9727 279.188 63.6523C279.004 63.3281 278.912 62.9531 278.912 62.5273H280.037C280.037 62.8203 280.094 63.0723 280.207 63.2832C280.32 63.4902 280.475 63.6621 280.67 63.7988C280.869 63.9355 281.094 64.0371 281.344 64.1035C281.598 64.166 281.861 64.1973 282.135 64.1973C282.529 64.1973 282.863 64.1426 283.137 64.0332C283.41 63.9238 283.617 63.7676 283.758 63.5645C283.902 63.3613 283.975 63.1211 283.975 62.8438Z" fill="black" fill-opacity="0.38"/>
<path d="M72.8965 100.822V109.4H71.8125V102.175L69.627 102.972V101.994L72.7266 100.822H72.8965Z" fill="black" fill-opacity="0.87"/>
<path d="M116.924 108.509V109.4H111.34V108.621L114.135 105.509C114.479 105.126 114.744 104.802 114.932 104.537C115.123 104.267 115.256 104.027 115.33 103.816C115.408 103.601 115.447 103.382 115.447 103.16C115.447 102.878 115.389 102.625 115.271 102.398C115.158 102.167 114.99 101.984 114.768 101.847C114.545 101.71 114.275 101.642 113.959 101.642C113.58 101.642 113.264 101.716 113.01 101.865C112.76 102.009 112.572 102.212 112.447 102.474C112.322 102.736 112.26 103.037 112.26 103.376H111.176C111.176 102.896 111.281 102.457 111.492 102.058C111.703 101.66 112.016 101.343 112.43 101.109C112.844 100.871 113.354 100.751 113.959 100.751C114.498 100.751 114.959 100.847 115.342 101.039C115.725 101.226 116.018 101.492 116.221 101.835C116.428 102.175 116.531 102.574 116.531 103.031C116.531 103.281 116.488 103.535 116.402 103.792C116.32 104.046 116.205 104.3 116.057 104.554C115.912 104.808 115.742 105.058 115.547 105.304C115.355 105.55 115.15 105.792 114.932 106.031L112.646 108.509H116.924Z" fill="black" fill-opacity="0.87"/>
<path d="M154.916 104.601H155.689C156.068 104.601 156.381 104.539 156.627 104.414C156.877 104.285 157.062 104.111 157.184 103.892C157.309 103.669 157.371 103.419 157.371 103.142C157.371 102.814 157.316 102.539 157.207 102.316C157.098 102.093 156.934 101.925 156.715 101.812C156.496 101.699 156.219 101.642 155.883 101.642C155.578 101.642 155.309 101.703 155.074 101.824C154.844 101.941 154.662 102.109 154.529 102.328C154.4 102.546 154.336 102.804 154.336 103.101H153.252C153.252 102.667 153.361 102.273 153.58 101.917C153.799 101.562 154.105 101.279 154.5 101.068C154.898 100.857 155.359 100.751 155.883 100.751C156.398 100.751 156.85 100.843 157.236 101.027C157.623 101.207 157.924 101.476 158.139 101.835C158.354 102.191 158.461 102.634 158.461 103.166C158.461 103.38 158.41 103.611 158.309 103.857C158.211 104.099 158.057 104.326 157.846 104.537C157.639 104.748 157.369 104.921 157.037 105.058C156.705 105.191 156.307 105.257 155.842 105.257H154.916V104.601ZM154.916 105.492V104.841H155.842C156.385 104.841 156.834 104.906 157.189 105.035C157.545 105.164 157.824 105.335 158.027 105.55C158.234 105.765 158.379 106.001 158.461 106.259C158.547 106.513 158.59 106.767 158.59 107.021C158.59 107.419 158.521 107.773 158.385 108.082C158.252 108.39 158.062 108.652 157.816 108.867C157.574 109.082 157.289 109.244 156.961 109.353C156.633 109.462 156.275 109.517 155.889 109.517C155.518 109.517 155.168 109.464 154.84 109.359C154.516 109.253 154.229 109.101 153.979 108.902C153.729 108.699 153.533 108.451 153.393 108.158C153.252 107.861 153.182 107.523 153.182 107.144H154.266C154.266 107.441 154.33 107.701 154.459 107.923C154.592 108.146 154.779 108.32 155.021 108.445C155.268 108.566 155.557 108.626 155.889 108.626C156.221 108.626 156.506 108.57 156.744 108.457C156.986 108.339 157.172 108.164 157.301 107.929C157.434 107.695 157.5 107.4 157.5 107.044C157.5 106.689 157.426 106.398 157.277 106.171C157.129 105.941 156.918 105.771 156.645 105.662C156.375 105.548 156.057 105.492 155.689 105.492H154.916Z" fill="#A2A2A2"/>
<path d="M156 120.4C147.716 120.4 141 113.684 141 105.4H139C139 114.789 146.611 122.4 156 122.4V120.4ZM171 105.4C171 113.684 164.284 120.4 156 120.4V122.4C165.389 122.4 173 114.789 173 105.4H171ZM156 90.3999C164.284 90.3999 171 97.1156 171 105.4H173C173 96.0111 165.389 88.3999 156 88.3999V90.3999ZM156 88.3999C146.611 88.3999 139 96.0111 139 105.4H141C141 97.1156 147.716 90.3999 156 90.3999V88.3999Z" fill="#A2A2A2"/>
<path d="M201.1 106.529V107.419H194.936V106.781L198.756 100.869H199.641L198.691 102.58L196.166 106.529H201.1ZM199.91 100.869V109.4H198.826V100.869H199.91Z" fill="black" fill-opacity="0.87"/>
<path d="M238.705 105.339L237.838 105.117L238.266 100.869H242.643V101.871H239.186L238.928 104.191C239.084 104.101 239.281 104.017 239.52 103.939C239.762 103.861 240.039 103.822 240.352 103.822C240.746 103.822 241.1 103.89 241.412 104.027C241.725 104.16 241.99 104.351 242.209 104.601C242.432 104.851 242.602 105.152 242.719 105.503C242.836 105.855 242.895 106.248 242.895 106.681C242.895 107.091 242.838 107.468 242.725 107.812C242.615 108.156 242.449 108.457 242.227 108.714C242.004 108.968 241.723 109.166 241.383 109.306C241.047 109.447 240.65 109.517 240.193 109.517C239.85 109.517 239.523 109.47 239.215 109.376C238.91 109.279 238.637 109.132 238.395 108.937C238.156 108.738 237.961 108.492 237.809 108.199C237.66 107.902 237.566 107.554 237.527 107.156H238.559C238.605 107.476 238.699 107.746 238.84 107.964C238.98 108.183 239.164 108.349 239.391 108.462C239.621 108.572 239.889 108.626 240.193 108.626C240.451 108.626 240.68 108.582 240.879 108.492C241.078 108.402 241.246 108.273 241.383 108.105C241.52 107.937 241.623 107.734 241.693 107.496C241.768 107.257 241.805 106.99 241.805 106.693C241.805 106.423 241.768 106.173 241.693 105.943C241.619 105.712 241.508 105.511 241.359 105.339C241.215 105.167 241.037 105.035 240.826 104.941C240.615 104.843 240.373 104.794 240.1 104.794C239.736 104.794 239.461 104.843 239.273 104.941C239.09 105.039 238.9 105.171 238.705 105.339Z" fill="black" fill-opacity="0.87"/>
<path d="M283.494 100.857H283.588V101.777H283.494C282.92 101.777 282.439 101.871 282.053 102.058C281.666 102.242 281.359 102.49 281.133 102.802C280.906 103.111 280.742 103.458 280.641 103.845C280.543 104.232 280.494 104.625 280.494 105.023V106.277C280.494 106.656 280.539 106.992 280.629 107.285C280.719 107.574 280.842 107.818 280.998 108.017C281.154 108.216 281.33 108.367 281.525 108.468C281.725 108.57 281.932 108.621 282.146 108.621C282.396 108.621 282.619 108.574 282.814 108.48C283.01 108.382 283.174 108.248 283.307 108.076C283.443 107.9 283.547 107.693 283.617 107.455C283.688 107.216 283.723 106.955 283.723 106.669C283.723 106.416 283.691 106.171 283.629 105.937C283.566 105.699 283.471 105.488 283.342 105.304C283.213 105.117 283.051 104.97 282.855 104.865C282.664 104.755 282.436 104.701 282.17 104.701C281.869 104.701 281.588 104.775 281.326 104.923C281.068 105.068 280.855 105.259 280.688 105.498C280.523 105.732 280.43 105.988 280.406 106.265L279.832 106.259C279.887 105.822 279.988 105.449 280.137 105.14C280.289 104.828 280.477 104.574 280.699 104.378C280.926 104.179 281.178 104.035 281.455 103.945C281.736 103.851 282.033 103.804 282.346 103.804C282.771 103.804 283.139 103.884 283.447 104.044C283.756 104.205 284.01 104.419 284.209 104.689C284.408 104.955 284.555 105.255 284.648 105.591C284.746 105.923 284.795 106.265 284.795 106.617C284.795 107.019 284.738 107.396 284.625 107.748C284.512 108.099 284.342 108.408 284.115 108.673C283.893 108.939 283.617 109.146 283.289 109.294C282.961 109.443 282.58 109.517 282.146 109.517C281.686 109.517 281.283 109.423 280.939 109.236C280.596 109.044 280.311 108.791 280.084 108.474C279.857 108.158 279.688 107.806 279.574 107.419C279.461 107.033 279.404 106.64 279.404 106.242V105.732C279.404 105.13 279.465 104.541 279.586 103.962C279.707 103.384 279.916 102.861 280.213 102.392C280.514 101.923 280.93 101.55 281.461 101.273C281.992 100.996 282.67 100.857 283.494 100.857Z" fill="black" fill-opacity="0.87"/>
<path d="M32.8477 145.269V145.878L29.3145 153.8H28.1719L31.6992 146.159H27.082V145.269H32.8477Z" fill="black" fill-opacity="0.87"/>
<path d="M74.7129 151.491C74.7129 152.011 74.5918 152.452 74.3496 152.816C74.1113 153.175 73.7871 153.448 73.377 153.636C72.9707 153.823 72.5117 153.917 72 153.917C71.4883 153.917 71.0273 153.823 70.6172 153.636C70.207 153.448 69.8828 153.175 69.6445 152.816C69.4062 152.452 69.2871 152.011 69.2871 151.491C69.2871 151.152 69.3516 150.841 69.4805 150.56C69.6133 150.275 69.7988 150.027 70.0371 149.816C70.2793 149.605 70.5645 149.443 70.8926 149.329C71.2246 149.212 71.5898 149.154 71.9883 149.154C72.5117 149.154 72.9785 149.255 73.3887 149.458C73.7988 149.657 74.1211 149.933 74.3555 150.284C74.5938 150.636 74.7129 151.038 74.7129 151.491ZM73.623 151.468C73.623 151.152 73.5547 150.872 73.418 150.63C73.2812 150.384 73.0898 150.193 72.8438 150.056C72.5977 149.919 72.3125 149.851 71.9883 149.851C71.6562 149.851 71.3691 149.919 71.127 150.056C70.8887 150.193 70.7031 150.384 70.5703 150.63C70.4375 150.872 70.3711 151.152 70.3711 151.468C70.3711 151.796 70.4355 152.077 70.5645 152.312C70.6973 152.542 70.8848 152.72 71.127 152.845C71.373 152.966 71.6641 153.027 72 153.027C72.3359 153.027 72.625 152.966 72.8672 152.845C73.1094 152.72 73.2949 152.542 73.4238 152.312C73.5566 152.077 73.623 151.796 73.623 151.468ZM74.5137 147.49C74.5137 147.904 74.4043 148.277 74.1855 148.609C73.9668 148.941 73.668 149.202 73.2891 149.394C72.9102 149.585 72.4805 149.681 72 149.681C71.5117 149.681 71.0762 149.585 70.6934 149.394C70.3145 149.202 70.0176 148.941 69.8027 148.609C69.5879 148.277 69.4805 147.904 69.4805 147.49C69.4805 146.993 69.5879 146.572 69.8027 146.224C70.0215 145.876 70.3203 145.611 70.6992 145.427C71.0781 145.243 71.5098 145.152 71.9941 145.152C72.4824 145.152 72.916 145.243 73.2949 145.427C73.6738 145.611 73.9707 145.876 74.1855 146.224C74.4043 146.572 74.5137 146.993 74.5137 147.49ZM73.4297 147.507C73.4297 147.222 73.3691 146.97 73.248 146.751C73.127 146.532 72.959 146.361 72.7441 146.236C72.5293 146.107 72.2793 146.042 71.9941 146.042C71.709 146.042 71.459 146.103 71.2441 146.224C71.0332 146.341 70.8672 146.509 70.7461 146.728C70.6289 146.947 70.5703 147.206 70.5703 147.507C70.5703 147.8 70.6289 148.056 70.7461 148.275C70.8672 148.493 71.0352 148.663 71.25 148.784C71.4648 148.906 71.7148 148.966 72 148.966C72.2852 148.966 72.5332 148.906 72.7441 148.784C72.959 148.663 73.127 148.493 73.248 148.275C73.3691 148.056 73.4297 147.8 73.4297 147.507Z" fill="black" fill-opacity="0.87"/>
<path d="M112.412 152.892H112.523C113.148 152.892 113.656 152.804 114.047 152.628C114.438 152.452 114.738 152.216 114.949 151.919C115.16 151.622 115.305 151.288 115.383 150.917C115.461 150.542 115.5 150.157 115.5 149.763V148.456C115.5 148.07 115.455 147.726 115.365 147.425C115.279 147.124 115.158 146.872 115.002 146.669C114.85 146.466 114.676 146.312 114.48 146.206C114.285 146.101 114.078 146.048 113.859 146.048C113.609 146.048 113.385 146.099 113.186 146.2C112.99 146.298 112.824 146.437 112.688 146.616C112.555 146.796 112.453 147.007 112.383 147.249C112.312 147.491 112.277 147.755 112.277 148.04C112.277 148.294 112.309 148.54 112.371 148.779C112.434 149.017 112.529 149.232 112.658 149.423C112.787 149.615 112.947 149.767 113.139 149.88C113.334 149.99 113.562 150.044 113.824 150.044C114.066 150.044 114.293 149.997 114.504 149.904C114.719 149.806 114.908 149.675 115.072 149.511C115.24 149.343 115.373 149.154 115.471 148.943C115.572 148.732 115.631 148.511 115.646 148.281H116.162C116.162 148.605 116.098 148.925 115.969 149.241C115.844 149.554 115.668 149.839 115.441 150.097C115.215 150.355 114.949 150.562 114.645 150.718C114.34 150.87 114.008 150.947 113.648 150.947C113.227 150.947 112.861 150.865 112.553 150.7C112.244 150.536 111.99 150.318 111.791 150.044C111.596 149.771 111.449 149.466 111.352 149.13C111.258 148.79 111.211 148.447 111.211 148.099C111.211 147.693 111.268 147.312 111.381 146.956C111.494 146.601 111.662 146.288 111.885 146.019C112.107 145.745 112.383 145.532 112.711 145.38C113.043 145.228 113.426 145.152 113.859 145.152C114.348 145.152 114.764 145.249 115.107 145.445C115.451 145.64 115.73 145.902 115.945 146.23C116.164 146.558 116.324 146.927 116.426 147.337C116.527 147.747 116.578 148.169 116.578 148.603V148.995C116.578 149.437 116.549 149.886 116.49 150.343C116.436 150.796 116.328 151.23 116.168 151.644C116.012 152.058 115.783 152.429 115.482 152.757C115.182 153.081 114.789 153.339 114.305 153.531C113.824 153.718 113.23 153.812 112.523 153.812H112.412V152.892Z" fill="black" fill-opacity="0.87"/>
<path d="M153.521 145.222V153.8H152.438V146.575L150.252 147.372V146.394L153.352 145.222H153.521ZM162.064 148.855V150.156C162.064 150.855 162.002 151.445 161.877 151.925C161.752 152.406 161.572 152.792 161.338 153.085C161.104 153.378 160.82 153.591 160.488 153.724C160.16 153.853 159.789 153.917 159.375 153.917C159.047 153.917 158.744 153.876 158.467 153.794C158.189 153.712 157.939 153.581 157.717 153.402C157.498 153.218 157.311 152.98 157.154 152.687C156.998 152.394 156.879 152.038 156.797 151.62C156.715 151.202 156.674 150.714 156.674 150.156V148.855C156.674 148.156 156.736 147.57 156.861 147.097C156.99 146.624 157.172 146.245 157.406 145.96C157.641 145.671 157.922 145.464 158.25 145.339C158.582 145.214 158.953 145.152 159.363 145.152C159.695 145.152 160 145.193 160.277 145.275C160.559 145.353 160.809 145.48 161.027 145.656C161.246 145.827 161.432 146.058 161.584 146.347C161.74 146.632 161.859 146.982 161.941 147.396C162.023 147.81 162.064 148.296 162.064 148.855ZM160.975 150.331V148.673C160.975 148.29 160.951 147.954 160.904 147.665C160.861 147.372 160.797 147.122 160.711 146.915C160.625 146.708 160.516 146.54 160.383 146.411C160.254 146.282 160.104 146.189 159.932 146.13C159.764 146.068 159.574 146.036 159.363 146.036C159.105 146.036 158.877 146.085 158.678 146.183C158.479 146.277 158.311 146.427 158.174 146.634C158.041 146.841 157.939 147.113 157.869 147.448C157.799 147.784 157.764 148.193 157.764 148.673V150.331C157.764 150.714 157.785 151.052 157.828 151.345C157.875 151.638 157.943 151.892 158.033 152.107C158.123 152.318 158.232 152.491 158.361 152.628C158.49 152.765 158.639 152.866 158.807 152.933C158.979 152.995 159.168 153.027 159.375 153.027C159.641 153.027 159.873 152.976 160.072 152.874C160.271 152.773 160.438 152.615 160.57 152.4C160.707 152.181 160.809 151.902 160.875 151.562C160.941 151.218 160.975 150.808 160.975 150.331Z" fill="black" fill-opacity="0.87"/>
<path d="M195.521 145.222V153.8H194.438V146.575L192.252 147.372V146.394L195.352 145.222H195.521ZM202.271 145.222V153.8H201.188V146.575L199.002 147.372V146.394L202.102 145.222H202.271Z" fill="black" fill-opacity="0.87"/>
<path d="M237.521 145.222V153.8H236.438V146.575L234.252 147.372V146.394L237.352 145.222H237.521ZM246.299 152.909V153.8H240.715V153.021L243.51 149.909C243.854 149.527 244.119 149.202 244.307 148.937C244.498 148.667 244.631 148.427 244.705 148.216C244.783 148.001 244.822 147.782 244.822 147.56C244.822 147.279 244.764 147.025 244.646 146.798C244.533 146.568 244.365 146.384 244.143 146.247C243.92 146.111 243.65 146.042 243.334 146.042C242.955 146.042 242.639 146.116 242.385 146.265C242.135 146.409 241.947 146.613 241.822 146.874C241.697 147.136 241.635 147.437 241.635 147.777H240.551C240.551 147.296 240.656 146.857 240.867 146.458C241.078 146.06 241.391 145.743 241.805 145.509C242.219 145.271 242.729 145.152 243.334 145.152C243.873 145.152 244.334 145.247 244.717 145.439C245.1 145.626 245.393 145.892 245.596 146.236C245.803 146.575 245.906 146.974 245.906 147.431C245.906 147.681 245.863 147.935 245.777 148.193C245.695 148.447 245.58 148.7 245.432 148.954C245.287 149.208 245.117 149.458 244.922 149.704C244.73 149.95 244.525 150.193 244.307 150.431L242.021 152.909H246.299Z" fill="black" fill-opacity="0.87"/>
<path d="M266 149.8C266 140.963 273.163 133.8 282 133.8V133.8C290.837 133.8 298 140.963 298 149.8V149.8C298 158.637 290.837 165.8 282 165.8V165.8C273.163 165.8 266 158.637 266 149.8V149.8Z" fill="#A2A2A2"/>
<path d="M279.521 145.222V153.8H278.438V146.575L276.252 147.372V146.394L279.352 145.222H279.521ZM284.291 149.001H285.064C285.443 149.001 285.756 148.939 286.002 148.814C286.252 148.685 286.438 148.511 286.559 148.292C286.684 148.07 286.746 147.82 286.746 147.542C286.746 147.214 286.691 146.939 286.582 146.716C286.473 146.493 286.309 146.325 286.09 146.212C285.871 146.099 285.594 146.042 285.258 146.042C284.953 146.042 284.684 146.103 284.449 146.224C284.219 146.341 284.037 146.509 283.904 146.728C283.775 146.947 283.711 147.204 283.711 147.501H282.627C282.627 147.068 282.736 146.673 282.955 146.318C283.174 145.962 283.48 145.679 283.875 145.468C284.273 145.257 284.734 145.152 285.258 145.152C285.773 145.152 286.225 145.243 286.611 145.427C286.998 145.607 287.299 145.876 287.514 146.236C287.729 146.591 287.836 147.034 287.836 147.566C287.836 147.781 287.785 148.011 287.684 148.257C287.586 148.499 287.432 148.726 287.221 148.937C287.014 149.148 286.744 149.322 286.412 149.458C286.08 149.591 285.682 149.657 285.217 149.657H284.291V149.001ZM284.291 149.892V149.241H285.217C285.76 149.241 286.209 149.306 286.564 149.435C286.92 149.564 287.199 149.736 287.402 149.95C287.609 150.165 287.754 150.402 287.836 150.659C287.922 150.913 287.965 151.167 287.965 151.421C287.965 151.82 287.896 152.173 287.76 152.482C287.627 152.79 287.438 153.052 287.191 153.267C286.949 153.482 286.664 153.644 286.336 153.753C286.008 153.863 285.65 153.917 285.264 153.917C284.893 153.917 284.543 153.865 284.215 153.759C283.891 153.654 283.604 153.501 283.354 153.302C283.104 153.099 282.908 152.851 282.768 152.558C282.627 152.261 282.557 151.923 282.557 151.544H283.641C283.641 151.841 283.705 152.101 283.834 152.323C283.967 152.546 284.154 152.72 284.396 152.845C284.643 152.966 284.932 153.027 285.264 153.027C285.596 153.027 285.881 152.97 286.119 152.857C286.361 152.74 286.547 152.564 286.676 152.329C286.809 152.095 286.875 151.8 286.875 151.445C286.875 151.089 286.801 150.798 286.652 150.572C286.504 150.341 286.293 150.171 286.02 150.062C285.75 149.948 285.432 149.892 285.064 149.892H284.291Z" fill="white"/>
<path d="M27.5215 189.622V198.2H26.4375V190.975L24.252 191.772V190.794L27.3516 189.622H27.5215ZM36.4746 195.329V196.219H30.3105V195.581L34.1309 189.669H35.0156L34.0664 191.38L31.541 195.329H36.4746ZM35.2852 189.669V198.2H34.2012V189.669H35.2852Z" fill="black" fill-opacity="0.87"/>
<path d="M69.5215 189.622V198.2H68.4375V190.975L66.252 191.772V190.794L69.3516 189.622H69.5215ZM74.0801 194.139L73.2129 193.917L73.6406 189.669H78.0176V190.671H74.5605L74.3027 192.991C74.459 192.901 74.6562 192.817 74.8945 192.739C75.1367 192.661 75.4141 192.622 75.7266 192.622C76.1211 192.622 76.4746 192.69 76.7871 192.827C77.0996 192.96 77.3652 193.151 77.584 193.401C77.8066 193.651 77.9766 193.952 78.0938 194.303C78.2109 194.655 78.2695 195.048 78.2695 195.481C78.2695 195.891 78.2129 196.268 78.0996 196.612C77.9902 196.956 77.8242 197.257 77.6016 197.514C77.3789 197.768 77.0977 197.966 76.7578 198.106C76.4219 198.247 76.0254 198.317 75.5684 198.317C75.2246 198.317 74.8984 198.27 74.5898 198.177C74.2852 198.079 74.0117 197.932 73.7695 197.737C73.5312 197.538 73.3359 197.292 73.1836 196.999C73.0352 196.702 72.9414 196.354 72.9023 195.956H73.9336C73.9805 196.276 74.0742 196.546 74.2148 196.764C74.3555 196.983 74.5391 197.149 74.7656 197.262C74.9961 197.372 75.2637 197.427 75.5684 197.427C75.8262 197.427 76.0547 197.382 76.2539 197.292C76.4531 197.202 76.6211 197.073 76.7578 196.905C76.8945 196.737 76.998 196.534 77.0684 196.296C77.1426 196.057 77.1797 195.79 77.1797 195.493C77.1797 195.223 77.1426 194.973 77.0684 194.743C76.9941 194.512 76.8828 194.311 76.7344 194.139C76.5898 193.968 76.4121 193.835 76.2012 193.741C75.9902 193.643 75.748 193.594 75.4746 193.594C75.1113 193.594 74.8359 193.643 74.6484 193.741C74.4648 193.839 74.2754 193.971 74.0801 194.139Z" fill="black" fill-opacity="0.87"/>
<path d="M111.521 189.622V198.2H110.438V190.975L108.252 191.772V190.794L111.352 189.622H111.521ZM118.869 189.657H118.963V190.577H118.869C118.295 190.577 117.814 190.671 117.428 190.858C117.041 191.042 116.734 191.29 116.508 191.602C116.281 191.911 116.117 192.259 116.016 192.645C115.918 193.032 115.869 193.425 115.869 193.823V195.077C115.869 195.456 115.914 195.792 116.004 196.085C116.094 196.374 116.217 196.618 116.373 196.817C116.529 197.016 116.705 197.167 116.9 197.268C117.1 197.37 117.307 197.421 117.521 197.421C117.771 197.421 117.994 197.374 118.189 197.28C118.385 197.182 118.549 197.048 118.682 196.876C118.818 196.7 118.922 196.493 118.992 196.255C119.062 196.016 119.098 195.755 119.098 195.469C119.098 195.216 119.066 194.971 119.004 194.737C118.941 194.499 118.846 194.288 118.717 194.104C118.588 193.917 118.426 193.77 118.23 193.665C118.039 193.555 117.811 193.501 117.545 193.501C117.244 193.501 116.963 193.575 116.701 193.723C116.443 193.868 116.23 194.059 116.062 194.298C115.898 194.532 115.805 194.788 115.781 195.065L115.207 195.059C115.262 194.622 115.363 194.249 115.512 193.94C115.664 193.628 115.852 193.374 116.074 193.178C116.301 192.979 116.553 192.835 116.83 192.745C117.111 192.651 117.408 192.604 117.721 192.604C118.146 192.604 118.514 192.684 118.822 192.844C119.131 193.005 119.385 193.219 119.584 193.489C119.783 193.755 119.93 194.055 120.023 194.391C120.121 194.723 120.17 195.065 120.17 195.417C120.17 195.819 120.113 196.196 120 196.548C119.887 196.899 119.717 197.208 119.49 197.473C119.268 197.739 118.992 197.946 118.664 198.094C118.336 198.243 117.955 198.317 117.521 198.317C117.061 198.317 116.658 198.223 116.314 198.036C115.971 197.844 115.686 197.591 115.459 197.274C115.232 196.958 115.062 196.606 114.949 196.219C114.836 195.833 114.779 195.44 114.779 195.042V194.532C114.779 193.93 114.84 193.341 114.961 192.762C115.082 192.184 115.291 191.661 115.588 191.192C115.889 190.723 116.305 190.35 116.836 190.073C117.367 189.796 118.045 189.657 118.869 189.657Z" fill="black" fill-opacity="0.87"/>
<path d="M153.521 189.622V198.2H152.438V190.975L150.252 191.772V190.794L153.352 189.622H153.521ZM162.223 189.669V190.278L158.689 198.2H157.547L161.074 190.559H156.457V189.669H162.223Z" fill="black" fill-opacity="0.87"/>
<path d="M195.521 189.622V198.2H194.438V190.975L192.252 191.772V190.794L195.352 189.622H195.521ZM204.088 195.891C204.088 196.411 203.967 196.852 203.725 197.216C203.486 197.575 203.162 197.848 202.752 198.036C202.346 198.223 201.887 198.317 201.375 198.317C200.863 198.317 200.402 198.223 199.992 198.036C199.582 197.848 199.258 197.575 199.02 197.216C198.781 196.852 198.662 196.411 198.662 195.891C198.662 195.552 198.727 195.241 198.855 194.96C198.988 194.675 199.174 194.427 199.412 194.216C199.654 194.005 199.939 193.843 200.268 193.729C200.6 193.612 200.965 193.553 201.363 193.553C201.887 193.553 202.354 193.655 202.764 193.858C203.174 194.057 203.496 194.333 203.73 194.684C203.969 195.036 204.088 195.438 204.088 195.891ZM202.998 195.868C202.998 195.552 202.93 195.272 202.793 195.03C202.656 194.784 202.465 194.593 202.219 194.456C201.973 194.319 201.688 194.251 201.363 194.251C201.031 194.251 200.744 194.319 200.502 194.456C200.264 194.593 200.078 194.784 199.945 195.03C199.812 195.272 199.746 195.552 199.746 195.868C199.746 196.196 199.811 196.477 199.939 196.712C200.072 196.942 200.26 197.12 200.502 197.245C200.748 197.366 201.039 197.427 201.375 197.427C201.711 197.427 202 197.366 202.242 197.245C202.484 197.12 202.67 196.942 202.799 196.712C202.932 196.477 202.998 196.196 202.998 195.868ZM203.889 191.889C203.889 192.303 203.779 192.677 203.561 193.009C203.342 193.341 203.043 193.602 202.664 193.794C202.285 193.985 201.855 194.081 201.375 194.081C200.887 194.081 200.451 193.985 200.068 193.794C199.689 193.602 199.393 193.341 199.178 193.009C198.963 192.677 198.855 192.303 198.855 191.889C198.855 191.393 198.963 190.971 199.178 190.624C199.396 190.276 199.695 190.01 200.074 189.827C200.453 189.643 200.885 189.552 201.369 189.552C201.857 189.552 202.291 189.643 202.67 189.827C203.049 190.01 203.346 190.276 203.561 190.624C203.779 190.971 203.889 191.393 203.889 191.889ZM202.805 191.907C202.805 191.622 202.744 191.37 202.623 191.151C202.502 190.932 202.334 190.76 202.119 190.635C201.904 190.507 201.654 190.442 201.369 190.442C201.084 190.442 200.834 190.503 200.619 190.624C200.408 190.741 200.242 190.909 200.121 191.128C200.004 191.346 199.945 191.606 199.945 191.907C199.945 192.2 200.004 192.456 200.121 192.675C200.242 192.893 200.41 193.063 200.625 193.184C200.84 193.305 201.09 193.366 201.375 193.366C201.66 193.366 201.908 193.305 202.119 193.184C202.334 193.063 202.502 192.893 202.623 192.675C202.744 192.456 202.805 192.2 202.805 191.907Z" fill="black" fill-opacity="0.87"/>
<path d="M237.521 189.622V198.2H236.438V190.975L234.252 191.772V190.794L237.352 189.622H237.521ZM241.787 197.292H241.898C242.523 197.292 243.031 197.204 243.422 197.028C243.812 196.852 244.113 196.616 244.324 196.319C244.535 196.022 244.68 195.688 244.758 195.317C244.836 194.942 244.875 194.557 244.875 194.163V192.856C244.875 192.469 244.83 192.126 244.74 191.825C244.654 191.524 244.533 191.272 244.377 191.069C244.225 190.866 244.051 190.712 243.855 190.606C243.66 190.501 243.453 190.448 243.234 190.448C242.984 190.448 242.76 190.499 242.561 190.6C242.365 190.698 242.199 190.837 242.062 191.016C241.93 191.196 241.828 191.407 241.758 191.649C241.688 191.891 241.652 192.155 241.652 192.44C241.652 192.694 241.684 192.94 241.746 193.178C241.809 193.417 241.904 193.632 242.033 193.823C242.162 194.014 242.322 194.167 242.514 194.28C242.709 194.389 242.938 194.444 243.199 194.444C243.441 194.444 243.668 194.397 243.879 194.303C244.094 194.206 244.283 194.075 244.447 193.911C244.615 193.743 244.748 193.553 244.846 193.343C244.947 193.132 245.006 192.911 245.021 192.68H245.537C245.537 193.005 245.473 193.325 245.344 193.641C245.219 193.954 245.043 194.239 244.816 194.497C244.59 194.755 244.324 194.962 244.02 195.118C243.715 195.27 243.383 195.346 243.023 195.346C242.602 195.346 242.236 195.264 241.928 195.1C241.619 194.936 241.365 194.718 241.166 194.444C240.971 194.171 240.824 193.866 240.727 193.53C240.633 193.19 240.586 192.846 240.586 192.499C240.586 192.093 240.643 191.712 240.756 191.356C240.869 191.001 241.037 190.688 241.26 190.419C241.482 190.145 241.758 189.932 242.086 189.78C242.418 189.628 242.801 189.552 243.234 189.552C243.723 189.552 244.139 189.649 244.482 189.844C244.826 190.04 245.105 190.302 245.32 190.63C245.539 190.958 245.699 191.327 245.801 191.737C245.902 192.147 245.953 192.569 245.953 193.003V193.395C245.953 193.837 245.924 194.286 245.865 194.743C245.811 195.196 245.703 195.63 245.543 196.044C245.387 196.458 245.158 196.829 244.857 197.157C244.557 197.481 244.164 197.739 243.68 197.93C243.199 198.118 242.605 198.212 241.898 198.212H241.787V197.292Z" fill="black" fill-opacity="0.87"/>
<path d="M281.549 197.309V198.2H275.965V197.421L278.76 194.309C279.104 193.927 279.369 193.602 279.557 193.337C279.748 193.067 279.881 192.827 279.955 192.616C280.033 192.401 280.072 192.182 280.072 191.96C280.072 191.678 280.014 191.425 279.896 191.198C279.783 190.968 279.615 190.784 279.393 190.647C279.17 190.51 278.9 190.442 278.584 190.442C278.205 190.442 277.889 190.516 277.635 190.665C277.385 190.809 277.197 191.012 277.072 191.274C276.947 191.536 276.885 191.837 276.885 192.177H275.801C275.801 191.696 275.906 191.257 276.117 190.858C276.328 190.46 276.641 190.143 277.055 189.909C277.469 189.671 277.979 189.552 278.584 189.552C279.123 189.552 279.584 189.647 279.967 189.839C280.35 190.026 280.643 190.292 280.846 190.635C281.053 190.975 281.156 191.374 281.156 191.831C281.156 192.081 281.113 192.335 281.027 192.593C280.945 192.846 280.83 193.1 280.682 193.354C280.537 193.608 280.367 193.858 280.172 194.104C279.98 194.35 279.775 194.593 279.557 194.831L277.271 197.309H281.549ZM288.064 193.255V194.555C288.064 195.255 288.002 195.844 287.877 196.325C287.752 196.805 287.572 197.192 287.338 197.485C287.104 197.778 286.82 197.991 286.488 198.124C286.16 198.253 285.789 198.317 285.375 198.317C285.047 198.317 284.744 198.276 284.467 198.194C284.189 198.112 283.939 197.981 283.717 197.802C283.498 197.618 283.311 197.38 283.154 197.087C282.998 196.794 282.879 196.438 282.797 196.02C282.715 195.602 282.674 195.114 282.674 194.555V193.255C282.674 192.555 282.736 191.969 282.861 191.497C282.99 191.024 283.172 190.645 283.406 190.36C283.641 190.071 283.922 189.864 284.25 189.739C284.582 189.614 284.953 189.552 285.363 189.552C285.695 189.552 286 189.593 286.277 189.675C286.559 189.753 286.809 189.88 287.027 190.055C287.246 190.227 287.432 190.458 287.584 190.747C287.74 191.032 287.859 191.382 287.941 191.796C288.023 192.21 288.064 192.696 288.064 193.255ZM286.975 194.731V193.073C286.975 192.69 286.951 192.354 286.904 192.065C286.861 191.772 286.797 191.522 286.711 191.315C286.625 191.108 286.516 190.94 286.383 190.811C286.254 190.682 286.104 190.589 285.932 190.53C285.764 190.468 285.574 190.436 285.363 190.436C285.105 190.436 284.877 190.485 284.678 190.583C284.479 190.677 284.311 190.827 284.174 191.034C284.041 191.241 283.939 191.512 283.869 191.848C283.799 192.184 283.764 192.593 283.764 193.073V194.731C283.764 195.114 283.785 195.452 283.828 195.745C283.875 196.038 283.943 196.292 284.033 196.507C284.123 196.718 284.232 196.891 284.361 197.028C284.49 197.165 284.639 197.266 284.807 197.333C284.979 197.395 285.168 197.427 285.375 197.427C285.641 197.427 285.873 197.376 286.072 197.274C286.271 197.173 286.438 197.014 286.57 196.8C286.707 196.581 286.809 196.302 286.875 195.962C286.941 195.618 286.975 195.208 286.975 194.731Z" fill="black" fill-opacity="0.87"/>
<path d="M29.5488 241.709V242.6H23.9648V241.821L26.7598 238.709C27.1035 238.327 27.3691 238.002 27.5566 237.737C27.748 237.467 27.8809 237.227 27.9551 237.016C28.0332 236.801 28.0723 236.583 28.0723 236.36C28.0723 236.079 28.0137 235.825 27.8965 235.598C27.7832 235.368 27.6152 235.184 27.3926 235.047C27.1699 234.911 26.9004 234.842 26.584 234.842C26.2051 234.842 25.8887 234.917 25.6348 235.065C25.3848 235.209 25.1973 235.413 25.0723 235.674C24.9473 235.936 24.8848 236.237 24.8848 236.577H23.8008C23.8008 236.096 23.9062 235.657 24.1172 235.258C24.3281 234.86 24.6406 234.543 25.0547 234.309C25.4688 234.071 25.9785 233.952 26.584 233.952C27.123 233.952 27.584 234.047 27.9668 234.239C28.3496 234.426 28.6426 234.692 28.8457 235.036C29.0527 235.375 29.1562 235.774 29.1562 236.231C29.1562 236.481 29.1133 236.735 29.0273 236.993C28.9453 237.247 28.8301 237.5 28.6816 237.754C28.5371 238.008 28.3672 238.258 28.1719 238.504C27.9805 238.75 27.7754 238.993 27.5566 239.231L25.2715 241.709H29.5488ZM34.2715 234.022V242.6H33.1875V235.375L31.002 236.172V235.194L34.1016 234.022H34.2715Z" fill="black" fill-opacity="0.87"/>
<path d="M71.5488 241.709V242.6H65.9648V241.821L68.7598 238.709C69.1035 238.327 69.3691 238.002 69.5566 237.737C69.748 237.467 69.8809 237.227 69.9551 237.016C70.0332 236.801 70.0723 236.583 70.0723 236.36C70.0723 236.079 70.0137 235.825 69.8965 235.598C69.7832 235.368 69.6152 235.184 69.3926 235.047C69.1699 234.911 68.9004 234.842 68.584 234.842C68.2051 234.842 67.8887 234.917 67.6348 235.065C67.3848 235.209 67.1973 235.413 67.0723 235.674C66.9473 235.936 66.8848 236.237 66.8848 236.577H65.8008C65.8008 236.096 65.9062 235.657 66.1172 235.258C66.3281 234.86 66.6406 234.543 67.0547 234.309C67.4688 234.071 67.9785 233.952 68.584 233.952C69.123 233.952 69.584 234.047 69.9668 234.239C70.3496 234.426 70.6426 234.692 70.8457 235.036C71.0527 235.375 71.1562 235.774 71.1562 236.231C71.1562 236.481 71.1133 236.735 71.0273 236.993C70.9453 237.247 70.8301 237.5 70.6816 237.754C70.5371 238.008 70.3672 238.258 70.1719 238.504C69.9805 238.75 69.7754 238.993 69.5566 239.231L67.2715 241.709H71.5488ZM78.2988 241.709V242.6H72.7148V241.821L75.5098 238.709C75.8535 238.327 76.1191 238.002 76.3066 237.737C76.498 237.467 76.6309 237.227 76.7051 237.016C76.7832 236.801 76.8223 236.583 76.8223 236.36C76.8223 236.079 76.7637 235.825 76.6465 235.598C76.5332 235.368 76.3652 235.184 76.1426 235.047C75.9199 234.911 75.6504 234.842 75.334 234.842C74.9551 234.842 74.6387 234.917 74.3848 235.065C74.1348 235.209 73.9473 235.413 73.8223 235.674C73.6973 235.936 73.6348 236.237 73.6348 236.577H72.5508C72.5508 236.096 72.6562 235.657 72.8672 235.258C73.0781 234.86 73.3906 234.543 73.8047 234.309C74.2188 234.071 74.7285 233.952 75.334 233.952C75.873 233.952 76.334 234.047 76.7168 234.239C77.0996 234.426 77.3926 234.692 77.5957 235.036C77.8027 235.375 77.9062 235.774 77.9062 236.231C77.9062 236.481 77.8633 236.735 77.7773 236.993C77.6953 237.247 77.5801 237.5 77.4316 237.754C77.2871 238.008 77.1172 238.258 76.9219 238.504C76.7305 238.75 76.5254 238.993 76.3066 239.231L74.0215 241.709H78.2988Z" fill="black" fill-opacity="0.87"/>
<path d="M113.549 241.709V242.6H107.965V241.821L110.76 238.709C111.104 238.327 111.369 238.002 111.557 237.737C111.748 237.467 111.881 237.227 111.955 237.016C112.033 236.801 112.072 236.583 112.072 236.36C112.072 236.079 112.014 235.825 111.896 235.598C111.783 235.368 111.615 235.184 111.393 235.047C111.17 234.911 110.9 234.842 110.584 234.842C110.205 234.842 109.889 234.917 109.635 235.065C109.385 235.209 109.197 235.413 109.072 235.674C108.947 235.936 108.885 236.237 108.885 236.577H107.801C107.801 236.096 107.906 235.657 108.117 235.258C108.328 234.86 108.641 234.543 109.055 234.309C109.469 234.071 109.979 233.952 110.584 233.952C111.123 233.952 111.584 234.047 111.967 234.239C112.35 234.426 112.643 234.692 112.846 235.036C113.053 235.375 113.156 235.774 113.156 236.231C113.156 236.481 113.113 236.735 113.027 236.993C112.945 237.247 112.83 237.5 112.682 237.754C112.537 238.008 112.367 238.258 112.172 238.504C111.98 238.75 111.775 238.993 111.557 239.231L109.271 241.709H113.549ZM116.291 237.801H117.064C117.443 237.801 117.756 237.739 118.002 237.614C118.252 237.485 118.438 237.311 118.559 237.092C118.684 236.87 118.746 236.62 118.746 236.342C118.746 236.014 118.691 235.739 118.582 235.516C118.473 235.293 118.309 235.125 118.09 235.012C117.871 234.899 117.594 234.842 117.258 234.842C116.953 234.842 116.684 234.903 116.449 235.024C116.219 235.141 116.037 235.309 115.904 235.528C115.775 235.747 115.711 236.004 115.711 236.301H114.627C114.627 235.868 114.736 235.473 114.955 235.118C115.174 234.762 115.48 234.479 115.875 234.268C116.273 234.057 116.734 233.952 117.258 233.952C117.773 233.952 118.225 234.043 118.611 234.227C118.998 234.407 119.299 234.676 119.514 235.036C119.729 235.391 119.836 235.834 119.836 236.366C119.836 236.581 119.785 236.811 119.684 237.057C119.586 237.299 119.432 237.526 119.221 237.737C119.014 237.948 118.744 238.122 118.412 238.258C118.08 238.391 117.682 238.458 117.217 238.458H116.291V237.801ZM116.291 238.692V238.042H117.217C117.76 238.042 118.209 238.106 118.564 238.235C118.92 238.364 119.199 238.536 119.402 238.75C119.609 238.965 119.754 239.202 119.836 239.459C119.922 239.713 119.965 239.967 119.965 240.221C119.965 240.62 119.896 240.973 119.76 241.282C119.627 241.59 119.438 241.852 119.191 242.067C118.949 242.282 118.664 242.444 118.336 242.553C118.008 242.663 117.65 242.717 117.264 242.717C116.893 242.717 116.543 242.665 116.215 242.559C115.891 242.454 115.604 242.301 115.354 242.102C115.104 241.899 114.908 241.651 114.768 241.358C114.627 241.061 114.557 240.723 114.557 240.344H115.641C115.641 240.641 115.705 240.901 115.834 241.124C115.967 241.346 116.154 241.52 116.396 241.645C116.643 241.766 116.932 241.827 117.264 241.827C117.596 241.827 117.881 241.77 118.119 241.657C118.361 241.54 118.547 241.364 118.676 241.129C118.809 240.895 118.875 240.6 118.875 240.245C118.875 239.889 118.801 239.598 118.652 239.372C118.504 239.141 118.293 238.971 118.02 238.862C117.75 238.749 117.432 238.692 117.064 238.692H116.291Z" fill="black" fill-opacity="0.87"/>
<path d="M155.549 241.709V242.6H149.965V241.821L152.76 238.709C153.104 238.327 153.369 238.002 153.557 237.737C153.748 237.467 153.881 237.227 153.955 237.016C154.033 236.801 154.072 236.583 154.072 236.36C154.072 236.079 154.014 235.825 153.896 235.598C153.783 235.368 153.615 235.184 153.393 235.047C153.17 234.911 152.9 234.842 152.584 234.842C152.205 234.842 151.889 234.917 151.635 235.065C151.385 235.209 151.197 235.413 151.072 235.674C150.947 235.936 150.885 236.237 150.885 236.577H149.801C149.801 236.096 149.906 235.657 150.117 235.258C150.328 234.86 150.641 234.543 151.055 234.309C151.469 234.071 151.979 233.952 152.584 233.952C153.123 233.952 153.584 234.047 153.967 234.239C154.35 234.426 154.643 234.692 154.846 235.036C155.053 235.375 155.156 235.774 155.156 236.231C155.156 236.481 155.113 236.735 155.027 236.993C154.945 237.247 154.83 237.5 154.682 237.754C154.537 238.008 154.367 238.258 154.172 238.504C153.98 238.75 153.775 238.993 153.557 239.231L151.271 241.709H155.549ZM162.475 239.729V240.62H156.311V239.981L160.131 234.069H161.016L160.066 235.78L157.541 239.729H162.475ZM161.285 234.069V242.6H160.201V234.069H161.285Z" fill="black" fill-opacity="0.87"/>
<path d="M197.549 241.709V242.6H191.965V241.821L194.76 238.709C195.104 238.327 195.369 238.002 195.557 237.737C195.748 237.467 195.881 237.227 195.955 237.016C196.033 236.801 196.072 236.583 196.072 236.36C196.072 236.079 196.014 235.825 195.896 235.598C195.783 235.368 195.615 235.184 195.393 235.047C195.17 234.911 194.9 234.842 194.584 234.842C194.205 234.842 193.889 234.917 193.635 235.065C193.385 235.209 193.197 235.413 193.072 235.674C192.947 235.936 192.885 236.237 192.885 236.577H191.801C191.801 236.096 191.906 235.657 192.117 235.258C192.328 234.86 192.641 234.543 193.055 234.309C193.469 234.071 193.979 233.952 194.584 233.952C195.123 233.952 195.584 234.047 195.967 234.239C196.35 234.426 196.643 234.692 196.846 235.036C197.053 235.375 197.156 235.774 197.156 236.231C197.156 236.481 197.113 236.735 197.027 236.993C196.945 237.247 196.83 237.5 196.682 237.754C196.537 238.008 196.367 238.258 196.172 238.504C195.98 238.75 195.775 238.993 195.557 239.231L193.271 241.709H197.549ZM200.08 238.54L199.213 238.317L199.641 234.069H204.018V235.071H200.561L200.303 237.391C200.459 237.301 200.656 237.217 200.895 237.139C201.137 237.061 201.414 237.022 201.727 237.022C202.121 237.022 202.475 237.09 202.787 237.227C203.1 237.36 203.365 237.551 203.584 237.801C203.807 238.051 203.977 238.352 204.094 238.704C204.211 239.055 204.27 239.448 204.27 239.881C204.27 240.292 204.213 240.668 204.1 241.012C203.99 241.356 203.824 241.657 203.602 241.915C203.379 242.168 203.098 242.366 202.758 242.506C202.422 242.647 202.025 242.717 201.568 242.717C201.225 242.717 200.898 242.67 200.59 242.577C200.285 242.479 200.012 242.333 199.77 242.137C199.531 241.938 199.336 241.692 199.184 241.399C199.035 241.102 198.941 240.754 198.902 240.356H199.934C199.98 240.676 200.074 240.946 200.215 241.165C200.355 241.383 200.539 241.549 200.766 241.663C200.996 241.772 201.264 241.827 201.568 241.827C201.826 241.827 202.055 241.782 202.254 241.692C202.453 241.602 202.621 241.473 202.758 241.305C202.895 241.137 202.998 240.934 203.068 240.696C203.143 240.458 203.18 240.19 203.18 239.893C203.18 239.624 203.143 239.374 203.068 239.143C202.994 238.913 202.883 238.711 202.734 238.54C202.59 238.368 202.412 238.235 202.201 238.141C201.99 238.043 201.748 237.995 201.475 237.995C201.111 237.995 200.836 238.043 200.648 238.141C200.465 238.239 200.275 238.372 200.08 238.54Z" fill="black" fill-opacity="0.87"/>
<path d="M239.549 241.709V242.6H233.965V241.821L236.76 238.709C237.104 238.327 237.369 238.002 237.557 237.737C237.748 237.467 237.881 237.227 237.955 237.016C238.033 236.801 238.072 236.583 238.072 236.36C238.072 236.079 238.014 235.825 237.896 235.598C237.783 235.368 237.615 235.184 237.393 235.047C237.17 234.911 236.9 234.842 236.584 234.842C236.205 234.842 235.889 234.917 235.635 235.065C235.385 235.209 235.197 235.413 235.072 235.674C234.947 235.936 234.885 236.237 234.885 236.577H233.801C233.801 236.096 233.906 235.657 234.117 235.258C234.328 234.86 234.641 234.543 235.055 234.309C235.469 234.071 235.979 233.952 236.584 233.952C237.123 233.952 237.584 234.047 237.967 234.239C238.35 234.426 238.643 234.692 238.846 235.036C239.053 235.375 239.156 235.774 239.156 236.231C239.156 236.481 239.113 236.735 239.027 236.993C238.945 237.247 238.83 237.5 238.682 237.754C238.537 238.008 238.367 238.258 238.172 238.504C237.98 238.75 237.775 238.993 237.557 239.231L235.271 241.709H239.549ZM244.869 234.057H244.963V234.977H244.869C244.295 234.977 243.814 235.071 243.428 235.258C243.041 235.442 242.734 235.69 242.508 236.002C242.281 236.311 242.117 236.659 242.016 237.045C241.918 237.432 241.869 237.825 241.869 238.223V239.477C241.869 239.856 241.914 240.192 242.004 240.485C242.094 240.774 242.217 241.018 242.373 241.217C242.529 241.417 242.705 241.567 242.9 241.668C243.1 241.77 243.307 241.821 243.521 241.821C243.771 241.821 243.994 241.774 244.189 241.68C244.385 241.583 244.549 241.448 244.682 241.276C244.818 241.1 244.922 240.893 244.992 240.655C245.062 240.417 245.098 240.155 245.098 239.87C245.098 239.616 245.066 239.372 245.004 239.137C244.941 238.899 244.846 238.688 244.717 238.504C244.588 238.317 244.426 238.17 244.23 238.065C244.039 237.956 243.811 237.901 243.545 237.901C243.244 237.901 242.963 237.975 242.701 238.124C242.443 238.268 242.23 238.459 242.062 238.698C241.898 238.932 241.805 239.188 241.781 239.465L241.207 239.459C241.262 239.022 241.363 238.649 241.512 238.34C241.664 238.028 241.852 237.774 242.074 237.579C242.301 237.379 242.553 237.235 242.83 237.145C243.111 237.051 243.408 237.004 243.721 237.004C244.146 237.004 244.514 237.084 244.822 237.245C245.131 237.405 245.385 237.62 245.584 237.889C245.783 238.155 245.93 238.456 246.023 238.792C246.121 239.124 246.17 239.465 246.17 239.817C246.17 240.219 246.113 240.596 246 240.948C245.887 241.299 245.717 241.608 245.49 241.874C245.268 242.139 244.992 242.346 244.664 242.495C244.336 242.643 243.955 242.717 243.521 242.717C243.061 242.717 242.658 242.624 242.314 242.436C241.971 242.245 241.686 241.991 241.459 241.674C241.232 241.358 241.062 241.006 240.949 240.62C240.836 240.233 240.779 239.84 240.779 239.442V238.932C240.779 238.331 240.84 237.741 240.961 237.163C241.082 236.584 241.291 236.061 241.588 235.592C241.889 235.124 242.305 234.75 242.836 234.473C243.367 234.196 244.045 234.057 244.869 234.057Z" fill="black" fill-opacity="0.87"/>
<path d="M281.549 241.709V242.6H275.965V241.821L278.76 238.709C279.104 238.327 279.369 238.002 279.557 237.737C279.748 237.467 279.881 237.227 279.955 237.016C280.033 236.801 280.072 236.583 280.072 236.36C280.072 236.079 280.014 235.825 279.896 235.598C279.783 235.368 279.615 235.184 279.393 235.047C279.17 234.911 278.9 234.842 278.584 234.842C278.205 234.842 277.889 234.917 277.635 235.065C277.385 235.209 277.197 235.413 277.072 235.674C276.947 235.936 276.885 236.237 276.885 236.577H275.801C275.801 236.096 275.906 235.657 276.117 235.258C276.328 234.86 276.641 234.543 277.055 234.309C277.469 234.071 277.979 233.952 278.584 233.952C279.123 233.952 279.584 234.047 279.967 234.239C280.35 234.426 280.643 234.692 280.846 235.036C281.053 235.375 281.156 235.774 281.156 236.231C281.156 236.481 281.113 236.735 281.027 236.993C280.945 237.247 280.83 237.5 280.682 237.754C280.537 238.008 280.367 238.258 280.172 238.504C279.98 238.75 279.775 238.993 279.557 239.231L277.271 241.709H281.549ZM288.223 234.069V234.678L284.689 242.6H283.547L287.074 234.959H282.457V234.069H288.223Z" fill="black" fill-opacity="0.87"/>
<path d="M29.5488 286.109V287H23.9648V286.221L26.7598 283.109C27.1035 282.727 27.3691 282.402 27.5566 282.137C27.748 281.867 27.8809 281.627 27.9551 281.416C28.0332 281.201 28.0723 280.982 28.0723 280.76C28.0723 280.479 28.0137 280.225 27.8965 279.998C27.7832 279.768 27.6152 279.584 27.3926 279.447C27.1699 279.311 26.9004 279.242 26.584 279.242C26.2051 279.242 25.8887 279.316 25.6348 279.465C25.3848 279.609 25.1973 279.812 25.0723 280.074C24.9473 280.336 24.8848 280.637 24.8848 280.977H23.8008C23.8008 280.496 23.9062 280.057 24.1172 279.658C24.3281 279.26 24.6406 278.943 25.0547 278.709C25.4688 278.471 25.9785 278.352 26.584 278.352C27.123 278.352 27.584 278.447 27.9668 278.639C28.3496 278.826 28.6426 279.092 28.8457 279.436C29.0527 279.775 29.1562 280.174 29.1562 280.631C29.1562 280.881 29.1133 281.135 29.0273 281.393C28.9453 281.646 28.8301 281.9 28.6816 282.154C28.5371 282.408 28.3672 282.658 28.1719 282.904C27.9805 283.15 27.7754 283.393 27.5566 283.631L25.2715 286.109H29.5488ZM36.0879 284.691C36.0879 285.211 35.9668 285.652 35.7246 286.016C35.4863 286.375 35.1621 286.648 34.752 286.836C34.3457 287.023 33.8867 287.117 33.375 287.117C32.8633 287.117 32.4023 287.023 31.9922 286.836C31.582 286.648 31.2578 286.375 31.0195 286.016C30.7812 285.652 30.6621 285.211 30.6621 284.691C30.6621 284.352 30.7266 284.041 30.8555 283.76C30.9883 283.475 31.1738 283.227 31.4121 283.016C31.6543 282.805 31.9395 282.643 32.2676 282.529C32.5996 282.412 32.9648 282.354 33.3633 282.354C33.8867 282.354 34.3535 282.455 34.7637 282.658C35.1738 282.857 35.4961 283.133 35.7305 283.484C35.9688 283.836 36.0879 284.238 36.0879 284.691ZM34.998 284.668C34.998 284.352 34.9297 284.072 34.793 283.83C34.6562 283.584 34.4648 283.393 34.2188 283.256C33.9727 283.119 33.6875 283.051 33.3633 283.051C33.0312 283.051 32.7441 283.119 32.502 283.256C32.2637 283.393 32.0781 283.584 31.9453 283.83C31.8125 284.072 31.7461 284.352 31.7461 284.668C31.7461 284.996 31.8105 285.277 31.9395 285.512C32.0723 285.742 32.2598 285.92 32.502 286.045C32.748 286.166 33.0391 286.227 33.375 286.227C33.7109 286.227 34 286.166 34.2422 286.045C34.4844 285.92 34.6699 285.742 34.7988 285.512C34.9316 285.277 34.998 284.996 34.998 284.668ZM35.8887 280.689C35.8887 281.104 35.7793 281.477 35.5605 281.809C35.3418 282.141 35.043 282.402 34.6641 282.594C34.2852 282.785 33.8555 282.881 33.375 282.881C32.8867 282.881 32.4512 282.785 32.0684 282.594C31.6895 282.402 31.3926 282.141 31.1777 281.809C30.9629 281.477 30.8555 281.104 30.8555 280.689C30.8555 280.193 30.9629 279.771 31.1777 279.424C31.3965 279.076 31.6953 278.811 32.0742 278.627C32.4531 278.443 32.8848 278.352 33.3691 278.352C33.8574 278.352 34.291 278.443 34.6699 278.627C35.0488 278.811 35.3457 279.076 35.5605 279.424C35.7793 279.771 35.8887 280.193 35.8887 280.689ZM34.8047 280.707C34.8047 280.422 34.7441 280.17 34.623 279.951C34.502 279.732 34.334 279.561 34.1191 279.436C33.9043 279.307 33.6543 279.242 33.3691 279.242C33.084 279.242 32.834 279.303 32.6191 279.424C32.4082 279.541 32.2422 279.709 32.1211 279.928C32.0039 280.146 31.9453 280.406 31.9453 280.707C31.9453 281 32.0039 281.256 32.1211 281.475C32.2422 281.693 32.4102 281.863 32.625 281.984C32.8398 282.105 33.0898 282.166 33.375 282.166C33.6602 282.166 33.9082 282.105 34.1191 281.984C34.334 281.863 34.502 281.693 34.623 281.475C34.7441 281.256 34.8047 281 34.8047 280.707Z" fill="black" fill-opacity="0.87"/>
<path d="M71.5488 286.109V287H65.9648V286.221L68.7598 283.109C69.1035 282.727 69.3691 282.402 69.5566 282.137C69.748 281.867 69.8809 281.627 69.9551 281.416C70.0332 281.201 70.0723 280.982 70.0723 280.76C70.0723 280.479 70.0137 280.225 69.8965 279.998C69.7832 279.768 69.6152 279.584 69.3926 279.447C69.1699 279.311 68.9004 279.242 68.584 279.242C68.2051 279.242 67.8887 279.316 67.6348 279.465C67.3848 279.609 67.1973 279.812 67.0723 280.074C66.9473 280.336 66.8848 280.637 66.8848 280.977H65.8008C65.8008 280.496 65.9062 280.057 66.1172 279.658C66.3281 279.26 66.6406 278.943 67.0547 278.709C67.4688 278.471 67.9785 278.352 68.584 278.352C69.123 278.352 69.584 278.447 69.9668 278.639C70.3496 278.826 70.6426 279.092 70.8457 279.436C71.0527 279.775 71.1562 280.174 71.1562 280.631C71.1562 280.881 71.1133 281.135 71.0273 281.393C70.9453 281.646 70.8301 281.9 70.6816 282.154C70.5371 282.408 70.3672 282.658 70.1719 282.904C69.9805 283.15 69.7754 283.393 69.5566 283.631L67.2715 286.109H71.5488ZM73.7871 286.092H73.8984C74.5234 286.092 75.0312 286.004 75.4219 285.828C75.8125 285.652 76.1133 285.416 76.3242 285.119C76.5352 284.822 76.6797 284.488 76.7578 284.117C76.8359 283.742 76.875 283.357 76.875 282.963V281.656C76.875 281.27 76.8301 280.926 76.7402 280.625C76.6543 280.324 76.5332 280.072 76.377 279.869C76.2246 279.666 76.0508 279.512 75.8555 279.406C75.6602 279.301 75.4531 279.248 75.2344 279.248C74.9844 279.248 74.7598 279.299 74.5605 279.4C74.3652 279.498 74.1992 279.637 74.0625 279.816C73.9297 279.996 73.8281 280.207 73.7578 280.449C73.6875 280.691 73.6523 280.955 73.6523 281.24C73.6523 281.494 73.6836 281.74 73.7461 281.979C73.8086 282.217 73.9043 282.432 74.0332 282.623C74.1621 282.814 74.3223 282.967 74.5137 283.08C74.709 283.189 74.9375 283.244 75.1992 283.244C75.4414 283.244 75.668 283.197 75.8789 283.104C76.0938 283.006 76.2832 282.875 76.4473 282.711C76.6152 282.543 76.748 282.354 76.8457 282.143C76.9473 281.932 77.0059 281.711 77.0215 281.48H77.5371C77.5371 281.805 77.4727 282.125 77.3438 282.441C77.2188 282.754 77.043 283.039 76.8164 283.297C76.5898 283.555 76.3242 283.762 76.0195 283.918C75.7148 284.07 75.3828 284.146 75.0234 284.146C74.6016 284.146 74.2363 284.064 73.9277 283.9C73.6191 283.736 73.3652 283.518 73.166 283.244C72.9707 282.971 72.8242 282.666 72.7266 282.33C72.6328 281.99 72.5859 281.646 72.5859 281.299C72.5859 280.893 72.6426 280.512 72.7559 280.156C72.8691 279.801 73.0371 279.488 73.2598 279.219C73.4824 278.945 73.7578 278.732 74.0859 278.58C74.418 278.428 74.8008 278.352 75.2344 278.352C75.7227 278.352 76.1387 278.449 76.4824 278.645C76.8262 278.84 77.1055 279.102 77.3203 279.43C77.5391 279.758 77.6992 280.127 77.8008 280.537C77.9023 280.947 77.9531 281.369 77.9531 281.803V282.195C77.9531 282.637 77.9238 283.086 77.8652 283.543C77.8105 283.996 77.7031 284.43 77.543 284.844C77.3867 285.258 77.1582 285.629 76.8574 285.957C76.5566 286.281 76.1641 286.539 75.6797 286.73C75.1992 286.918 74.6055 287.012 73.8984 287.012H73.7871V286.092Z" fill="black" fill-opacity="0.87"/>
<path d="M109.541 282.201H110.314C110.693 282.201 111.006 282.139 111.252 282.014C111.502 281.885 111.688 281.711 111.809 281.492C111.934 281.27 111.996 281.02 111.996 280.742C111.996 280.414 111.941 280.139 111.832 279.916C111.723 279.693 111.559 279.525 111.34 279.412C111.121 279.299 110.844 279.242 110.508 279.242C110.203 279.242 109.934 279.303 109.699 279.424C109.469 279.541 109.287 279.709 109.154 279.928C109.025 280.146 108.961 280.404 108.961 280.701H107.877C107.877 280.268 107.986 279.873 108.205 279.518C108.424 279.162 108.73 278.879 109.125 278.668C109.523 278.457 109.984 278.352 110.508 278.352C111.023 278.352 111.475 278.443 111.861 278.627C112.248 278.807 112.549 279.076 112.764 279.436C112.979 279.791 113.086 280.234 113.086 280.766C113.086 280.98 113.035 281.211 112.934 281.457C112.836 281.699 112.682 281.926 112.471 282.137C112.264 282.348 111.994 282.521 111.662 282.658C111.33 282.791 110.932 282.857 110.467 282.857H109.541V282.201ZM109.541 283.092V282.441H110.467C111.01 282.441 111.459 282.506 111.814 282.635C112.17 282.764 112.449 282.936 112.652 283.15C112.859 283.365 113.004 283.602 113.086 283.859C113.172 284.113 113.215 284.367 113.215 284.621C113.215 285.02 113.146 285.373 113.01 285.682C112.877 285.99 112.688 286.252 112.441 286.467C112.199 286.682 111.914 286.844 111.586 286.953C111.258 287.062 110.9 287.117 110.514 287.117C110.143 287.117 109.793 287.064 109.465 286.959C109.141 286.854 108.854 286.701 108.604 286.502C108.354 286.299 108.158 286.051 108.018 285.758C107.877 285.461 107.807 285.123 107.807 284.744H108.891C108.891 285.041 108.955 285.301 109.084 285.523C109.217 285.746 109.404 285.92 109.646 286.045C109.893 286.166 110.182 286.227 110.514 286.227C110.846 286.227 111.131 286.17 111.369 286.057C111.611 285.939 111.797 285.764 111.926 285.529C112.059 285.295 112.125 285 112.125 284.645C112.125 284.289 112.051 283.998 111.902 283.771C111.754 283.541 111.543 283.371 111.27 283.262C111 283.148 110.682 283.092 110.314 283.092H109.541ZM120.064 282.055V283.355C120.064 284.055 120.002 284.645 119.877 285.125C119.752 285.605 119.572 285.992 119.338 286.285C119.104 286.578 118.82 286.791 118.488 286.924C118.16 287.053 117.789 287.117 117.375 287.117C117.047 287.117 116.744 287.076 116.467 286.994C116.189 286.912 115.939 286.781 115.717 286.602C115.498 286.418 115.311 286.18 115.154 285.887C114.998 285.594 114.879 285.238 114.797 284.82C114.715 284.402 114.674 283.914 114.674 283.355V282.055C114.674 281.355 114.736 280.77 114.861 280.297C114.99 279.824 115.172 279.445 115.406 279.16C115.641 278.871 115.922 278.664 116.25 278.539C116.582 278.414 116.953 278.352 117.363 278.352C117.695 278.352 118 278.393 118.277 278.475C118.559 278.553 118.809 278.68 119.027 278.855C119.246 279.027 119.432 279.258 119.584 279.547C119.74 279.832 119.859 280.182 119.941 280.596C120.023 281.01 120.064 281.496 120.064 282.055ZM118.975 283.531V281.873C118.975 281.49 118.951 281.154 118.904 280.865C118.861 280.572 118.797 280.322 118.711 280.115C118.625 279.908 118.516 279.74 118.383 279.611C118.254 279.482 118.104 279.389 117.932 279.33C117.764 279.268 117.574 279.236 117.363 279.236C117.105 279.236 116.877 279.285 116.678 279.383C116.479 279.477 116.311 279.627 116.174 279.834C116.041 280.041 115.939 280.312 115.869 280.648C115.799 280.984 115.764 281.393 115.764 281.873V283.531C115.764 283.914 115.785 284.252 115.828 284.545C115.875 284.838 115.943 285.092 116.033 285.307C116.123 285.518 116.232 285.691 116.361 285.828C116.49 285.965 116.639 286.066 116.807 286.133C116.979 286.195 117.168 286.227 117.375 286.227C117.641 286.227 117.873 286.176 118.072 286.074C118.271 285.973 118.438 285.814 118.57 285.6C118.707 285.381 118.809 285.102 118.875 284.762C118.941 284.418 118.975 284.008 118.975 283.531Z" fill="black" fill-opacity="0.87"/>
<path d="M151.541 282.201H152.314C152.693 282.201 153.006 282.139 153.252 282.014C153.502 281.885 153.688 281.711 153.809 281.492C153.934 281.27 153.996 281.02 153.996 280.742C153.996 280.414 153.941 280.139 153.832 279.916C153.723 279.693 153.559 279.525 153.34 279.412C153.121 279.299 152.844 279.242 152.508 279.242C152.203 279.242 151.934 279.303 151.699 279.424C151.469 279.541 151.287 279.709 151.154 279.928C151.025 280.146 150.961 280.404 150.961 280.701H149.877C149.877 280.268 149.986 279.873 150.205 279.518C150.424 279.162 150.73 278.879 151.125 278.668C151.523 278.457 151.984 278.352 152.508 278.352C153.023 278.352 153.475 278.443 153.861 278.627C154.248 278.807 154.549 279.076 154.764 279.436C154.979 279.791 155.086 280.234 155.086 280.766C155.086 280.98 155.035 281.211 154.934 281.457C154.836 281.699 154.682 281.926 154.471 282.137C154.264 282.348 153.994 282.521 153.662 282.658C153.33 282.791 152.932 282.857 152.467 282.857H151.541V282.201ZM151.541 283.092V282.441H152.467C153.01 282.441 153.459 282.506 153.814 282.635C154.17 282.764 154.449 282.936 154.652 283.15C154.859 283.365 155.004 283.602 155.086 283.859C155.172 284.113 155.215 284.367 155.215 284.621C155.215 285.02 155.146 285.373 155.01 285.682C154.877 285.99 154.688 286.252 154.441 286.467C154.199 286.682 153.914 286.844 153.586 286.953C153.258 287.062 152.9 287.117 152.514 287.117C152.143 287.117 151.793 287.064 151.465 286.959C151.141 286.854 150.854 286.701 150.604 286.502C150.354 286.299 150.158 286.051 150.018 285.758C149.877 285.461 149.807 285.123 149.807 284.744H150.891C150.891 285.041 150.955 285.301 151.084 285.523C151.217 285.746 151.404 285.92 151.646 286.045C151.893 286.166 152.182 286.227 152.514 286.227C152.846 286.227 153.131 286.17 153.369 286.057C153.611 285.939 153.797 285.764 153.926 285.529C154.059 285.295 154.125 285 154.125 284.645C154.125 284.289 154.051 283.998 153.902 283.771C153.754 283.541 153.543 283.371 153.27 283.262C153 283.148 152.682 283.092 152.314 283.092H151.541ZM160.271 278.422V287H159.188V279.775L157.002 280.572V279.594L160.102 278.422H160.271Z" fill="black" fill-opacity="0.87"/>
</svg>
