<svg width="40" height="40" viewBox="0 0 40 40" fill="none" xmlns="http://www.w3.org/2000/svg">
<path d="M26.083 17.7916C26.7219 17.7916 27.2566 17.5764 27.6872 17.1458C28.1177 16.7153 28.333 16.1805 28.333 15.5416C28.333 14.9028 28.1177 14.368 27.6872 13.9375C27.2566 13.5069 26.7219 13.2916 26.083 13.2916C25.4441 13.2916 24.9094 13.5069 24.4788 13.9375C24.0483 14.368 23.833 14.9028 23.833 15.5416C23.833 16.1805 24.0483 16.7153 24.4788 17.1458C24.9094 17.5764 25.4441 17.7916 26.083 17.7916ZM13.9163 17.7916C14.5552 17.7916 15.09 17.5764 15.5205 17.1458C15.9511 16.7153 16.1663 16.1805 16.1663 15.5416C16.1663 14.9028 15.9511 14.368 15.5205 13.9375C15.09 13.5069 14.5552 13.2916 13.9163 13.2916C13.2775 13.2916 12.7427 13.5069 12.3122 13.9375C11.8816 14.368 11.6663 14.9028 11.6663 15.5416C11.6663 16.1805 11.8816 16.7153 12.3122 17.1458C12.7427 17.5764 13.2775 17.7916 13.9163 17.7916ZM19.9997 22.625C18.1386 22.625 16.4511 23.1458 14.9372 24.1875C13.4233 25.2291 12.3052 26.6111 11.583 28.3333H13.7913C14.4025 27.1666 15.2705 26.2639 16.3955 25.625C17.5205 24.9861 18.7358 24.6666 20.0413 24.6666C21.3469 24.6666 22.5483 24.9861 23.6455 25.625C24.7427 26.2639 25.6108 27.1666 26.2497 28.3333H28.4163C27.7219 26.6111 26.6108 25.2291 25.083 24.1875C23.5552 23.1458 21.8608 22.625 19.9997 22.625ZM19.9997 36.6666C17.7219 36.6666 15.5691 36.2291 13.5413 35.3541C11.5136 34.4791 9.74273 33.2847 8.22884 31.7708C6.71495 30.2569 5.52051 28.4861 4.64551 26.4583C3.77051 24.4305 3.33301 22.2639 3.33301 19.9583C3.33301 17.6805 3.77051 15.5278 4.64551 13.5C5.52051 11.4722 6.71495 9.70831 8.22884 8.20831C9.74273 6.70831 11.5136 5.52081 13.5413 4.64581C15.5691 3.77081 17.7358 3.33331 20.0413 3.33331C22.3191 3.33331 24.4719 3.77081 26.4997 4.64581C28.5275 5.52081 30.2913 6.70831 31.7913 8.20831C33.2913 9.70831 34.4788 11.4722 35.3538 13.5C36.2288 15.5278 36.6663 17.6944 36.6663 20C36.6663 22.2778 36.2288 24.4305 35.3538 26.4583C34.4788 28.4861 33.2913 30.2569 31.7913 31.7708C30.2913 33.2847 28.5275 34.4791 26.4997 35.3541C24.4719 36.2291 22.3052 36.6666 19.9997 36.6666ZM19.9997 34.1666C23.9441 34.1666 27.2913 32.7847 30.0413 30.0208C32.7913 27.2569 34.1663 23.9166 34.1663 20C34.1663 16.0555 32.7913 12.7083 30.0413 9.95831C27.2913 7.20831 23.9441 5.83331 19.9997 5.83331C16.083 5.83331 12.7427 7.20831 9.97884 9.95831C7.21495 12.7083 5.83301 16.0555 5.83301 20C5.83301 23.9166 7.21495 27.2569 9.97884 30.0208C12.7427 32.7847 16.083 34.1666 19.9997 34.1666Z" fill="#337066"/>
</svg>
